<svg width="411" height="332" viewBox="0 0 411 332" fill="none" xmlns="http://www.w3.org/2000/svg">
<path d="M70.392 278L67.08 252.8H71.796L74.244 274.688H74.892L78.06 252.8H86.268L89.436 274.688H90.084L92.532 252.8H97.248L93.936 278H85.728L82.488 255.608H81.84L78.6 278H70.392ZM107.197 278.504C105.925 278.504 104.785 278.288 103.777 277.856C102.769 277.4 101.965 276.752 101.365 275.912C100.789 275.048 100.501 274.004 100.501 272.78C100.501 271.556 100.789 270.536 101.365 269.72C101.965 268.88 102.781 268.256 103.813 267.848C104.869 267.416 106.069 267.2 107.413 267.2H112.309V266.192C112.309 265.352 112.045 264.668 111.517 264.14C110.989 263.588 110.149 263.312 108.997 263.312C107.869 263.312 107.029 263.576 106.477 264.104C105.925 264.608 105.565 265.268 105.397 266.084L101.221 264.68C101.509 263.768 101.965 262.94 102.589 262.196C103.237 261.428 104.089 260.816 105.145 260.36C106.225 259.88 107.533 259.64 109.069 259.64C111.421 259.64 113.281 260.228 114.649 261.404C116.017 262.58 116.701 264.284 116.701 266.516V273.176C116.701 273.896 117.037 274.256 117.709 274.256H119.149V278H116.125C115.237 278 114.505 277.784 113.929 277.352C113.353 276.92 113.065 276.344 113.065 275.624V275.588H112.381C112.285 275.876 112.069 276.26 111.733 276.74C111.397 277.196 110.869 277.604 110.149 277.964C109.429 278.324 108.445 278.504 107.197 278.504ZM107.989 274.832C109.261 274.832 110.293 274.484 111.085 273.788C111.901 273.068 112.309 272.12 112.309 270.944V270.584H107.737C106.897 270.584 106.237 270.764 105.757 271.124C105.277 271.484 105.037 271.988 105.037 272.636C105.037 273.284 105.289 273.812 105.793 274.22C106.297 274.628 107.029 274.832 107.989 274.832ZM123.465 278V252.8H128.001V278H123.465ZM134.028 278V252.8H138.564V278H134.028ZM152.726 278.504C150.95 278.504 149.378 278.132 148.01 277.388C146.666 276.62 145.61 275.552 144.842 274.184C144.098 272.792 143.726 271.16 143.726 269.288V268.856C143.726 266.984 144.098 265.364 144.842 263.996C145.586 262.604 146.63 261.536 147.974 260.792C149.318 260.024 150.878 259.64 152.654 259.64C154.406 259.64 155.93 260.036 157.226 260.828C158.522 261.596 159.53 262.676 160.25 264.068C160.97 265.436 161.33 267.032 161.33 268.856V270.404H148.334C148.382 271.628 148.838 272.624 149.702 273.392C150.566 274.16 151.622 274.544 152.87 274.544C154.142 274.544 155.078 274.268 155.678 273.716C156.278 273.164 156.734 272.552 157.046 271.88L160.754 273.824C160.418 274.448 159.926 275.132 159.278 275.876C158.654 276.596 157.814 277.22 156.758 277.748C155.702 278.252 154.358 278.504 152.726 278.504ZM148.37 267.02H156.722C156.626 265.988 156.206 265.16 155.462 264.536C154.742 263.912 153.794 263.6 152.618 263.6C151.394 263.6 150.422 263.912 149.702 264.536C148.982 265.16 148.538 265.988 148.37 267.02ZM172.645 278C171.469 278 170.509 277.64 169.765 276.92C169.045 276.176 168.685 275.192 168.685 273.968V263.888H164.221V260.144H168.685V254.6H173.221V260.144H178.117V263.888H173.221V273.176C173.221 273.896 173.557 274.256 174.229 274.256H177.685V278H172.645ZM202.796 278.504C199.676 278.504 197.204 277.64 195.38 275.912C193.556 274.16 192.644 271.664 192.644 268.424V262.376C192.644 259.136 193.556 256.652 195.38 254.924C197.204 253.172 199.676 252.296 202.796 252.296C205.892 252.296 208.28 253.148 209.96 254.852C211.664 256.532 212.516 258.848 212.516 261.8V262.016H207.836V261.656C207.836 260.168 207.416 258.944 206.576 257.984C205.76 257.024 204.5 256.544 202.796 256.544C201.116 256.544 199.796 257.06 198.836 258.092C197.876 259.124 197.396 260.528 197.396 262.304V268.496C197.396 270.248 197.876 271.652 198.836 272.708C199.796 273.74 201.116 274.256 202.796 274.256C204.5 274.256 205.76 273.776 206.576 272.816C207.416 271.832 207.836 270.608 207.836 269.144V268.496H212.516V269C212.516 271.952 211.664 274.28 209.96 275.984C208.28 277.664 205.892 278.504 202.796 278.504ZM226.028 278.504C224.252 278.504 222.656 278.144 221.24 277.424C219.824 276.704 218.708 275.66 217.892 274.292C217.076 272.924 216.668 271.28 216.668 269.36V268.784C216.668 266.864 217.076 265.22 217.892 263.852C218.708 262.484 219.824 261.44 221.24 260.72C222.656 260 224.252 259.64 226.028 259.64C227.804 259.64 229.4 260 230.816 260.72C232.232 261.44 233.348 262.484 234.164 263.852C234.98 265.22 235.388 266.864 235.388 268.784V269.36C235.388 271.28 234.98 272.924 234.164 274.292C233.348 275.66 232.232 276.704 230.816 277.424C229.4 278.144 227.804 278.504 226.028 278.504ZM226.028 274.472C227.42 274.472 228.572 274.028 229.484 273.14C230.396 272.228 230.852 270.932 230.852 269.252V268.892C230.852 267.212 230.396 265.928 229.484 265.04C228.596 264.128 227.444 263.672 226.028 263.672C224.636 263.672 223.484 264.128 222.572 265.04C221.66 265.928 221.204 267.212 221.204 268.892V269.252C221.204 270.932 221.66 272.228 222.572 273.14C223.484 274.028 224.636 274.472 226.028 274.472ZM240.575 278V260.144H245.039V262.484H245.687C245.975 261.86 246.515 261.272 247.307 260.72C248.099 260.144 249.299 259.856 250.907 259.856C252.299 259.856 253.511 260.18 254.543 260.828C255.599 261.452 256.415 262.328 256.991 263.456C257.567 264.56 257.855 265.856 257.855 267.344V278H253.319V267.704C253.319 266.36 252.983 265.352 252.311 264.68C251.663 264.008 250.727 263.672 249.503 263.672C248.111 263.672 247.031 264.14 246.263 265.076C245.495 265.988 245.111 267.272 245.111 268.928V278H240.575ZM263.758 278V260.144H268.222V262.484H268.87C269.158 261.86 269.698 261.272 270.49 260.72C271.282 260.144 272.482 259.856 274.09 259.856C275.482 259.856 276.694 260.18 277.726 260.828C278.782 261.452 279.598 262.328 280.174 263.456C280.75 264.56 281.038 265.856 281.038 267.344V278H276.502V267.704C276.502 266.36 276.166 265.352 275.494 264.68C274.846 264.008 273.91 263.672 272.686 263.672C271.294 263.672 270.214 264.14 269.446 265.076C268.678 265.988 268.294 267.272 268.294 268.928V278H263.758ZM295.078 278.504C293.302 278.504 291.73 278.132 290.362 277.388C289.018 276.62 287.962 275.552 287.194 274.184C286.45 272.792 286.078 271.16 286.078 269.288V268.856C286.078 266.984 286.45 265.364 287.194 263.996C287.938 262.604 288.982 261.536 290.326 260.792C291.67 260.024 293.23 259.64 295.006 259.64C296.758 259.64 298.282 260.036 299.578 260.828C300.874 261.596 301.882 262.676 302.602 264.068C303.322 265.436 303.682 267.032 303.682 268.856V270.404H290.686C290.734 271.628 291.19 272.624 292.054 273.392C292.918 274.16 293.974 274.544 295.222 274.544C296.494 274.544 297.43 274.268 298.03 273.716C298.63 273.164 299.086 272.552 299.398 271.88L303.106 273.824C302.77 274.448 302.278 275.132 301.63 275.876C301.006 276.596 300.166 277.22 299.11 277.748C298.054 278.252 296.71 278.504 295.078 278.504ZM290.722 267.02H299.074C298.978 265.988 298.558 265.16 297.814 264.536C297.094 263.912 296.146 263.6 294.97 263.6C293.746 263.6 292.774 263.912 292.054 264.536C291.334 265.16 290.89 265.988 290.722 267.02ZM317.107 278.504C315.379 278.504 313.807 278.144 312.391 277.424C310.999 276.704 309.895 275.66 309.079 274.292C308.263 272.924 307.855 271.268 307.855 269.324V268.82C307.855 266.876 308.263 265.22 309.079 263.852C309.895 262.484 310.999 261.44 312.391 260.72C313.807 260 315.379 259.64 317.107 259.64C318.811 259.64 320.275 259.94 321.499 260.54C322.723 261.14 323.707 261.968 324.451 263.024C325.219 264.056 325.723 265.232 325.963 266.552L321.571 267.488C321.475 266.768 321.259 266.12 320.923 265.544C320.587 264.968 320.107 264.512 319.483 264.176C318.883 263.84 318.127 263.672 317.215 263.672C316.303 263.672 315.475 263.876 314.731 264.284C314.011 264.668 313.435 265.256 313.003 266.048C312.595 266.816 312.391 267.764 312.391 268.892V269.252C312.391 270.38 312.595 271.34 313.003 272.132C313.435 272.9 314.011 273.488 314.731 273.896C315.475 274.28 316.303 274.472 317.215 274.472C318.583 274.472 319.615 274.124 320.311 273.428C321.031 272.708 321.487 271.772 321.679 270.62L326.071 271.664C325.759 272.936 325.219 274.1 324.451 275.156C323.707 276.188 322.723 277.004 321.499 277.604C320.275 278.204 318.811 278.504 317.107 278.504ZM337.09 278C335.914 278 334.954 277.64 334.21 276.92C333.49 276.176 333.13 275.192 333.13 273.968V263.888H328.666V260.144H333.13V254.6H337.666V260.144H342.562V263.888H337.666V273.176C337.666 273.896 338.002 274.256 338.674 274.256H342.13V278H337.09Z" fill="#F2F2F2"/>
<circle cx="206" cy="128" r="80" fill="#474B67"/>
<rect x="1.5" y="1.5" width="408" height="329" rx="23.5" stroke="#474B67" stroke-width="3"/>
<path d="M165.879 102.308C188.088 80.564 224.094 80.564 246.303 102.308L248.976 104.925C250.086 106.012 250.086 107.775 248.976 108.862L239.832 117.814C239.277 118.357 238.377 118.357 237.822 117.814L234.144 114.213C218.651 99.0435 193.531 99.0435 178.038 114.213L174.099 118.069C173.544 118.613 172.644 118.613 172.089 118.069L162.946 109.117C161.835 108.03 161.835 106.267 162.946 105.18L165.879 102.308ZM265.212 120.821L273.349 128.789C274.46 129.876 274.46 131.638 273.349 132.726L236.657 168.651C235.547 169.738 233.746 169.738 232.636 168.651C232.636 168.651 232.636 168.651 232.636 168.651L206.594 143.154C206.316 142.882 205.866 142.882 205.589 143.154C205.589 143.154 205.589 143.154 205.589 143.154L179.547 168.651C178.437 169.738 176.636 169.738 175.526 168.651C175.526 168.651 175.526 168.651 175.526 168.651L138.833 132.725C137.722 131.638 137.722 129.875 138.833 128.788L146.97 120.821C148.081 119.734 149.881 119.734 150.991 120.821L177.034 146.318C177.311 146.59 177.761 146.59 178.039 146.318C178.039 146.318 178.039 146.318 178.039 146.318L204.08 120.821C205.19 119.734 206.991 119.734 208.101 120.821C208.101 120.821 208.101 120.821 208.101 120.821L234.143 146.318C234.421 146.59 234.871 146.59 235.149 146.318L261.191 120.821C262.301 119.734 264.101 119.734 265.212 120.821Z" fill="#3B99FC"/>
</svg>
