<svg width="411" height="332" viewBox="0 0 411 332" fill="none" xmlns="http://www.w3.org/2000/svg">
<rect x="1.5" y="1.5" width="408" height="329" rx="23.5" fill="#242635" stroke="#474B67" stroke-width="3"/>
<path d="M339.984 193.5C336.201 195.9 336.201 198 335.728 199.5C335.256 198.5 334.783 196.4 331 194C333.837 191 334.31 190 335.256 188C335.728 189 336.201 191.1 339.984 193.5Z" fill="#383B51"/>
<path d="M335.728 199.5L335.276 199.714L335.822 200.867L336.205 199.65L335.728 199.5ZM339.984 193.5L340.252 193.922L340.917 193.5L340.252 193.078L339.984 193.5ZM335.256 188L335.708 187.786L335.256 186.83L334.804 187.786L335.256 188ZM331 194L330.637 193.656L330.22 194.097L330.732 194.422L331 194ZM336.205 199.65C336.473 198.801 336.552 198.033 337.058 197.07C337.542 196.149 338.42 195.085 340.252 193.922L339.716 193.078C337.766 194.315 336.752 195.501 336.172 196.605C335.614 197.667 335.457 198.699 335.252 199.35L336.205 199.65ZM334.804 188.214C335.008 188.645 335.287 189.515 335.966 190.507C336.659 191.52 337.775 192.691 339.716 193.922L340.252 193.078C338.411 191.909 337.399 190.83 336.791 189.943C336.17 189.035 335.976 188.355 335.708 187.786L334.804 188.214ZM336.18 199.286C335.976 198.855 335.698 197.985 335.018 196.993C334.325 195.98 333.209 194.809 331.268 193.578L330.732 194.422C332.574 195.591 333.586 196.67 334.193 197.557C334.814 198.465 335.008 199.145 335.276 199.714L336.18 199.286ZM334.804 187.786C334.33 188.789 333.99 189.506 333.423 190.345C332.854 191.187 332.048 192.164 330.637 193.656L331.363 194.344C332.789 192.836 333.638 191.813 334.251 190.905C334.867 189.994 335.236 189.211 335.708 188.214L334.804 187.786Z" fill="#383B51"/>
<path d="M271.984 213.5C268.201 215.9 268.201 218 267.728 219.5C267.256 218.5 266.783 216.4 263 214C265.837 211 266.31 210 267.256 208C267.728 209 268.201 211.1 271.984 213.5Z" fill="#383B51"/>
<path d="M267.728 219.5L267.276 219.714L267.822 220.867L268.205 219.65L267.728 219.5ZM271.984 213.5L272.252 213.922L272.917 213.5L272.252 213.078L271.984 213.5ZM267.256 208L267.708 207.786L267.256 206.83L266.804 207.786L267.256 208ZM263 214L262.637 213.656L262.22 214.097L262.732 214.422L263 214ZM268.205 219.65C268.473 218.801 268.552 218.033 269.058 217.07C269.542 216.149 270.42 215.085 272.252 213.922L271.716 213.078C269.766 214.315 268.752 215.501 268.172 216.605C267.614 217.667 267.457 218.699 267.252 219.35L268.205 219.65ZM266.804 208.214C267.008 208.645 267.287 209.515 267.966 210.507C268.659 211.52 269.775 212.691 271.716 213.922L272.252 213.078C270.411 211.909 269.399 210.83 268.791 209.943C268.17 209.035 267.976 208.355 267.708 207.786L266.804 208.214ZM268.18 219.286C267.976 218.855 267.698 217.985 267.018 216.993C266.325 215.98 265.209 214.809 263.268 213.578L262.732 214.422C264.574 215.591 265.586 216.67 266.193 217.557C266.814 218.465 267.008 219.145 267.276 219.714L268.18 219.286ZM266.804 207.786C266.33 208.789 265.99 209.506 265.423 210.345C264.854 211.187 264.048 212.164 262.637 213.656L263.363 214.344C264.789 212.836 265.638 211.813 266.251 210.905C266.867 209.994 267.236 209.211 267.708 208.214L266.804 207.786Z" fill="#383B51"/>
<path d="M388.984 242.5C385.201 244.9 385.201 247 384.728 248.5C384.256 247.5 383.783 245.4 380 243C382.837 240 383.31 239 384.256 237C384.728 238 385.201 240.1 388.984 242.5Z" fill="#383B51"/>
<path d="M384.728 248.5L384.276 248.714L384.822 249.867L385.205 248.65L384.728 248.5ZM388.984 242.5L389.252 242.922L389.917 242.5L389.252 242.078L388.984 242.5ZM384.256 237L384.708 236.786L384.256 235.83L383.804 236.786L384.256 237ZM380 243L379.637 242.656L379.22 243.097L379.732 243.422L380 243ZM385.205 248.65C385.473 247.801 385.552 247.033 386.058 246.07C386.542 245.149 387.42 244.085 389.252 242.922L388.716 242.078C386.766 243.315 385.752 244.501 385.172 245.605C384.614 246.667 384.457 247.699 384.252 248.35L385.205 248.65ZM383.804 237.214C384.008 237.645 384.287 238.515 384.966 239.507C385.659 240.52 386.775 241.691 388.716 242.922L389.252 242.078C387.411 240.909 386.399 239.83 385.791 238.943C385.17 238.035 384.976 237.355 384.708 236.786L383.804 237.214ZM385.18 248.286C384.976 247.855 384.698 246.985 384.018 245.993C383.325 244.98 382.209 243.809 380.268 242.578L379.732 243.422C381.574 244.591 382.586 245.67 383.193 246.557C383.814 247.465 384.008 248.145 384.276 248.714L385.18 248.286ZM383.804 236.786C383.33 237.789 382.99 238.506 382.423 239.345C381.854 240.187 381.048 241.164 379.637 242.656L380.363 243.344C381.789 241.836 382.638 240.813 383.251 239.905C383.867 238.994 384.236 238.211 384.708 237.214L383.804 236.786Z" fill="#383B51"/>
<path d="M318.984 91.5C315.201 93.9 315.201 96 314.728 97.5C314.256 96.5 313.783 94.4 310 92C312.837 89 313.31 88 314.256 86C314.728 87 315.201 89.1 318.984 91.5Z" fill="#383B51"/>
<path d="M314.728 97.5L314.276 97.7137L314.822 98.867L315.205 97.6503L314.728 97.5ZM318.984 91.5L319.252 91.9222L319.917 91.5L319.252 91.0778L318.984 91.5ZM314.256 86L314.708 85.7863L314.256 84.8303L313.804 85.7863L314.256 86ZM310 92L309.637 91.6564L309.22 92.0972L309.732 92.4222L310 92ZM315.205 97.6503C315.473 96.8015 315.552 96.0329 316.058 95.0701C316.542 94.1489 317.42 93.0846 319.252 91.9222L318.716 91.0778C316.766 92.3154 315.752 93.5011 315.172 94.6049C314.614 95.6671 314.457 96.6985 314.252 97.3497L315.205 97.6503ZM313.804 86.2137C314.008 86.6453 314.287 87.5146 314.966 88.5074C315.659 89.52 316.775 90.6905 318.716 91.9222L319.252 91.0778C317.411 89.9095 316.399 88.83 315.791 87.9426C315.17 87.0354 314.976 86.3547 314.708 85.7863L313.804 86.2137ZM315.18 97.2863C314.976 96.8547 314.698 95.9854 314.018 94.9926C313.325 93.98 312.209 92.8095 310.268 91.5778L309.732 92.4222C311.574 93.5905 312.586 94.67 313.193 95.5574C313.814 96.4646 314.008 97.1453 314.276 97.7137L315.18 97.2863ZM313.804 85.7863C313.33 86.7885 312.99 87.5059 312.423 88.3451C311.854 89.1872 311.048 90.1644 309.637 91.6564L310.363 92.3436C311.789 90.8356 312.638 89.8128 313.251 88.9049C313.867 87.9941 314.236 87.2115 314.708 86.2137L313.804 85.7863Z" fill="#383B51"/>
<path d="M384.984 36.5C381.201 38.9 381.201 41 380.728 42.5C380.256 41.5 379.783 39.4 376 37C378.837 34 379.31 33 380.256 31C380.728 32 381.201 34.1 384.984 36.5Z" fill="#383B51"/>
<path d="M380.728 42.5L380.276 42.7137L380.822 43.867L381.205 42.6503L380.728 42.5ZM384.984 36.5L385.252 36.9222L385.917 36.5L385.252 36.0778L384.984 36.5ZM380.256 31L380.708 30.7863L380.256 29.8303L379.804 30.7863L380.256 31ZM376 37L375.637 36.6564L375.22 37.0972L375.732 37.4222L376 37ZM381.205 42.6503C381.473 41.8015 381.552 41.0329 382.058 40.0701C382.542 39.1489 383.42 38.0846 385.252 36.9222L384.716 36.0778C382.766 37.3154 381.752 38.5011 381.172 39.6049C380.614 40.6671 380.457 41.6985 380.252 42.3497L381.205 42.6503ZM379.804 31.2137C380.008 31.6453 380.287 32.5146 380.966 33.5074C381.659 34.52 382.775 35.6905 384.716 36.9222L385.252 36.0778C383.411 34.9095 382.399 33.83 381.791 32.9426C381.17 32.0354 380.976 31.3547 380.708 30.7863L379.804 31.2137ZM381.18 42.2863C380.976 41.8547 380.698 40.9854 380.018 39.9926C379.325 38.98 378.209 37.8095 376.268 36.5778L375.732 37.4222C377.574 38.5905 378.586 39.67 379.193 40.5574C379.814 41.4646 380.008 42.1453 380.276 42.7137L381.18 42.2863ZM379.804 30.7863C379.33 31.7885 378.99 32.5059 378.423 33.3451C377.854 34.1872 377.048 35.1644 375.637 36.6564L376.363 37.3436C377.789 35.8356 378.638 34.8128 379.251 33.9049C379.867 32.9941 380.236 32.2115 380.708 31.2137L379.804 30.7863Z" fill="#383B51"/>
<path d="M217.984 19.5C214.201 21.9 214.201 24 213.728 25.5C213.256 24.5 212.783 22.4 209 20C211.837 17 212.31 16 213.256 14C213.728 15 214.201 17.1 217.984 19.5Z" fill="#383B51"/>
<path d="M213.728 25.5L213.276 25.7137L213.822 26.867L214.205 25.6503L213.728 25.5ZM217.984 19.5L218.252 19.9222L218.917 19.5L218.252 19.0778L217.984 19.5ZM213.256 14L213.708 13.7863L213.256 12.8303L212.804 13.7863L213.256 14ZM209 20L208.637 19.6564L208.22 20.0972L208.732 20.4222L209 20ZM214.205 25.6503C214.473 24.8015 214.552 24.0329 215.058 23.0701C215.542 22.1489 216.42 21.0846 218.252 19.9222L217.716 19.0778C215.766 20.3154 214.752 21.5011 214.172 22.6049C213.614 23.6671 213.457 24.6985 213.252 25.3497L214.205 25.6503ZM212.804 14.2137C213.008 14.6453 213.287 15.5146 213.966 16.5074C214.659 17.52 215.775 18.6905 217.716 19.9222L218.252 19.0778C216.411 17.9095 215.399 16.83 214.791 15.9426C214.17 15.0354 213.976 14.3547 213.708 13.7863L212.804 14.2137ZM214.18 25.2863C213.976 24.8547 213.698 23.9854 213.018 22.9926C212.325 21.98 211.209 20.8095 209.268 19.5778L208.732 20.4222C210.574 21.5905 211.586 22.67 212.193 23.5574C212.814 24.4646 213.008 25.1453 213.276 25.7137L214.18 25.2863ZM212.804 13.7863C212.33 14.7885 211.99 15.5059 211.423 16.3451C210.854 17.1872 210.048 18.1644 208.637 19.6564L209.363 20.3436C210.789 18.8356 211.638 17.8128 212.251 16.9049C212.867 15.9941 213.236 15.2115 213.708 14.2137L212.804 13.7863Z" fill="#383B51"/>
<path d="M97.9841 74.5C94.2013 76.9 94.2013 79 93.7285 80.5C93.2556 79.5 92.7828 77.4 89 75C91.8371 72 92.3099 71 93.2556 69C93.7285 70 94.2013 72.1 97.9841 74.5Z" fill="#383B51"/>
<path d="M93.7285 80.5L93.2765 80.7137L93.8218 81.867L94.2053 80.6503L93.7285 80.5ZM97.9841 74.5L98.252 74.9222L98.9174 74.5L98.252 74.0778L97.9841 74.5ZM93.2556 69L93.7076 68.7863L93.2556 67.8303L92.8036 68.7863L93.2556 69ZM89 75L88.6367 74.6564L88.2199 75.0972L88.7321 75.4222L89 75ZM94.2053 80.6503C94.4729 79.8015 94.5519 79.0329 95.0577 78.0701C95.5416 77.1489 96.4198 76.0846 98.252 74.9222L97.7163 74.0778C95.7656 75.3154 94.7524 76.5011 94.1724 77.6049C93.6144 78.6671 93.4569 79.6985 93.2516 80.3497L94.2053 80.6503ZM92.8036 69.2137C93.0077 69.6453 93.2866 70.5146 93.966 71.5074C94.6591 72.52 95.7749 73.6905 97.7163 74.9222L98.252 74.0778C96.4105 72.9095 95.3986 71.83 94.7913 70.9426C94.1704 70.0354 93.9764 69.3547 93.7076 68.7863L92.8036 69.2137ZM94.1805 80.2863C93.9764 79.8547 93.6975 78.9854 93.0181 77.9926C92.3251 76.98 91.2092 75.8095 89.2679 74.5778L88.7321 75.4222C90.5736 76.5905 91.5855 77.67 92.1928 78.5574C92.8137 79.4646 93.0077 80.1453 93.2765 80.7137L94.1805 80.2863ZM92.8036 68.7863C92.3297 69.7885 91.9897 70.5059 91.4228 71.3451C90.8539 72.1872 90.0477 73.1644 88.6367 74.6564L89.3633 75.3436C90.7894 73.8356 91.6381 72.8128 92.2514 71.9049C92.8666 70.9941 93.2359 70.2115 93.7076 69.2137L92.8036 68.7863Z" fill="#383B51"/>
<path d="M35.9841 155.5C32.2013 157.9 32.2013 160 31.7285 161.5C31.2556 160.5 30.7828 158.4 27 156C29.8371 153 30.3099 152 31.2556 150C31.7285 151 32.2013 153.1 35.9841 155.5Z" fill="#383B51"/>
<path d="M31.7285 161.5L31.2765 161.714L31.8218 162.867L32.2053 161.65L31.7285 161.5ZM35.9841 155.5L36.252 155.922L36.9174 155.5L36.252 155.078L35.9841 155.5ZM31.2556 150L31.7076 149.786L31.2556 148.83L30.8036 149.786L31.2556 150ZM27 156L26.6367 155.656L26.2199 156.097L26.7321 156.422L27 156ZM32.2053 161.65C32.4729 160.801 32.5519 160.033 33.0577 159.07C33.5416 158.149 34.4198 157.085 36.252 155.922L35.7163 155.078C33.7656 156.315 32.7524 157.501 32.1724 158.605C31.6144 159.667 31.4569 160.699 31.2516 161.35L32.2053 161.65ZM30.8036 150.214C31.0077 150.645 31.2866 151.515 31.966 152.507C32.6591 153.52 33.7749 154.691 35.7163 155.922L36.252 155.078C34.4105 153.909 33.3986 152.83 32.7913 151.943C32.1704 151.035 31.9764 150.355 31.7076 149.786L30.8036 150.214ZM32.1805 161.286C31.9764 160.855 31.6975 159.985 31.0181 158.993C30.3251 157.98 29.2092 156.809 27.2679 155.578L26.7321 156.422C28.5736 157.591 29.5855 158.67 30.1928 159.557C30.8137 160.465 31.0077 161.145 31.2765 161.714L32.1805 161.286ZM30.8036 149.786C30.3297 150.789 29.9897 151.506 29.4228 152.345C28.8539 153.187 28.0477 154.164 26.6367 155.656L27.3633 156.344C28.7894 154.836 29.6381 153.813 30.2514 152.905C30.8666 151.994 31.2359 151.211 31.7076 150.214L30.8036 149.786Z" fill="#383B51"/>
<path d="M107.984 195.5C104.201 197.9 104.201 200 103.728 201.5C103.256 200.5 102.783 198.4 99 196C101.837 193 102.31 192 103.256 190C103.728 191 104.201 193.1 107.984 195.5Z" fill="#383B51"/>
<path d="M103.728 201.5L103.276 201.714L103.822 202.867L104.205 201.65L103.728 201.5ZM107.984 195.5L108.252 195.922L108.917 195.5L108.252 195.078L107.984 195.5ZM103.256 190L103.708 189.786L103.256 188.83L102.804 189.786L103.256 190ZM99 196L98.6367 195.656L98.2199 196.097L98.7321 196.422L99 196ZM104.205 201.65C104.473 200.801 104.552 200.033 105.058 199.07C105.542 198.149 106.42 197.085 108.252 195.922L107.716 195.078C105.766 196.315 104.752 197.501 104.172 198.605C103.614 199.667 103.457 200.699 103.252 201.35L104.205 201.65ZM102.804 190.214C103.008 190.645 103.287 191.515 103.966 192.507C104.659 193.52 105.775 194.691 107.716 195.922L108.252 195.078C106.411 193.909 105.399 192.83 104.791 191.943C104.17 191.035 103.976 190.355 103.708 189.786L102.804 190.214ZM104.18 201.286C103.976 200.855 103.698 199.985 103.018 198.993C102.325 197.98 101.209 196.809 99.2679 195.578L98.7321 196.422C100.574 197.591 101.586 198.67 102.193 199.557C102.814 200.465 103.008 201.145 103.276 201.714L104.18 201.286ZM102.804 189.786C102.33 190.789 101.99 191.506 101.423 192.345C100.854 193.187 100.048 194.164 98.6367 195.656L99.3633 196.344C100.789 194.836 101.638 193.813 102.251 192.905C102.867 191.994 103.236 191.211 103.708 190.214L102.804 189.786Z" fill="#383B51"/>
<path d="M39.9841 262.5C36.2013 264.9 36.2013 267 35.7285 268.5C35.2556 267.5 34.7828 265.4 31 263C33.8371 260 34.3099 259 35.2556 257C35.7285 258 36.2013 260.1 39.9841 262.5Z" fill="#383B51"/>
<path d="M35.7285 268.5L35.2765 268.714L35.8218 269.867L36.2053 268.65L35.7285 268.5ZM39.9841 262.5L40.252 262.922L40.9174 262.5L40.252 262.078L39.9841 262.5ZM35.2556 257L35.7076 256.786L35.2556 255.83L34.8036 256.786L35.2556 257ZM31 263L30.6367 262.656L30.2199 263.097L30.7321 263.422L31 263ZM36.2053 268.65C36.4729 267.801 36.5519 267.033 37.0577 266.07C37.5416 265.149 38.4198 264.085 40.252 262.922L39.7163 262.078C37.7656 263.315 36.7524 264.501 36.1724 265.605C35.6144 266.667 35.4569 267.699 35.2516 268.35L36.2053 268.65ZM34.8036 257.214C35.0077 257.645 35.2866 258.515 35.966 259.507C36.6591 260.52 37.7749 261.691 39.7163 262.922L40.252 262.078C38.4105 260.909 37.3986 259.83 36.7913 258.943C36.1704 258.035 35.9764 257.355 35.7076 256.786L34.8036 257.214ZM36.1805 268.286C35.9764 267.855 35.6975 266.985 35.0181 265.993C34.3251 264.98 33.2092 263.809 31.2679 262.578L30.7321 263.422C32.5736 264.591 33.5855 265.67 34.1928 266.557C34.8137 267.465 35.0077 268.145 35.2765 268.714L36.1805 268.286ZM34.8036 256.786C34.3297 257.789 33.9897 258.506 33.4228 259.345C32.8539 260.187 32.0477 261.164 30.6367 262.656L31.3633 263.344C32.7894 261.836 33.6381 260.813 34.2514 259.905C34.8666 258.994 35.2359 258.211 35.7076 257.214L34.8036 256.786Z" fill="#383B51"/>
<path d="M210.984 237.5C207.201 239.9 207.201 242 206.728 243.5C206.256 242.5 205.783 240.4 202 238C204.837 235 205.31 234 206.256 232C206.728 233 207.201 235.1 210.984 237.5Z" fill="#383B51"/>
<path d="M206.728 243.5L206.276 243.714L206.822 244.867L207.205 243.65L206.728 243.5ZM210.984 237.5L211.252 237.922L211.917 237.5L211.252 237.078L210.984 237.5ZM206.256 232L206.708 231.786L206.256 230.83L205.804 231.786L206.256 232ZM202 238L201.637 237.656L201.22 238.097L201.732 238.422L202 238ZM207.205 243.65C207.473 242.801 207.552 242.033 208.058 241.07C208.542 240.149 209.42 239.085 211.252 237.922L210.716 237.078C208.766 238.315 207.752 239.501 207.172 240.605C206.614 241.667 206.457 242.699 206.252 243.35L207.205 243.65ZM205.804 232.214C206.008 232.645 206.287 233.515 206.966 234.507C207.659 235.52 208.775 236.691 210.716 237.922L211.252 237.078C209.411 235.909 208.399 234.83 207.791 233.943C207.17 233.035 206.976 232.355 206.708 231.786L205.804 232.214ZM207.18 243.286C206.976 242.855 206.698 241.985 206.018 240.993C205.325 239.98 204.209 238.809 202.268 237.578L201.732 238.422C203.574 239.591 204.586 240.67 205.193 241.557C205.814 242.465 206.008 243.145 206.276 243.714L207.18 243.286ZM205.804 231.786C205.33 232.789 204.99 233.506 204.423 234.345C203.854 235.187 203.048 236.164 201.637 237.656L202.363 238.344C203.789 236.836 204.638 235.813 205.251 234.905C205.867 233.994 206.236 233.211 206.708 232.214L205.804 231.786Z" fill="#383B51"/>
<path d="M302.984 302.5C299.201 304.9 299.201 307 298.728 308.5C298.256 307.5 297.783 305.4 294 303C296.837 300 297.31 299 298.256 297C298.728 298 299.201 300.1 302.984 302.5Z" fill="#383B51"/>
<path d="M298.728 308.5L298.276 308.714L298.822 309.867L299.205 308.65L298.728 308.5ZM302.984 302.5L303.252 302.922L303.917 302.5L303.252 302.078L302.984 302.5ZM298.256 297L298.708 296.786L298.256 295.83L297.804 296.786L298.256 297ZM294 303L293.637 302.656L293.22 303.097L293.732 303.422L294 303ZM299.205 308.65C299.473 307.801 299.552 307.033 300.058 306.07C300.542 305.149 301.42 304.085 303.252 302.922L302.716 302.078C300.766 303.315 299.752 304.501 299.172 305.605C298.614 306.667 298.457 307.699 298.252 308.35L299.205 308.65ZM297.804 297.214C298.008 297.645 298.287 298.515 298.966 299.507C299.659 300.52 300.775 301.691 302.716 302.922L303.252 302.078C301.411 300.909 300.399 299.83 299.791 298.943C299.17 298.035 298.976 297.355 298.708 296.786L297.804 297.214ZM299.18 308.286C298.976 307.855 298.698 306.985 298.018 305.993C297.325 304.98 296.209 303.809 294.268 302.578L293.732 303.422C295.574 304.591 296.586 305.67 297.193 306.557C297.814 307.465 298.008 308.145 298.276 308.714L299.18 308.286ZM297.804 296.786C297.33 297.789 296.99 298.506 296.423 299.345C295.854 300.187 295.048 301.164 293.637 302.656L294.363 303.344C295.789 301.836 296.638 300.813 297.251 299.905C297.867 298.994 298.236 298.211 298.708 297.214L297.804 296.786Z" fill="#383B51"/>
<path d="M144.984 313.5C141.201 315.9 141.201 318 140.728 319.5C140.256 318.5 139.783 316.4 136 314C138.837 311 139.31 310 140.256 308C140.728 309 141.201 311.1 144.984 313.5Z" fill="#383B51"/>
<path d="M140.728 319.5L140.276 319.714L140.822 320.867L141.205 319.65L140.728 319.5ZM144.984 313.5L145.252 313.922L145.917 313.5L145.252 313.078L144.984 313.5ZM140.256 308L140.708 307.786L140.256 306.83L139.804 307.786L140.256 308ZM136 314L135.637 313.656L135.22 314.097L135.732 314.422L136 314ZM141.205 319.65C141.473 318.801 141.552 318.033 142.058 317.07C142.542 316.149 143.42 315.085 145.252 313.922L144.716 313.078C142.766 314.315 141.752 315.501 141.172 316.605C140.614 317.667 140.457 318.699 140.252 319.35L141.205 319.65ZM139.804 308.214C140.008 308.645 140.287 309.515 140.966 310.507C141.659 311.52 142.775 312.691 144.716 313.922L145.252 313.078C143.411 311.909 142.399 310.83 141.791 309.943C141.17 309.035 140.976 308.355 140.708 307.786L139.804 308.214ZM141.18 319.286C140.976 318.855 140.698 317.985 140.018 316.993C139.325 315.98 138.209 314.809 136.268 313.578L135.732 314.422C137.574 315.591 138.586 316.67 139.193 317.557C139.814 318.465 140.008 319.145 140.276 319.714L141.18 319.286ZM139.804 307.786C139.33 308.789 138.99 309.506 138.423 310.345C137.854 311.187 137.048 312.164 135.637 313.656L136.363 314.344C137.789 312.836 138.638 311.813 139.251 310.905C139.867 309.994 140.236 309.211 140.708 308.214L139.804 307.786Z" fill="#383B51"/>
<path d="M26.9841 32.5C23.2013 34.9 23.2013 37 22.7285 38.5C22.2556 37.5 21.7828 35.4 18 33C20.8371 30 21.3099 29 22.2556 27C22.7285 28 23.2013 30.1 26.9841 32.5Z" fill="#383B51"/>
<path d="M22.7285 38.5L22.2765 38.7137L22.8218 39.867L23.2053 38.6503L22.7285 38.5ZM26.9841 32.5L27.252 32.9222L27.9174 32.5L27.252 32.0778L26.9841 32.5ZM22.2556 27L22.7076 26.7863L22.2556 25.8303L21.8036 26.7863L22.2556 27ZM18 33L17.6367 32.6564L17.2199 33.0972L17.7321 33.4222L18 33ZM23.2053 38.6503C23.4729 37.8015 23.5519 37.0329 24.0577 36.0701C24.5416 35.1489 25.4198 34.0846 27.252 32.9222L26.7163 32.0778C24.7656 33.3154 23.7524 34.5011 23.1724 35.6049C22.6144 36.6671 22.4569 37.6985 22.2516 38.3497L23.2053 38.6503ZM21.8036 27.2137C22.0077 27.6453 22.2866 28.5146 22.966 29.5074C23.6591 30.52 24.7749 31.6905 26.7163 32.9222L27.252 32.0778C25.4105 30.9095 24.3986 29.83 23.7913 28.9426C23.1704 28.0354 22.9764 27.3547 22.7076 26.7863L21.8036 27.2137ZM23.1805 38.2863C22.9764 37.8547 22.6975 36.9854 22.0181 35.9926C21.3251 34.98 20.2092 33.8095 18.2679 32.5778L17.7321 33.4222C19.5736 34.5905 20.5855 35.67 21.1928 36.5574C21.8137 37.4646 22.0077 38.1453 22.2765 38.7137L23.1805 38.2863ZM21.8036 26.7863C21.3297 27.7885 20.9897 28.5059 20.4228 29.3451C19.8539 30.1872 19.0477 31.1644 17.6367 32.6564L18.3633 33.3436C19.7894 31.8356 20.6381 30.8128 21.2514 29.9049C21.8666 28.9941 22.2359 28.2115 22.7076 27.2137L21.8036 26.7863Z" fill="#383B51"/>
<circle cx="206" cy="128" r="80" fill="#FFCA00"/>
<path d="M164.879 102.308C187.088 80.564 223.094 80.564 245.303 102.308L247.976 104.925C249.086 106.012 249.086 107.775 247.976 108.862L238.832 117.814C238.277 118.357 237.377 118.357 236.822 117.814L233.144 114.213C217.651 99.0435 192.531 99.0435 177.038 114.213L173.099 118.069C172.544 118.613 171.644 118.613 171.089 118.069L161.946 109.117C160.835 108.03 160.835 106.267 161.946 105.18L164.879 102.308ZM264.212 120.821L272.349 128.789C273.46 129.876 273.46 131.638 272.349 132.726L235.657 168.651C234.547 169.738 232.746 169.738 231.636 168.651C231.636 168.651 231.636 168.651 231.636 168.651L205.594 143.154C205.316 142.882 204.866 142.882 204.589 143.154C204.589 143.154 204.589 143.154 204.589 143.154L178.547 168.651C177.437 169.738 175.636 169.738 174.526 168.651C174.526 168.651 174.526 168.651 174.526 168.651L137.833 132.725C136.722 131.638 136.722 129.875 137.833 128.788L145.97 120.821C147.081 119.734 148.881 119.734 149.991 120.821L176.034 146.318C176.311 146.59 176.761 146.59 177.039 146.318C177.039 146.318 177.039 146.318 177.039 146.318L203.08 120.821C204.19 119.734 205.991 119.734 207.101 120.821C207.101 120.821 207.101 120.821 207.101 120.821L233.143 146.318C233.421 146.59 233.871 146.59 234.149 146.318L260.191 120.821C261.301 119.734 263.101 119.734 264.212 120.821Z" fill="#242635"/>
<path d="M70.392 278L67.08 252.8H71.796L74.244 274.688H74.892L78.06 252.8H86.268L89.436 274.688H90.084L92.532 252.8H97.248L93.936 278H85.728L82.488 255.608H81.84L78.6 278H70.392ZM107.197 278.504C105.925 278.504 104.785 278.288 103.777 277.856C102.769 277.4 101.965 276.752 101.365 275.912C100.789 275.048 100.501 274.004 100.501 272.78C100.501 271.556 100.789 270.536 101.365 269.72C101.965 268.88 102.781 268.256 103.813 267.848C104.869 267.416 106.069 267.2 107.413 267.2H112.309V266.192C112.309 265.352 112.045 264.668 111.517 264.14C110.989 263.588 110.149 263.312 108.997 263.312C107.869 263.312 107.029 263.576 106.477 264.104C105.925 264.608 105.565 265.268 105.397 266.084L101.221 264.68C101.509 263.768 101.965 262.94 102.589 262.196C103.237 261.428 104.089 260.816 105.145 260.36C106.225 259.88 107.533 259.64 109.069 259.64C111.421 259.64 113.281 260.228 114.649 261.404C116.017 262.58 116.701 264.284 116.701 266.516V273.176C116.701 273.896 117.037 274.256 117.709 274.256H119.149V278H116.125C115.237 278 114.505 277.784 113.929 277.352C113.353 276.92 113.065 276.344 113.065 275.624V275.588H112.381C112.285 275.876 112.069 276.26 111.733 276.74C111.397 277.196 110.869 277.604 110.149 277.964C109.429 278.324 108.445 278.504 107.197 278.504ZM107.989 274.832C109.261 274.832 110.293 274.484 111.085 273.788C111.901 273.068 112.309 272.12 112.309 270.944V270.584H107.737C106.897 270.584 106.237 270.764 105.757 271.124C105.277 271.484 105.037 271.988 105.037 272.636C105.037 273.284 105.289 273.812 105.793 274.22C106.297 274.628 107.029 274.832 107.989 274.832ZM123.465 278V252.8H128.001V278H123.465ZM134.028 278V252.8H138.564V278H134.028ZM152.726 278.504C150.95 278.504 149.378 278.132 148.01 277.388C146.666 276.62 145.61 275.552 144.842 274.184C144.098 272.792 143.726 271.16 143.726 269.288V268.856C143.726 266.984 144.098 265.364 144.842 263.996C145.586 262.604 146.63 261.536 147.974 260.792C149.318 260.024 150.878 259.64 152.654 259.64C154.406 259.64 155.93 260.036 157.226 260.828C158.522 261.596 159.53 262.676 160.25 264.068C160.97 265.436 161.33 267.032 161.33 268.856V270.404H148.334C148.382 271.628 148.838 272.624 149.702 273.392C150.566 274.16 151.622 274.544 152.87 274.544C154.142 274.544 155.078 274.268 155.678 273.716C156.278 273.164 156.734 272.552 157.046 271.88L160.754 273.824C160.418 274.448 159.926 275.132 159.278 275.876C158.654 276.596 157.814 277.22 156.758 277.748C155.702 278.252 154.358 278.504 152.726 278.504ZM148.37 267.02H156.722C156.626 265.988 156.206 265.16 155.462 264.536C154.742 263.912 153.794 263.6 152.618 263.6C151.394 263.6 150.422 263.912 149.702 264.536C148.982 265.16 148.538 265.988 148.37 267.02ZM172.645 278C171.469 278 170.509 277.64 169.765 276.92C169.045 276.176 168.685 275.192 168.685 273.968V263.888H164.221V260.144H168.685V254.6H173.221V260.144H178.117V263.888H173.221V273.176C173.221 273.896 173.557 274.256 174.229 274.256H177.685V278H172.645ZM202.796 278.504C199.676 278.504 197.204 277.64 195.38 275.912C193.556 274.16 192.644 271.664 192.644 268.424V262.376C192.644 259.136 193.556 256.652 195.38 254.924C197.204 253.172 199.676 252.296 202.796 252.296C205.892 252.296 208.28 253.148 209.96 254.852C211.664 256.532 212.516 258.848 212.516 261.8V262.016H207.836V261.656C207.836 260.168 207.416 258.944 206.576 257.984C205.76 257.024 204.5 256.544 202.796 256.544C201.116 256.544 199.796 257.06 198.836 258.092C197.876 259.124 197.396 260.528 197.396 262.304V268.496C197.396 270.248 197.876 271.652 198.836 272.708C199.796 273.74 201.116 274.256 202.796 274.256C204.5 274.256 205.76 273.776 206.576 272.816C207.416 271.832 207.836 270.608 207.836 269.144V268.496H212.516V269C212.516 271.952 211.664 274.28 209.96 275.984C208.28 277.664 205.892 278.504 202.796 278.504ZM226.028 278.504C224.252 278.504 222.656 278.144 221.24 277.424C219.824 276.704 218.708 275.66 217.892 274.292C217.076 272.924 216.668 271.28 216.668 269.36V268.784C216.668 266.864 217.076 265.22 217.892 263.852C218.708 262.484 219.824 261.44 221.24 260.72C222.656 260 224.252 259.64 226.028 259.64C227.804 259.64 229.4 260 230.816 260.72C232.232 261.44 233.348 262.484 234.164 263.852C234.98 265.22 235.388 266.864 235.388 268.784V269.36C235.388 271.28 234.98 272.924 234.164 274.292C233.348 275.66 232.232 276.704 230.816 277.424C229.4 278.144 227.804 278.504 226.028 278.504ZM226.028 274.472C227.42 274.472 228.572 274.028 229.484 273.14C230.396 272.228 230.852 270.932 230.852 269.252V268.892C230.852 267.212 230.396 265.928 229.484 265.04C228.596 264.128 227.444 263.672 226.028 263.672C224.636 263.672 223.484 264.128 222.572 265.04C221.66 265.928 221.204 267.212 221.204 268.892V269.252C221.204 270.932 221.66 272.228 222.572 273.14C223.484 274.028 224.636 274.472 226.028 274.472ZM240.575 278V260.144H245.039V262.484H245.687C245.975 261.86 246.515 261.272 247.307 260.72C248.099 260.144 249.299 259.856 250.907 259.856C252.299 259.856 253.511 260.18 254.543 260.828C255.599 261.452 256.415 262.328 256.991 263.456C257.567 264.56 257.855 265.856 257.855 267.344V278H253.319V267.704C253.319 266.36 252.983 265.352 252.311 264.68C251.663 264.008 250.727 263.672 249.503 263.672C248.111 263.672 247.031 264.14 246.263 265.076C245.495 265.988 245.111 267.272 245.111 268.928V278H240.575ZM263.758 278V260.144H268.222V262.484H268.87C269.158 261.86 269.698 261.272 270.49 260.72C271.282 260.144 272.482 259.856 274.09 259.856C275.482 259.856 276.694 260.18 277.726 260.828C278.782 261.452 279.598 262.328 280.174 263.456C280.75 264.56 281.038 265.856 281.038 267.344V278H276.502V267.704C276.502 266.36 276.166 265.352 275.494 264.68C274.846 264.008 273.91 263.672 272.686 263.672C271.294 263.672 270.214 264.14 269.446 265.076C268.678 265.988 268.294 267.272 268.294 268.928V278H263.758ZM295.078 278.504C293.302 278.504 291.73 278.132 290.362 277.388C289.018 276.62 287.962 275.552 287.194 274.184C286.45 272.792 286.078 271.16 286.078 269.288V268.856C286.078 266.984 286.45 265.364 287.194 263.996C287.938 262.604 288.982 261.536 290.326 260.792C291.67 260.024 293.23 259.64 295.006 259.64C296.758 259.64 298.282 260.036 299.578 260.828C300.874 261.596 301.882 262.676 302.602 264.068C303.322 265.436 303.682 267.032 303.682 268.856V270.404H290.686C290.734 271.628 291.19 272.624 292.054 273.392C292.918 274.16 293.974 274.544 295.222 274.544C296.494 274.544 297.43 274.268 298.03 273.716C298.63 273.164 299.086 272.552 299.398 271.88L303.106 273.824C302.77 274.448 302.278 275.132 301.63 275.876C301.006 276.596 300.166 277.22 299.11 277.748C298.054 278.252 296.71 278.504 295.078 278.504ZM290.722 267.02H299.074C298.978 265.988 298.558 265.16 297.814 264.536C297.094 263.912 296.146 263.6 294.97 263.6C293.746 263.6 292.774 263.912 292.054 264.536C291.334 265.16 290.89 265.988 290.722 267.02ZM317.107 278.504C315.379 278.504 313.807 278.144 312.391 277.424C310.999 276.704 309.895 275.66 309.079 274.292C308.263 272.924 307.855 271.268 307.855 269.324V268.82C307.855 266.876 308.263 265.22 309.079 263.852C309.895 262.484 310.999 261.44 312.391 260.72C313.807 260 315.379 259.64 317.107 259.64C318.811 259.64 320.275 259.94 321.499 260.54C322.723 261.14 323.707 261.968 324.451 263.024C325.219 264.056 325.723 265.232 325.963 266.552L321.571 267.488C321.475 266.768 321.259 266.12 320.923 265.544C320.587 264.968 320.107 264.512 319.483 264.176C318.883 263.84 318.127 263.672 317.215 263.672C316.303 263.672 315.475 263.876 314.731 264.284C314.011 264.668 313.435 265.256 313.003 266.048C312.595 266.816 312.391 267.764 312.391 268.892V269.252C312.391 270.38 312.595 271.34 313.003 272.132C313.435 272.9 314.011 273.488 314.731 273.896C315.475 274.28 316.303 274.472 317.215 274.472C318.583 274.472 319.615 274.124 320.311 273.428C321.031 272.708 321.487 271.772 321.679 270.62L326.071 271.664C325.759 272.936 325.219 274.1 324.451 275.156C323.707 276.188 322.723 277.004 321.499 277.604C320.275 278.204 318.811 278.504 317.107 278.504ZM337.09 278C335.914 278 334.954 277.64 334.21 276.92C333.49 276.176 333.13 275.192 333.13 273.968V263.888H328.666V260.144H333.13V254.6H337.666V260.144H342.562V263.888H337.666V273.176C337.666 273.896 338.002 274.256 338.674 274.256H342.13V278H337.09Z" fill="#FFCA00"/>
</svg>
