<svg width="40" height="40" viewBox="0 0 40 40" fill="none" xmlns="http://www.w3.org/2000/svg">
<path fill-rule="evenodd" clip-rule="evenodd" d="M20.1577 6.27811C20.1577 12.515 20.1624 12.5575 20.8663 12.7701C22.7479 13.3386 24.5479 16.1389 24.5602 18.5165C24.5668 19.8082 23.6711 22.1002 22.9967 22.5168C22.821 22.6255 22.6774 22.8312 22.6774 22.9735C22.6774 23.4444 28.0175 27.7165 28.6055 27.7165C29.3879 27.7165 30.5514 29.0123 30.5514 29.8835C30.5514 32.3849 27.2569 33.2217 26.3844 30.9417C26.203 30.4671 24.5763 28.8387 22.77 27.3228C19.9567 24.9622 19.3192 24.566 18.3255 24.56C16.775 24.5509 14.8071 23.6192 13.7939 22.4151C11.277 19.4239 12.1048 15.097 15.5838 13.0583L17.0081 12.2236V6.22551V0.227087L15.4528 0.411339C13.3819 0.656693 10.9848 1.6926 8.5709 3.38488C1.13814 8.59591 -0.594142 18.9266 4.66318 26.685C6.63641 29.5965 7.27389 31.1002 7.52239 33.4258C7.65058 34.6252 7.95956 35.8072 8.20869 36.052C8.63672 36.4724 23.5142 40 24.8594 40C25.6789 40 26.1419 39.098 26.1419 37.5011V36.2205H28.4046C31.2654 36.2205 33.0767 35.4142 34.2729 33.6079C35.0276 32.4683 35.1353 31.9569 35.2758 28.8428L35.4333 25.3543L37.4018 24.3134C38.9029 23.5194 39.3703 23.1083 39.3696 22.5811C39.3696 22.2009 38.4739 20.3994 37.3794 18.578C36.0663 16.3924 35.2055 14.5342 34.8487 13.1131C33.2811 6.87244 28.5826 2.06488 22.5035 0.48126C21.4868 0.216693 20.5432 0 20.4065 0C20.2695 0 20.1577 2.8252 20.1577 6.27811ZM16.3539 16.3537C15.6723 17.0353 15.4333 17.5732 15.4333 18.4252C15.4333 21.0784 18.7466 22.4384 20.5712 20.5339C22.3948 18.6302 21.05 15.4331 18.4254 15.4331C17.5734 15.4331 17.0355 15.6721 16.3539 16.3537Z" fill="#242535"/>
</svg>
