<svg width="40" height="40" viewBox="0 0 40 40" fill="none" xmlns="http://www.w3.org/2000/svg">
<path fill-rule="evenodd" clip-rule="evenodd" d="M17.6377 0.275578C14.8088 1.20692 12.7426 2.99873 11.5993 5.5118C10.9984 6.83274 10.8639 7.75337 10.7656 11.2242L10.6484 15.3622L9.46766 15.5509C7.88687 15.8038 5.47994 17.9269 5.02451 19.4699C4.80593 20.2113 4.71837 23.4321 4.78199 28.3968L4.88183 36.1635L5.84498 37.3732C6.37475 38.0384 7.43239 38.9017 8.19522 39.2913C9.55081 39.9839 9.81727 40 19.9999 40C30.1826 40 30.4491 39.9839 31.8047 39.2913C32.5675 38.9017 33.6251 38.0384 34.1549 37.3732L35.1181 36.1635L35.2179 28.3968C35.2815 23.4321 35.194 20.2113 34.9754 19.4699C34.5209 17.9298 32.1127 15.8038 30.5376 15.5518L29.3622 15.3638L29.2311 11.2252C29.1225 7.7981 28.9782 6.81574 28.3921 5.5118C26.942 2.28597 24.0214 0.296995 20.4724 0.119043C19.3464 0.0626646 18.0708 0.133216 17.6377 0.275578ZM22.2629 3.48471C23.5234 3.96093 24.8658 5.30518 25.5445 6.77164C26.0059 7.76849 26.1294 8.80408 26.1347 11.7323L26.1417 15.4331H19.9999H13.8582V11.674C13.8582 9.6066 14.0088 7.51589 14.1924 7.02833C14.6318 5.86329 16.2944 4.12818 17.4803 3.59715C18.6261 3.0844 21.0522 3.02707 22.2629 3.48471ZM21.4236 23.4677C23.1842 24.3783 23.5647 26.6727 22.2201 28.2705C21.5936 29.0151 21.4305 29.5981 21.354 31.3657L21.2598 33.5433H19.9999H18.7401L18.6459 31.3657C18.5694 29.5981 18.4062 29.0151 17.7798 28.2705C16.4595 26.7014 16.8103 24.4063 18.5118 23.4831C19.6166 22.8835 20.2869 22.88 21.4236 23.4677Z" fill="#242535"/>
</svg>
