<svg width="60" height="60" viewBox="0 0 60 60" fill="none" xmlns="http://www.w3.org/2000/svg">
<path d="M53.5565 43.8065C50.1267 47.7762 45.5943 50.6419 40.5324 52.0412C35.4705 53.4405 30.1065 53.3106 25.1186 51.6678C20.1307 50.025 15.743 46.9432 12.5103 42.812C9.27761 38.6809 7.34511 33.686 6.95717 28.4589C6.56924 23.2317 7.7433 18.0072 10.3309 13.446C12.9185 8.88468 16.8034 5.19151 21.4943 2.83345C26.1853 0.475387 31.4716 -0.441654 36.6848 0.198286C41.8981 0.838227 46.8041 3.00641 50.7824 6.42866C53.4242 8.70109 55.5915 11.4705 57.1606 14.5788C58.7297 17.6871 59.6699 21.0734 59.9275 24.5442C60.1851 28.0151 59.755 31.5027 58.6619 34.8077C57.5687 38.1127 55.8339 41.1705 53.5565 43.8065Z" fill="url(#paint0_radial)"/>
<g style="mix-blend-mode:multiply" opacity="0.72">
<g style="mix-blend-mode:multiply" opacity="0.72">
<path d="M45.5384 15.09C45.4468 15.7815 45.2679 15.7346 45.8916 16.319C46.4214 16.8142 46.7008 16.58 47.311 16.6782C47.8095 16.7585 48.147 17.3273 48.6991 16.9748C49.2513 16.6224 48.7126 16.319 48.6991 15.9688C48.7506 15.9265 48.9584 16.1919 49.0076 16.154C49.0881 16.2276 49.4681 16.154 49.5352 16.2164C49.5352 16.0893 49.5754 15.8662 49.5888 15.7324C49.7184 15.5852 49.5419 15.0075 49.6424 14.8536C49.8503 14.9762 49.9442 15.3175 50.0649 15.5339C50.465 15.1525 50.3533 14.9896 50.2057 14.6216C50.2815 14.6073 50.3562 14.5879 50.4293 14.5636C50.379 14.4816 50.3181 14.4066 50.2482 14.3405C50.2482 14.2981 50.2862 14.4521 50.2817 14.4074C50.2773 14.3628 50.1946 14.3115 50.2013 14.2513C50.2996 14.0729 50.4807 13.8944 50.2572 13.5621C50.1588 13.4171 49.7743 13.5085 49.6 13.4238C49.5173 12.9397 50.3332 12.9107 49.9621 12.4958C49.1574 11.2891 48.5248 12.5962 48.4287 12.875C48.2051 11.9226 47.8631 11.1307 47.0316 11.0437C46.8081 10.8987 46.4817 10.9902 46.0905 10.9947C45.6435 10.9947 44.5258 10.7181 44.2106 11.0259C44.4565 11.5121 44.9595 11.2021 45.3283 11.3538C45.3283 11.3538 45.0377 11.7553 45.0399 11.7575L45.1785 11.6594C45.2277 11.6884 45.2344 11.7597 45.2881 11.7887C45.4468 11.9181 45.639 11.8802 45.9072 11.8311C45.9698 11.8623 46.2224 11.8311 46.2872 11.8646C46.4348 12.2326 46.5108 13.0133 46.8841 12.8795C47.0897 13.1026 47.0048 12.9732 47.0607 13.3256C46.8617 13.3858 46.3185 12.8795 46.2984 12.8639C46.2984 12.9063 46.0749 12.8393 45.943 13.1784C45.8558 13.0802 45.9318 13.2565 45.8894 13.2364C45.8603 13.1695 45.8894 13.049 45.8514 12.9732C45.8448 12.7342 45.7556 12.5048 45.5988 12.3241C45.5334 12.171 45.4588 12.022 45.3752 11.878C45.2612 11.9716 45.1517 12.4066 45.0534 12.3107C45.0243 12.333 45.1607 12.1947 45.1428 12.2259C44.8745 12.2014 44.7114 12.2036 44.6957 12.5003C44.6622 12.904 45.8402 13.1159 45.7418 13.6044C45.7083 13.6468 45.4401 13.5777 45.4155 13.62C45.221 13.62 45.0511 13.1204 44.7784 13.397C44.5784 13.7674 44.3993 14.1487 44.2419 14.539C44.3403 15.0432 45.1182 15.3398 45.5384 15.09Z" fill="#E6E6E6"/>
</g>
<g style="mix-blend-mode:multiply" opacity="0.72">
<path d="M52.5748 16.7272C52.542 16.7547 52.5068 16.7794 52.4698 16.8009C52.5882 17.0574 52.9012 17.1667 53.0577 17.3763C53.0577 17.3763 52.8922 17.4678 52.8833 17.4611C52.9325 17.6983 52.9683 17.9381 52.9906 18.1794C52.9906 18.1794 53.2834 18.2195 53.2834 18.2262C53.1001 18.9378 52.7447 18.3444 52.2351 18.2262C52.1188 18.6902 52.6151 18.7281 52.7604 19.0716C52.8721 19.3259 52.9124 19.6738 53.0286 19.9638C52.8911 20.0471 52.7485 20.1216 52.6017 20.1869C52.0719 19.4976 52.2216 19.2679 52.0205 19.4552C51.8193 19.5445 51.5198 19.2322 51.4169 19.4062C51.2964 19.2899 51.1366 19.2229 50.9691 19.2184C50.8015 19.2138 50.6383 19.2721 50.5116 19.3816C49.6041 19.317 48.3188 19.8791 48.7525 20.2538C48.5888 20.2385 48.4311 20.185 48.292 20.0977C48.3412 20.033 48.3903 19.9861 48.3948 19.9304C48.4216 19.8389 48.7212 19.6738 48.4999 19.5088C48.4999 19.5467 48.3635 19.9906 48.3568 20.0196C48.093 19.9259 47.4828 19.8501 47.5521 20.3386C47.874 20.5817 48.1458 20.8847 48.3523 21.2308C48.4663 21.4918 48.7145 21.6301 48.7279 21.8598C48.7167 21.9111 48.8732 22.1476 48.8441 22.1899C48.7659 22.1899 48.5826 22.0539 48.634 22.123C48.634 22.123 48.397 22.1565 48.3859 22.1654C48.3747 22.016 48.4976 21.8598 48.4261 21.7193C48.3702 21.3959 48.4261 21.1527 48.0729 21.6256C47.8024 21.987 47.9924 22.6963 48.3523 22.935C48.3523 22.9706 48.1288 22.848 48.1288 22.8859C48.0472 23.1162 48.052 23.3682 48.1422 23.5952C48.1422 23.6175 48.4887 23.2539 48.4865 23.274C48.3635 23.2115 48.064 23.5261 47.9589 23.4658C47.8017 23.3866 47.6521 23.2933 47.5119 23.187C47.2011 22.5178 47.6639 21.1505 47.5297 20.6218C47.1609 20.9252 47.1363 21.0211 47.1475 20.7423C47.1117 20.7624 46.0298 21.8754 45.9203 22.0472C45.9717 21.9647 46.1997 21.8241 46.1886 21.6256C46.2289 21.5097 46.2449 21.3866 46.2355 21.2642L45.6878 21.3758C45.6488 21.1218 45.5959 20.8701 45.5291 20.6218C45.6029 20.6687 45.9516 20.5928 45.9896 20.5906C46.2623 20.5728 46.1908 20.3118 46.4948 20.2672C46.4411 20.0977 46.4434 20.004 46.3629 19.9304C46.3339 19.8813 46.1819 19.8456 45.9315 19.7698C46.3428 19.5066 46.2869 20.4055 46.4166 19.3571C46.4322 19.2991 46.5686 19.2456 46.5663 19.192C46.5641 19.1385 46.6937 19.1095 46.696 19.085L46.3786 19.1274C46.3316 18.8798 46.0835 18.8552 45.8354 18.592C45.6431 18.7147 45.6476 19.0381 45.5828 19.2612C45.3526 19.1278 45.1375 18.97 44.9413 18.7905C44.7631 18.6807 44.6161 18.5271 44.5143 18.3444C44.179 18.4537 43.8549 18.8218 43.9823 19.1474C43.96 19.1608 44.1432 18.853 44.1231 18.8597C43.9487 18.8109 43.7983 18.6997 43.7007 18.5474C43.5894 18.3513 43.4368 18.1817 43.2536 18.05C43.2536 18.05 43.4615 18.0232 43.457 18.0344C43.3564 17.8113 42.9742 17.7332 42.8825 17.4366C42.3997 17.6462 42.7283 18.0611 42.6814 18.0857C42.1896 17.7756 41.6308 18.369 41.5637 18.3355C41.5928 18.3154 41.8185 18.9244 41.9504 19.0515C41.1636 18.5006 41.3491 19.8032 41.4475 19.9928C41.1725 19.9281 40.9155 19.6515 41.0742 20.0932C40.341 19.8411 40.1197 20.1579 39.6995 20.1601C39.7419 20.1244 39.6324 20.1155 39.6816 20.0977C39.6436 19.6515 39.5251 19.0827 39.1116 19.7452C38.9775 19.6917 39.0959 19.6783 39.0512 19.5891C39.1339 19.5645 38.9372 19.3839 38.9193 19.25C39.4268 18.9668 38.6712 18.447 38.4387 18.1347C38.2972 18.2834 38.1768 18.4507 38.0811 18.6322C37.9671 18.3667 38.1035 17.963 37.976 17.7065C37.5446 17.7912 37.824 17.0373 37.6497 16.7741C37.3904 16.386 36.9791 16.551 36.5074 16.3793C36.6363 16.1657 36.8121 15.9842 37.0216 15.8484C36.8539 15.3242 36.6661 15.6633 36.3331 15.6253C36.0492 15.5963 35.6916 15.1435 35.3496 15.2484C35.3808 15.3577 35.6536 15.7882 35.6938 15.8952C35.6536 15.8952 35.6245 15.8952 35.5977 15.8685C35.5418 16.009 35.3116 16.0581 35.1975 16.154C35.021 15.9309 35.2803 15.467 35.4546 15.2618C35.2065 15.2194 34.983 15.4714 34.9159 15.6744C34.6912 15.4377 34.5311 15.1474 34.451 14.8313C34.1492 14.9428 34.6499 15.7926 33.948 15.2774C34.489 13.3591 33.653 14.9762 33.2931 16.0781C33.1411 15.8796 32.9645 15.6053 32.8214 15.3844C32.6761 15.5138 32.4593 15.6075 32.3565 15.8082C32.3073 15.7123 31.934 15.4514 31.8938 15.3621C31.8133 15.6432 32.0659 16.7741 31.5361 16.6291C31.0064 16.4841 31.4601 15.777 31.44 15.4224C31.1025 15.661 30.6152 15.5428 30.3358 15.6454C30.2754 15.293 30.3916 14.7532 30.0318 14.8268C30.2553 15.3755 29.8395 15.7614 29.7054 16.3213C29.7054 16.3391 29.8082 16.1941 29.8038 16.212C29.6249 16.2633 29.5109 16.5087 29.2248 16.3726C29.2025 16.5198 28.8627 16.6804 28.8157 17.1243C28.5743 17.2559 28.7174 17.5949 28.6347 17.6931C28.4112 17.9608 28.7532 18.2953 28.1474 18.2641C27.8568 18.2507 27.7964 17.7712 27.4433 17.9652C26.8129 18.3132 28.7107 18.9891 28.818 19.3415C28.5945 19.5289 28.2189 20.1267 28.4559 20.4434C28.4559 20.4434 28.5609 20.3118 28.543 20.3497C28.5721 20.3988 28.5855 20.2649 28.5945 20.2382C28.6034 20.2114 28.6079 20.4992 28.6213 20.5014C28.6347 20.5036 28.9163 20.4077 28.9476 20.4345C28.9476 20.6129 28.552 20.9274 28.5587 20.9832C28.3486 20.5951 28.6325 21.1639 28.6302 21.1683C28.6302 20.9587 28.8157 21.1683 29.1041 21.2598C28.8806 21.436 28.4939 21.8375 28.7532 21.5431C28.9592 21.5665 29.1585 21.6311 29.339 21.7331C29.5195 21.835 29.6775 21.9722 29.8038 22.1364L29.2405 22.3327C29.3813 22.7788 28.8739 22.7788 29.0169 23.1959C29.16 23.6131 29.8283 23.3855 30.1167 23.2985C30.3223 24.0257 30.4699 24.6703 31.2567 24.6057C30.7582 24.7127 30.5861 25.4265 29.9938 25.7589C30.1569 26.2228 30.1256 26.263 30.7806 26.428C31.0198 25.4912 31.2656 25.4131 31.7596 25.3908C31.7418 25.4265 31.8312 25.3707 31.8088 25.4064C31.9653 25.6161 31.9049 25.4444 32.124 25.315C32.124 25.315 32.4526 25.7611 32.4437 25.7611C32.3833 25.9708 32.1486 26.089 31.9564 26.2072C32.1128 26.6221 32.5688 26.8764 32.9131 27.0994C32.7901 26.7849 32.8192 26.379 33.1366 26.3522C33.04 26.2597 32.9773 26.1376 32.9586 26.0053C32.94 25.873 32.9664 25.7383 33.0338 25.6228C33.4227 25.5336 33.8474 25.8102 34.2811 25.6451C34.5292 26.0511 32.4794 25.9574 34.4532 26.6556C34.252 26.8429 34.337 26.9478 34.2744 27.1307C34.1961 27.1307 34.0754 26.9835 33.995 26.9612C33.8295 26.6533 33.6507 26.5998 33.4004 26.8831C33.5501 27.0928 33.4495 27.2177 33.4004 27.4318C33.2953 27.3872 33.3042 27.1374 33.1612 27.1106C32.9712 27.0035 32.7611 26.9902 32.5487 26.8875C32.5174 26.8407 32.3945 26.9433 32.3632 26.8875C32.3386 26.9076 32.2626 27.1731 32.2268 27.1864C32.1642 27.1574 32.2067 26.8764 32.1441 26.8496C32.0994 26.6087 31.8468 26.5753 31.6278 26.6444C31.744 26.515 31.4445 26.457 31.4042 26.553C31.3729 26.5418 31.4288 26.631 31.4042 26.6199C31.3484 26.3968 31.5182 26.2964 31.4691 26.0868C31.3796 26.2228 30.9393 26.0511 30.908 26.2117C30.8521 26.292 31.1315 26.495 31.0779 26.5663C30.5861 26.4214 30.1636 26.2451 29.9602 26.3767C29.9066 26.3054 29.9602 26.5998 29.9245 26.5039C29.5065 26.7269 29.1622 26.2496 28.7822 26.4927C29.0549 26.5061 29.113 26.5039 29.2181 26.8006C29.1622 26.8295 29.2025 26.6823 29.1488 26.7225C29.3723 26.7827 29.2852 27.095 29.4349 27.211C29.4148 27.3069 29.3679 27.5523 29.3433 27.6772C29.1063 27.608 28.771 27.5679 28.6034 27.7508C28.7465 27.898 28.8426 28.1612 28.9409 28.1969C28.9409 28.2259 28.9409 28.0408 28.9588 28.043C28.9029 28.1567 29.0415 28.3553 29.0326 28.5226C28.9476 28.5404 29.4528 28.4445 29.5199 28.6185C29.388 28.701 29.3545 29.0958 29.5422 29.1694C29.4752 29.1538 29.4327 28.8928 29.3187 28.8616C29.3731 28.8755 29.4284 28.8859 29.4841 28.8928C29.5243 28.8415 29.4148 28.6698 29.3634 28.7367C29.3858 28.7612 29.3276 28.8817 29.3478 28.904C29.3053 28.8906 29.2293 28.7791 29.2181 28.7612C29.0616 28.9174 29.1399 29.2832 29.3902 29.4304C29.3478 29.5464 29.4238 29.243 29.3612 29.2854C29.3187 29.2854 29.4036 29.3434 29.3612 29.3456C29.3187 29.3479 29.2405 29.649 29.1958 29.6111C29.1779 29.6423 29.227 29.7382 29.1958 29.765C29.0326 29.765 28.704 29.8051 28.5252 29.8386C28.5252 29.7248 28.4782 29.4103 28.5743 29.6155C28.5207 29.6289 28.4067 29.5419 28.3508 29.5598C28.2457 29.4929 28.0826 29.7962 28.0088 29.6646C27.8143 29.7672 27.7227 29.8163 27.5304 29.9278C27.4768 29.8988 27.146 29.7315 27.0834 29.7182C27.0029 29.272 27.5304 28.6475 27.412 28.1947C27.0165 28.5368 26.6536 28.9146 26.3279 29.3233C26.3279 29.3233 26.0909 29.2274 26.0909 29.2185C26.1468 29.0512 26.6006 28.9285 26.6453 28.6519C26.6989 28.6051 26.6006 28.5315 26.6162 28.4802C26.7078 28.4265 26.7772 28.342 26.812 28.2418C26.8468 28.1417 26.8448 28.0325 26.8062 27.9337C27.3919 28.3307 27.3002 27.6281 27.4343 27.3091C27.5684 26.9902 28.049 26.863 27.5483 26.4481C27.4813 26.573 27.3002 26.6712 27.2555 26.8362C27.1057 26.6444 27.137 26.5976 26.9828 26.4214C27.3181 26.0823 26.6341 25.712 26.2966 26.0065C25.7959 26.4526 26.2966 26.4526 25.4337 26.5396C24.9867 26.5909 24.5217 26.8117 24.2088 26.3946C23.8131 25.8659 24.4323 25.8146 24.6782 25.3551C23.9785 24.7908 24.477 24.7239 24.714 24.0726C24.7564 23.9543 24.6894 23.7223 24.714 23.5841C24.7605 23.4232 24.7905 23.258 24.8034 23.0911C24.8235 22.732 24.6201 22.8323 24.296 22.9283L24.0925 22.5379C24.3697 22.2747 24.1864 21.9758 23.84 22.016C23.7058 21.8643 23.6902 21.3579 23.6768 21.1594C23.6544 20.8583 23.7841 20.9185 23.565 20.6218C23.1984 21.0323 23.1984 21.3959 23.3325 21.9468C23.3443 22.234 23.3368 22.5216 23.3102 22.8078C23.1582 22.6807 23.1448 22.4398 22.9928 22.5379C23.0867 22.2613 22.8497 22.1275 22.6955 21.929C22.6955 21.8754 23.0732 21.291 23.0196 21.3178C23.0487 21.3356 22.425 21.0947 22.425 21.0947C22.0763 20.6843 22.1098 21.1706 22.0539 21.0947C22.1344 21.0323 21.7052 20.4791 21.8036 20.0999C21.9099 19.9548 22.0027 19.8002 22.0808 19.6382C22.1098 19.6136 22.3334 19.6984 22.3691 19.6828C22.3423 19.6828 22.3691 19.6627 22.3401 19.6627C22.3803 19.5601 22.1948 19.7541 22.2037 19.7051C22.2685 19.7809 22.3557 19.5579 22.4049 19.6493C22.3535 19.2946 22.235 19.3437 22.0092 19.4575C22.0092 19.4575 21.7857 19.5021 21.7723 19.4954C21.7589 19.4887 21.9958 19.4419 21.9712 19.4753C21.9467 19.5088 21.9958 19.6292 21.9534 19.6605C22.0897 19.5333 21.9243 19.1653 21.8259 18.9511C21.6605 18.5942 21.6672 18.853 21.4191 19.0181C21.4191 18.9511 21.3521 18.7147 21.3498 18.6478C20.3484 18.8396 20.411 17.6016 19.7717 17.2091C19.7426 17.4321 20.0824 18.4426 19.7136 18.4225C19.7404 18.3868 19.7426 18.273 19.7806 18.2329C19.727 18.1682 19.5571 18.1816 19.4252 18.1794C19.2755 17.7979 19.0676 16.812 18.5646 17.305C18.5646 17.363 18.92 17.412 18.9424 17.4678C19.043 17.4522 18.929 17.9429 19.0408 17.9251C18.9916 18.05 19.4029 18.0478 19.4319 18.186C19.2576 18.2516 19.0867 18.326 18.92 18.4091C18.9469 18.4091 19.2643 18.2708 19.2866 18.2797C19.3336 18.447 19.1704 18.6589 19.2218 18.8262C19.2375 19.0493 19.5124 19.5422 18.9379 19.4106C18.7615 18.9935 18.6289 18.5591 18.5423 18.1147C18.4015 18.2574 18.2807 18.2173 18.1422 18.3623C18.1026 18.015 18.0277 17.6727 17.9186 17.3407C17.8091 17.528 17.7666 17.5771 17.6616 17.2737C17.2637 17.3786 16.488 18.6991 16.5439 18.3043C15.8979 18.8396 17.5967 18.5273 17.7242 18.4381C18.0572 18.9645 16.4791 19.1898 16.4053 19.1073C16.3562 19.163 16.4813 19.2389 16.45 19.2924C16.2712 19.4374 16.4009 19.2233 16.4165 19.4263C16.4433 19.4039 16.2667 19.4619 16.2891 19.4463C16.2466 19.6471 16.1505 20.0174 16.108 20.2315C15.9314 19.995 15.8487 19.7854 15.6856 19.5355C15.6498 19.8478 15.6163 19.7921 15.3033 19.9281C15.044 19.6158 15.0597 19.105 14.6126 19.2746C14.1655 19.4441 14.6685 19.9571 14.7423 20.2471C14.7557 20.3029 14.7423 20.1623 14.7691 20.2471C14.6417 20.1222 14.36 20.4032 14.0672 20.6932C13.9599 20.5787 13.877 20.4436 13.8235 20.2962C13.8638 20.2493 13.5866 20.3319 13.6246 20.2828C13.4905 20.0352 13.2848 19.6694 13.0702 20.0397C12.9518 20.2471 13.2021 20.6821 13.3161 20.7088C13.2743 20.8819 13.2533 21.0594 13.2535 21.2375C13.0099 21.5565 13.2066 22.1141 13.5508 22.5959C13.7744 23.1736 14.1678 23.6889 14.2706 23.9343C14.237 24.0151 14.1974 24.0934 14.1521 24.1685C13.6783 23.8339 13.5978 22.4554 12.9741 22.4598C13.1328 22.7119 13.4212 23.3097 13.372 23.6197C13.3005 24.0993 13.182 23.8562 13.0077 23.4703C12.1135 23.9566 13.2178 24.1863 13.3027 24.4584C13.3184 24.5075 13.5263 24.3558 13.4771 24.4384C13.2884 24.3751 13.0873 24.3582 12.8907 24.3893C12.6941 24.4204 12.508 24.4984 12.3482 24.6168C12.5024 24.8958 12.7357 25.1232 13.0188 25.2704C13.0322 25.4934 13.5754 25.741 13.5307 25.9775C13.4123 25.9061 13.2781 25.6384 13.1552 25.489C13.115 25.5001 13.0837 25.3752 13.0367 25.3685C12.9898 25.3618 12.8132 25.692 12.7774 25.6696C12.7618 25.6853 12.7573 25.6139 12.7461 25.6295C12.5226 25.5559 12.346 25.4265 12.1694 25.5871C11.8542 25.8726 12.3818 26.4057 12.7148 26.1671C12.7439 26.1916 12.7148 26.0288 12.7148 26.0132C12.7484 26.1225 12.4913 26.3187 12.4757 26.4793C12.5494 26.4503 13.0077 26.1024 13.0859 26.0689C13.2557 26.282 13.3687 26.5344 13.4145 26.8028C13.4011 26.8028 13.3117 26.7827 13.3005 26.7849C13.2535 26.6533 13.077 26.7537 12.8825 26.6979C12.8199 26.7515 12.773 26.3634 12.7193 26.4169C12.6411 26.3589 12.4421 26.3031 12.3795 26.2318C12.2793 26.397 12.1192 26.5176 11.9325 26.5686C11.8811 26.5418 12.0062 26.5418 11.966 26.5262C11.9258 26.5106 11.9325 26.7113 11.9213 26.6868C12.0532 26.0533 11.6978 25.3641 11.4742 24.7172C11.5301 24.4049 11.2999 24.2711 10.9109 23.7692C11.1702 23.6175 11.7022 23.3097 11.6553 22.9885C11.0853 22.9885 10.9422 22.3416 10.9556 21.8598L10.8327 21.8933C11.1881 21.9089 11.0562 21.2999 11.2641 21.1304C11.3178 21.1036 11.4742 20.9609 11.5368 20.9386C11.8967 20.8962 12.0241 21.755 12.3035 21.2397C12.3505 21.32 12.7126 21.5966 12.7506 21.6858C13.2111 20.9386 12.1784 20.5928 11.9191 20.0731C11.6598 19.5534 11.282 19.5802 11.5972 19.2166C11.7738 19.0158 12.5807 18.8597 12.2342 18.4493C11.8498 18.5139 11.5458 18.9221 11.2753 19.134C11.2105 19.1028 11.4139 19.0381 11.3893 19.0203C11.3647 19.0024 11.2664 19.3281 11.2619 19.3214C12.3482 18.8441 11.0026 17.5213 10.3007 18.6277C10.1711 18.8307 10.0772 19.7809 9.74188 19.7162C9.25011 19.627 9.89388 18.6322 9.99894 18.3913C9.89164 18.4916 9.59435 18.5385 9.48035 18.6366C9.49376 18.592 9.61223 18.3377 9.65694 18.2217C9.57199 18.2775 9.49152 18.2217 9.40211 18.273C9.15846 17.8738 9.60552 17.76 9.68599 17.3808C9.75752 17.0395 9.20764 16.377 9.25458 16.0313C9.09393 16.4749 8.97276 16.9317 8.89246 17.3964C8.82987 17.7756 9.20317 18.0522 9.04893 18.4292C8.75611 19.1541 8.22187 19.7073 8.34928 20.4791C8.29787 20.4389 8.38505 20.4211 8.33363 20.3787C8.13022 20.5192 8.22187 20.7423 8.18834 20.9497C7.92234 21.6345 7.89104 22.6071 7.82845 23.5216C7.76587 23.6934 7.57139 23.8763 7.52445 24.0502C7.39928 24.4964 7.73457 24.6993 7.74798 25.0384C7.74798 25.1968 7.37022 25.3328 7.36351 25.4444C7.3568 25.5559 7.60716 25.712 7.58704 25.8258C7.58704 25.8258 7.12657 25.6897 7.12657 25.6875C7.12657 25.6853 7.2428 25.7723 7.23833 25.7923C7.23386 25.8124 7.1221 25.8548 7.10869 25.9061C7.00363 26.2719 7.04386 27.7753 7.61163 27.6392C7.61163 27.927 8.05869 28.1545 7.9134 28.4579C7.71713 28.4471 7.52161 28.4255 7.32775 28.3932C7.32775 28.3932 7.20927 28.2571 7.20704 28.2571C7.20704 28.1991 7.60269 27.811 7.58257 27.7664C7.70775 27.869 7.73904 28.1947 7.42386 27.8355C7.36351 27.869 7.1668 27.6482 7.1601 27.6861C7.14892 27.6682 7.60716 27.9471 7.58481 27.9292C7.55128 28.0564 7.43504 28.1389 7.44175 28.2973C7.3881 28.324 7.08186 28.3419 7.05057 28.3709C7.11986 28.5739 7.39033 28.7835 7.50881 29.02C7.63398 29.4304 7.81504 29.6892 7.95587 29.765C7.95587 29.765 8.08775 29.9881 8.1794 29.9211L7.86869 29.5352C7.86869 29.5352 8.24422 29.7918 8.2554 29.7806C8.54152 28.8594 8.80752 28.2527 9.09811 28.9888C9.18529 29.02 9.01093 29.3323 9.03105 29.6869C9.01465 29.9068 9.06198 30.1267 9.1674 30.3204C9.1674 30.3695 9.2747 30.3606 9.28811 30.4052C9.28811 30.3784 9.45576 30.5279 9.46693 30.5011L9.05787 30.3806C9.07128 30.6461 9.39987 30.6327 9.50493 30.4096C9.62117 30.5212 10.1509 31.2751 10.0861 31.6721C10.0056 31.7346 9.63905 31.4892 9.44682 31.3955C9.11026 31.1948 8.79365 30.9625 8.50128 30.7018C8.54375 30.8535 8.68011 30.8267 8.70246 31.003C8.35822 30.2825 7.73234 30.5568 7.41492 29.7271C7.39704 29.881 7.63845 30.0773 7.65634 30.3182C7.63622 30.3182 7.20927 30.3338 7.18469 30.3182C7.21151 30.3583 7.69434 30.3472 7.71222 30.3896C7.75916 31.1591 7.61163 32.2164 7.81057 32.6536C7.81057 32.6536 7.96928 32.4305 8.01175 32.4305C8.05422 32.4305 8.52587 33.2893 8.2934 33.383C8.06987 33.0573 8.34928 33.0439 8.18387 32.8677C8.06558 32.9694 7.98653 33.109 7.96034 33.2625L8.3314 33.3205C8.20399 34.0923 8.72705 35.2701 9.01987 36.0329C9.07576 36.1757 8.74269 36.9586 8.84328 37.0434C8.8567 37.0434 9.0534 36.8203 9.06681 36.8203C9.18752 37.1036 9.29034 37.2776 9.31717 37.3534C9.45129 37.2263 9.43788 37.4917 9.4714 37.891C9.40435 37.8598 9.61894 37.8709 9.55411 37.8419C9.53176 37.7973 9.62117 37.6189 9.54293 37.5163C9.57646 37.5854 9.28364 37.7995 9.3194 37.862C9.29705 37.862 9.27917 37.6635 9.26129 37.6389C9.07128 37.9646 9.41999 38.5156 9.70835 38.6605C9.74858 38.7565 9.74411 38.7163 9.77317 38.7899C9.86929 39.0933 10.3029 39.2985 10.4438 39.6063C10.5645 39.874 10.8305 40.6904 10.8551 39.8985C10.8908 39.9231 11.1166 39.8829 11.1702 39.9253C11.2239 39.9677 11.1702 40.0837 11.1904 40.1483C11.1904 40.1127 11.1233 40.2264 11.1367 40.184C11.2217 40.2576 11.2887 40.28 11.3781 40.3692C11.5748 40.7952 11.6866 41.2101 11.6844 40.8978C11.7112 40.958 11.7939 41.0718 11.776 41.1075C11.8587 41.2859 12.4757 41.3729 12.8668 41.6295C12.9071 41.6785 12.7931 41.9239 12.8355 41.9752C12.878 42.0265 13.0121 41.9752 13.0591 42.0042C13.3094 42.1626 13.3117 42.4168 13.4279 42.6421C13.4279 42.747 13.5128 42.7871 13.3899 42.8853C13.5397 43.1083 14.0135 43.0303 14.1812 43.2221C14.1946 43.2823 14.1052 43.4697 14.1633 43.5076C14.2237 43.6303 14.0113 43.8556 14.0806 43.9805C14.3041 44.3998 14.8428 44.5493 15.281 44.8727C15.2474 44.7969 15.044 44.7768 15.0328 44.6987C15.1983 44.6273 15.3324 44.8727 15.205 44.4757C15.205 44.4177 15.2787 44.1299 15.2921 44.0764C15.6555 44.3942 15.9187 44.8102 16.0499 45.2742C16.0343 45.2742 15.8264 45.2051 15.8264 45.2162C15.7447 45.2592 15.6656 45.3069 15.5894 45.359C15.6051 45.3701 16.1192 45.3211 16.1304 45.3322C16.1416 45.3434 15.9292 45.3947 15.9873 45.4415C16.0074 45.4884 15.8487 45.7449 15.889 45.8163C15.9099 45.8007 15.9264 45.7799 15.937 45.7561C15.9476 45.7323 15.9518 45.7061 15.9493 45.6802C16.4187 45.9724 17.6906 46.5033 18.6764 46.9695H18.5132C18.7055 47.2282 18.8776 47.7546 19.3582 47.2148C19.3135 47.1412 19.376 47.4825 19.3358 47.4089C19.5169 47.5182 20.0466 47.2193 20.1472 47.3219C19.9908 47.0609 19.1123 46.9115 19.005 46.5479C19.0676 46.4854 19.3269 46.5077 19.376 46.4921C19.4252 46.4765 19.3984 46.5702 19.4319 46.5657C19.6845 46.6929 19.7784 47.023 20.1025 47.0118C20.1025 46.9784 20.2299 47.0007 20.2411 46.9605C20.3244 47.0346 20.4141 47.1011 20.5094 47.1591C20.4892 47.1345 20.2858 47.2416 20.2568 47.2014C20.2791 47.1167 20.3193 46.8133 20.3305 46.7375C20.487 46.8825 20.7619 47.1836 20.9117 47.3286C20.8356 47.4294 20.7543 47.5262 20.6681 47.6186C20.5474 47.6186 20.5585 47.5249 20.4043 47.5494C20.7061 47.884 20.6926 48.1606 20.7843 48.2476C20.8201 48.2476 20.9966 48.5219 21.0324 48.5242C21.0324 48.5086 20.9542 48.1182 20.9676 48.1115C21.1364 48.1921 21.3104 48.2614 21.4884 48.319C21.6561 48.3881 22.3423 48.6112 22.6061 48.6781C22.3602 48.29 21.6404 48.174 21.4191 47.7301C21.4191 47.6832 21.4348 47.6386 21.4191 47.5784C21.6069 47.6096 21.4191 47.3554 21.5555 47.3442C21.4102 47.1501 21.5555 47.0587 21.3901 46.8981C21.665 46.8869 21.8997 47.1568 22.159 47.1992C22.2551 46.9271 22.1434 46.5813 22.2954 46.4654C22.2238 47.313 24.3965 46.1598 23.3236 47.3018C23.6008 47.3241 25.5991 47.0565 24.8324 47.8728C24.5195 48.203 23.7572 47.8394 24.0233 48.5978C24.1082 48.8454 24.4837 48.9993 24.6938 49.1532C24.904 49.4164 25.4561 49.4053 25.769 49.664C26.2161 50.1347 26.538 50.4871 27.2868 50.7258C27.6757 50.8507 28.1094 51.3949 28.4402 51.4685C28.771 51.5422 29.0862 51.2299 29.4461 51.2812C29.294 51.2026 29.1515 51.1068 29.0214 50.9957C29.0974 50.9221 29.2963 51.1362 29.3925 51.1206C29.4166 51.1263 29.4418 51.1267 29.4661 51.1217C29.4904 51.1167 29.5134 51.1064 29.5333 51.0916C29.9232 51.1076 30.3136 51.0754 30.6956 50.9957C30.5951 50.757 30.0251 50.4916 29.8015 50.4202C29.8623 50.3773 29.9088 50.3172 29.9349 50.2477C29.961 50.1781 29.9655 50.1024 29.9479 50.0302C29.9303 49.9581 29.8914 49.8929 29.8362 49.8431C29.781 49.7933 29.7121 49.7612 29.6383 49.751C29.8194 49.3049 30.2285 49.5659 30.5168 49.4075C30.6956 49.3116 30.6956 48.9614 30.8678 48.8231C30.6845 48.8431 30.7851 48.7383 30.5861 48.6669C30.5481 48.6535 30.5861 48.2208 30.4498 48.1851C30.2709 48.1316 29.9513 48.7584 29.806 48.7249C28.8403 48.5019 29.3433 47.9777 29.8686 47.6319C29.645 47.1858 28.476 48.5086 27.8367 48.1985C26.6855 47.6409 27.8948 47.1635 28.1876 46.704C28.353 46.588 28.5386 46.597 28.6213 46.5278C28.695 46.5278 28.8158 46.4007 28.8828 46.4163C28.8202 46.2311 28.6012 46.3739 28.4179 46.2847C28.3977 46.2847 28.3754 46.075 28.3553 46.0795C28.4 46.046 28.7442 46.0081 28.7822 45.9702C28.7152 45.8854 28.3486 45.9322 28.2189 45.8921C28.2189 45.8787 28.239 45.7962 28.239 45.7806C28.1742 45.7806 28.1496 45.5174 28.1116 45.5196C28.0736 45.5218 28.1116 45.5441 28.0468 45.5374C28.0066 45.4772 28.02 45.5597 27.9775 45.4995C27.935 45.4393 27.7719 45.2162 27.7808 45.1292C28.0334 45.2765 28.087 45.5753 28.3799 45.5753C28.4173 45.465 28.4122 45.3446 28.3655 45.2378C28.3188 45.1309 28.2339 45.0453 28.1273 44.9976C28.1273 44.9441 28.0423 44.7032 28.0692 44.6474C28.581 44.5827 28.8649 44.73 29.388 45.1515C29.7903 45.475 30.2821 46.0906 29.6808 46.3248C29.7389 46.9405 29.8708 46.2267 30.1525 46.1196C30.6308 45.9345 30.9102 46.0259 31.4266 46.1888C31.7015 46.2758 32.1128 46.2311 31.7932 46.6929C31.7306 46.7866 31.6211 47.2104 31.4668 47.197C31.174 47.0542 31.1069 46.7888 30.9818 46.878C30.9818 46.878 30.8298 46.4319 30.8387 46.452C30.8007 46.452 30.9505 46.6973 30.9214 46.6973C31.0846 47.1434 31.3685 47.1434 31.7507 47.1858C31.8379 47.2037 31.8938 47.4535 31.9742 47.4624C32.0547 47.4713 32.2648 47.2237 32.3431 47.2594C32.4258 47.3665 32.3721 47.6409 32.4928 47.6899C32.4548 47.6899 32.4369 47.6141 32.3989 47.6253C32.4168 47.71 32.5107 47.8639 32.6225 47.8349C32.8013 48 32.9824 47.9219 33.2037 47.797C33.3355 47.8104 33.2037 47.7212 33.2037 47.6119C33.2037 47.6119 33.226 47.7591 33.2282 47.7591C33.2975 47.8951 33.6328 47.6498 33.6932 47.7881C33.9033 47.4758 34.2587 47.4468 34.5113 47.2483C34.7885 47.1189 34.9584 46.7687 35.2288 46.6148C35.3093 46.588 35.506 46.7977 35.5932 46.7754C36.2638 46.6103 37.3122 46.3605 37.5826 45.611C37.3591 45.8341 37.5334 45.7315 37.3591 45.5441C37.4552 45.466 37.3077 45.4594 37.3345 45.4281C37.111 45.1337 37.263 45.1404 37.1959 44.982C37.2197 44.6813 37.2676 44.3829 37.339 44.0898C37.1154 44.0898 36.7824 44.634 36.6863 44.8928C36.1252 44.6006 36.7824 43.5901 36.7444 43.0949C36.6997 42.5395 36.2057 42.1626 35.8056 41.7454C35.1886 42.0778 35.2065 42.7447 34.4241 42.1157C34.366 42.3678 34.2006 42.1849 33.9592 42.2295C33.7714 42.2295 33.4138 42.3321 33.2886 42.3187C33.4317 42.2384 34.3861 41.4978 34.3794 41.4064C34.3459 41.0406 33.872 41.1253 33.6865 41.3082C33.6865 41.2971 33.6485 41.2748 33.6418 41.2636C33.568 41.335 33.3266 41.248 33.3534 41.2636C33.3221 41.3105 33.5412 41.2793 33.5211 41.3439C33.3422 41.1365 33.2752 40.8264 33.0897 40.7015C33.0204 40.6525 32.7678 40.7997 32.7097 40.8086C32.3207 40.3112 32.0838 39.7201 31.592 39.6308C31.592 39.613 31.3372 39.9141 31.3484 39.8985C31.2008 39.5706 31.1606 39.5216 30.946 39.7647C30.946 39.7647 30.7873 39.9699 30.7828 39.9699C30.452 39.7134 30.3782 39.3186 30.0452 39.6308C30.1602 39.8397 30.241 40.0656 30.2843 40.3C30.2843 40.3446 30.6934 40.3513 30.6979 40.3959C30.7023 40.4406 30.5682 40.474 30.566 40.503C30.528 40.9491 30.0809 40.7484 30.4654 41.1142C30.6532 41.2904 30.5123 41.6049 30.6643 41.6451C30.7582 41.7722 30.8141 41.8681 30.9371 42.0533C30.9538 42.1743 31.0114 42.286 31.1002 42.37C31.1427 42.4168 31.44 42.2473 31.516 42.2562C32.0301 42.9923 32.5219 43.6794 31.8356 43.1106C31.8714 42.8697 31.3886 42.9589 31.0913 42.8317C31.0913 42.7447 31.1248 42.6354 30.9035 42.7202C30.9035 42.7202 30.8365 42.747 30.8409 42.7537C30.6174 42.689 30.3335 42.8005 30.1167 42.7537C30.1167 42.7224 30.1458 42.6979 30.1033 42.7157C29.7537 42.6386 29.4146 42.5202 29.0929 42.3633C29.1041 41.3016 26.69 42.6243 26.348 41.248C26.7146 41.025 27.5372 41.2168 27.2019 40.6993C27.1572 40.6993 27.0968 40.4316 27.0588 40.4294C27.4388 39.9297 26.5626 39.6197 25.9993 39.361C26.0931 38.5981 25.5813 38.9148 25.0917 38.8301C25.2733 39.0336 25.5042 39.1872 25.7623 39.2762C25.7936 39.3141 25.9009 39.2762 25.9613 39.3386C25.8651 39.4435 25.7377 39.5617 25.655 39.6665C25.5501 39.5339 25.4024 39.4415 25.2371 39.4049C25.0717 39.3684 24.8988 39.3899 24.7475 39.4658C24.8458 39.6888 25.313 39.8829 25.4695 40.039C25.4695 40.0547 25.4158 40.1907 25.4203 40.2086C25.237 40.2086 24.8034 39.9052 24.6938 39.9632C24.3787 40.1305 24.9174 40.5298 25.1655 40.5275C24.7967 41.0227 24.2937 40.3045 23.8511 40.242C23.603 40.213 23.3415 40.8331 23.0621 40.8041C22.852 40.7841 22.5658 40.4026 22.3445 40.358C22.0741 40.2978 21.6359 40.2041 21.3275 40.1171C21.2537 40.0814 21.2537 40.0101 21.1866 39.9677C21.019 39.8026 20.981 39.8896 21.0414 39.7736C21.1129 39.8115 21.1285 39.6844 21.1643 39.6755C21.1106 39.6309 21.095 39.6353 21.0615 39.6041C21.1576 39.4926 21.3945 39.6331 21.5845 39.6554C21.5398 39.5595 21.3141 39.5126 21.2425 39.4323C21.1486 39.4792 20.8268 39.4323 20.7329 39.4814C20.5965 39.1424 21.0503 38.7788 21.2984 38.5892C21.0458 38.0984 20.6435 38.4018 20.3551 38.6182C20.3551 38.6182 20.4982 38.9617 20.4959 38.9639C20.4579 38.9639 20.3261 38.7074 20.2903 38.7409C20.1517 38.8033 20.3529 38.9193 20.2165 39.158C20.1539 39.2695 20.0645 39.3186 20.069 39.4256C19.9997 39.468 20.2501 39.4256 20.2925 39.6219C20.2925 39.6353 19.8455 39.6085 19.8298 39.6219C19.7292 39.8093 19.2777 40.4182 19.0609 40.3669C18.3903 40.2063 19.1592 39.7491 19.1928 39.4881C18.4909 39.4725 18.5691 39.8227 18.1444 39.7981C17.97 39.7022 17.628 39.9766 17.4738 39.8829C17.4313 39.6598 18.1131 39.149 17.9835 38.839C17.6996 38.839 17.333 39.178 17.1229 39.3386C16.9753 39.2316 16.6646 39.1156 16.6311 39.0509C17.2771 38.4531 17.1184 38.9193 16.801 38.9059C16.8189 38.8234 16.801 38.8412 16.7809 38.7855C16.6959 38.8033 16.6758 38.7743 16.5797 38.8234C16.5551 38.7899 16.4769 38.7922 16.4724 38.7364C16.9619 38.9773 16.9753 38.4955 17.3665 38.3884C17.2436 38.3103 16.3561 37.3557 16.3003 37.0835C16.7876 37.2196 17.3509 37.3267 17.4179 37.2843C17.476 37.3334 17.4313 36.1333 17.3173 35.9459C18.2472 36.6865 18.0975 36.7913 18.9312 37.8665C18.844 38.9996 22.3222 37.6434 22.0003 37.1036C21.6225 36.7601 21.0302 37.5765 20.9363 37.7929C20.7528 37.6602 20.5408 37.5723 20.3171 37.5363C20.4401 37.4025 20.7888 37.2174 20.4803 37.3133C20.3395 36.9742 21.4348 37.0679 20.373 36.7601C19.8231 37.0701 20.2545 37.0434 19.651 37.1906C19.5616 36.9809 20.1606 36.1601 20.1539 36.1735C20.0891 36.1311 18.3299 35.2812 19.4029 35.2946C19.347 35.0827 17.9499 34.6522 17.8583 34.5764C19.1346 35.2321 18.2629 33.4276 18.0036 33.238C18.0773 33.2648 18.0505 33.4611 18.1131 33.4878C18.1265 33.5012 18.1846 33.4231 18.1891 33.4388C18.1936 33.4544 18.3098 33.0952 18.3165 33.0863C19.0296 33.3094 19.0184 33.4053 19.3872 33.6774C19.8611 33.18 19.5348 32.5376 19.7963 32.2833C19.9729 32.4774 20.0198 32.5242 19.8969 32.5778C19.8969 32.5778 19.6577 32.2566 19.6555 32.2566C19.7315 32.1896 20.2188 32.3525 20.4177 32.348C20.2523 32.0982 20.2389 31.9911 20.4445 32.1473C20.0668 31.11 19.7739 33.3585 19.5683 31.3822C19.7583 32.0513 19.5437 31.4825 19.4945 31.2773C19.8477 31.6922 20.4736 32.2432 20.4781 31.632C20.601 31.6052 21.1285 31.719 21.2694 31.913C22.8341 31.8595 21.5912 31.7658 21.0458 30.8647C21.2045 30.7219 21.2917 30.7018 20.9877 30.7598C20.9251 30.8691 20.5406 30.8959 20.4982 30.965C20.3462 30.6238 20.5742 29.939 20.8648 29.4036C21.0972 29.9323 22.3043 31.8952 22.6709 31.9175C22.8542 32.5131 22.776 32.609 22.8542 32.8343C23.413 33.0417 23.1023 31.0855 22.5234 31.1725C22.4831 31.2796 22.8609 31.7346 22.8743 31.777C22.6341 31.8541 22.4009 31.9511 22.1769 32.067C21.9243 31.6944 21.9847 30.771 22.0607 30.3516C22.6754 30.6015 21.9981 31.2082 22.6955 31.0966C22.477 30.4829 22.2225 29.8826 21.9332 29.2988C22.3803 29.6691 22.7871 30.3851 22.6977 30.5881C22.778 30.4234 22.8489 30.2544 22.9101 30.0817C23.1336 30.0505 23.2632 31.8484 23.5985 31.4513C23.6567 31.5673 23.8221 30.5591 23.9405 29.9457C23.9405 29.9457 23.5136 29.7739 23.527 29.7806C23.5516 29.7338 23.8534 29.8096 23.8288 29.765C23.878 29.562 23.7461 29.4059 23.8288 29.3434C24.6044 30.6528 23.7617 29.4594 24.0724 30.2959C24.4144 30.0104 24.296 30.4275 24.4658 30.5702C24.7117 29.8051 25.2594 30.6795 25.3957 30.3829C25.275 29.9881 24.6067 29.2676 25.1141 28.73C25.17 28.7055 25.0649 28.5315 25.0604 28.5069C25.1208 28.4579 25.0135 28.5694 25.094 28.5293C25.1118 28.7345 25.275 30.2892 25.8115 30.2022C25.6327 30.4096 25.6058 30.5613 25.4583 30.5814C25.5857 30.6126 25.4784 30.3293 25.5991 30.2468C25.5991 30.2736 25.8674 30.6305 25.8651 30.6595C25.8249 30.6907 25.5276 30.6015 25.474 30.6327C25.5366 30.6773 25.7489 30.684 25.778 30.7219C25.807 30.7598 25.8875 31.0163 25.892 31.0699C25.769 31.1836 24.9643 31.09 24.7967 31.1256C24.9889 31.2929 25.4561 31.6944 25.7713 31.5896C26.0328 31.5004 26.0887 31.0855 26.3681 30.9093C26.4128 30.9204 26.3211 30.5836 26.3547 30.6148C26.424 30.5635 26.5782 30.9517 26.6699 30.9227C26.6989 30.9539 26.6162 30.9004 26.6363 30.9227C26.6564 30.945 26.9448 30.8669 26.9582 30.9004C27.0387 31.1234 26.6833 31.3844 26.5111 31.5517C26.6073 31.5517 26.9694 31.4402 27.0767 31.4513C27.0767 31.4781 26.7302 31.7011 26.7369 31.7458C26.6766 31.855 26.9761 32.2499 26.9761 32.3636C26.2586 32.4618 26.8643 32.9614 27.5081 33.3406C27.5327 33.3718 27.3673 33.1822 27.374 33.1956C26.3726 33.9652 28.2681 35.0359 28.0781 35.2188C27.8322 35.1429 27.631 35.3035 27.4477 35.4775C27.7004 35.53 27.9414 35.6283 28.1586 35.7675C28.0043 35.8478 27.488 36.3117 27.3628 36.392C27.2614 36.2655 27.1923 36.1162 27.1616 35.9571C26.6609 36.0842 26.7637 35.8656 27.2354 36.1623C27.1259 36.0909 26.9604 36.2292 26.8509 36.2292C26.7503 36.1155 26.4888 36.2448 26.4486 36.0998C26.4799 36.024 26.6341 35.9682 26.5491 35.9883C26.4686 35.8913 26.3989 35.7858 26.3413 35.6738C26.7749 35.3437 27.488 34.5719 27.1952 34.8083C27.1192 34.7191 26.795 34.7905 26.6363 34.7972C26.2228 34.4202 25.9031 33.876 25.2661 34.0566C25.4211 34.2032 25.5404 34.3833 25.6148 34.583C25.1543 34.6455 25.0068 34.8819 24.5351 34.7303C24.3116 35.1362 24.5128 35.7385 24.9151 35.8121C25.1498 35.9593 25.5857 35.3147 25.6014 35.8121C25.5522 35.8389 25.702 36.1668 25.6662 36.2047C25.6036 36.1891 25.5611 35.879 25.6036 35.9169C25.5063 35.9466 25.4126 35.987 25.3242 36.0374C25.4404 36.1735 25.2996 36.4969 25.4449 36.6619C25.3868 36.6619 25.5969 36.4054 25.55 36.4188C25.2258 36.4991 25.0537 36.4188 24.8056 36.6285C25.1253 37.1772 25.731 36.7356 26.0663 37.3177C26.2608 37.0947 26.3435 37.34 26.5581 37.4203C26.6095 37.4694 26.7816 37.1103 26.8151 37.1058C26.8599 37.1348 26.69 37.6144 26.7347 37.6367C26.8468 37.7052 26.9766 37.7394 27.108 37.7349C27.108 37.7349 27.3494 37.4404 27.3628 37.4449C27.5707 37.7148 27.7204 38.1141 27.9999 38.1497C27.9596 37.9825 27.7361 37.8709 27.6623 37.7036C27.6757 37.7036 27.9842 37.4806 27.9976 37.4694C28.2212 37.5698 28.3508 37.6367 28.5877 37.5274C28.5877 37.4806 28.6839 37.4047 28.6772 37.3579C28.7688 37.3936 28.8158 37.5319 28.9007 37.5631C28.8828 37.291 28.5565 37.03 28.3732 36.8582C28.4611 36.7872 28.5627 36.7349 28.6718 36.7046C28.7808 36.6743 28.8949 36.6666 29.007 36.6821C29.1191 36.6976 29.2268 36.7358 29.3235 36.7945C29.4201 36.8532 29.5037 36.9311 29.569 37.0233C29.6674 36.9051 29.616 36.7623 29.6115 36.6017C29.4796 36.5571 29.645 36.4657 29.5601 36.421C30.2307 36.1221 30.2642 35.6515 30.1279 35.0715C30.2463 35.1652 31.9519 35.8054 31.1248 34.9868C31.0488 35.0492 31.2634 35.1875 31.2031 35.2589C31.1928 35.1322 31.1996 35.0047 31.2232 34.8797C31.2455 34.8507 31.2075 34.7883 31.2008 34.7414C31.3327 34.2351 31.7462 33.3428 30.8745 33.7087C30.7716 33.7533 30.7582 34.0321 30.7046 34.1035C30.4699 34.1035 30.034 34.2685 29.7233 34.2328C29.8574 34.1927 29.9602 33.9406 29.6316 34.0879C29.5869 34.07 29.5556 34.1012 29.5132 34.0611C29.3634 33.7087 29.6741 33.615 29.8351 33.615C29.7322 33.4811 29.4618 33.2737 29.2941 33.1131C29.2695 33.0194 29.1823 32.8253 29.1689 32.745C29.3453 32.6864 29.5335 32.6726 29.7166 32.7049C29.7412 32.4975 29.493 32.5354 29.5199 32.3725C29.3165 32.038 28.8694 32.5064 28.4894 32.716C28.476 32.716 28.6302 32.3435 28.6213 32.3235C28.5908 32.2418 28.5655 32.1584 28.5453 32.0736C28.5676 32.0536 28.3419 32.2298 28.3732 32.2231C28.4402 32.2499 28.5967 31.9309 28.6615 32C28.6459 31.9465 28.628 32.1763 28.619 32.1316C28.8694 32.1539 28.9208 31.9956 29.0661 31.6855C29.037 31.6052 29.2896 31.6632 29.227 31.5584C29.3589 31.5361 29.2606 31.2773 29.4282 31.2528C30.1793 31.1457 29.8351 31.1502 29.6518 30.4609C29.9669 30.3583 30.452 30.9472 30.7471 31.1301C30.7985 30.8401 30.2732 30.1487 30.0765 29.8074C30.1224 29.8002 30.1686 29.7957 30.2151 29.794C30.4006 29.8341 30.642 29.6869 30.8096 29.6401C31.4802 29.7315 32.4593 30.2624 32.5375 30.2914C32.5107 30.1888 33.2685 29.4996 33.3154 29.5486C32.7454 29.9323 34.5046 29.4103 34.2766 29.1404C34.1447 29.1092 33.8944 29.0914 33.948 29.2319C33.8854 29.2319 34.0754 28.4222 34.2297 28.3397C34.2095 28.4222 34.3414 28.5471 34.3727 28.6631C34.8198 28.5627 34.7661 28.2794 34.6655 28.0675C34.7728 28.2348 34.8265 28.3173 35.2087 28.0831C34.7617 27.269 35.3831 26.4102 34.9427 25.576C34.8389 25.6106 34.7256 25.6037 34.6268 25.5567C34.528 25.5097 34.4513 25.4262 34.413 25.3239C35.1484 25.1945 34.8041 24.7863 34.2341 24.5588C34.214 24.541 34.1648 24.6235 34.1313 24.6257C33.8519 24.5343 33.4004 24.2889 33.2014 24.5142C33.2014 24.5142 33.188 24.4094 33.1657 24.4361C33.0262 24.534 32.9006 24.6503 32.7924 24.7819L33.2953 25.1388C33.3802 24.9849 33.0986 24.764 33.0941 24.7462C33.0897 24.7283 32.9399 24.3001 32.7745 24.2153C33.2372 24.2153 34.3392 24.3581 35.2065 23.9922C35.2691 23.9922 35.1797 23.816 35.2355 23.8049C35.3272 23.9566 35.401 24.3514 35.5396 24.4406C36.0269 24.7506 35.9732 24.1707 36.0179 24.0882C36.114 23.9186 35.9352 23.5372 36.0716 23.419C36.1096 23.419 36.1431 23.448 36.2236 23.3298C36.2236 23.3298 36.2236 23.2695 36.2236 23.2673C36.3845 23.1424 36.6974 23.2182 36.8785 23.0933C36.9641 23.0507 37.0551 23.02 37.149 23.0019C36.9746 23.1759 37.225 23.1736 37.5469 23.1647C37.2384 23.2874 37.5737 23.8116 37.5178 24.193C37.4021 24.131 37.2818 24.0781 37.1579 24.0346C37.1087 23.7112 36.6527 23.6621 36.3264 24.0681C36.4829 24.222 36.6706 24.7038 37.0149 24.9046C36.9746 25.4198 36.4359 25.0228 36.4225 25.0362C36.5812 25.1834 36.0604 26.0042 36.0648 26.0221C36.2571 25.9775 37.2764 26.292 37.3814 26.4147C37.0998 26.8095 38.6265 27.9894 38.7226 27.8378C38.4522 28.1099 38.6556 28.0006 38.2309 28.2214C38.479 28.6876 38.5796 28.2103 38.5125 28.6965C38.432 28.7345 38.8389 28.8638 38.8366 28.9598C38.8696 29.284 38.9645 29.599 39.116 29.8877C39.2435 29.6445 39.2636 29.0981 39.4379 28.8527C39.7822 29.2252 39.8224 29.417 40.2426 29.4349C40.4662 29.6735 40.7545 29.881 40.7277 29.8208C40.8752 29.7895 41.0116 29.5062 41.1502 29.4549C41.2843 29.678 41.215 29.8431 41.6263 29.7851C41.9303 29.7427 42.1874 29.3769 42.583 29.7182C42.6344 29.7048 42.583 29.7695 42.6322 29.7761C43.0234 30.3472 43.4995 30.1933 43.2536 29.5531C43.2134 29.4483 43.4771 29.0244 43.2536 28.8839C43.4146 28.9879 43.5645 29.1083 43.7007 29.243C43.5844 28.9553 43.1418 28.5047 43.2067 28.2058C43.3274 28.4066 43.7565 29.5241 44.1209 29.7806C44.445 30.0862 45.3056 29.9367 45.2073 29.2899C45.1737 29.0668 44.8362 28.9151 44.6618 28.7367C44.6618 28.7077 44.7468 28.5315 44.72 28.5003C44.7065 28.5003 44.682 28.5694 44.6708 28.5783C44.6395 28.5359 44.7289 28.5493 44.7177 28.5069C44.7065 28.4646 44.8585 28.5069 44.8585 28.4735C44.8809 28.3887 44.5724 27.9136 44.7334 27.8043C44.8161 27.8578 45.0262 28.2727 45.1 28.3084C45.3503 27.956 45.1 27.4764 44.8965 27.2511C44.8429 27.1931 44.673 27.269 44.5993 27.1887C44.5836 26.4437 44.7133 25.7812 44.6127 25.4912C44.8876 24.4897 46.7541 26.1448 46.5909 24.4964C46.8971 24.59 47.6393 24.6079 47.9321 24.7863C47.7533 24.1172 46.8994 24.5633 47.1184 23.8606C47.1807 23.9433 47.2625 24.0093 47.3565 24.0529C47.4504 24.0964 47.5537 24.1162 47.6572 24.1105C47.6038 23.9436 47.5635 23.7728 47.5364 23.5997C47.5744 23.5461 47.5923 23.6599 47.608 23.5997C47.6504 23.6644 47.4403 23.6777 47.4917 23.8049C47.5387 23.9967 47.7957 23.9967 47.8606 23.9677C48.0081 24.3224 48.1489 24.4874 48.3702 24.4763C48.473 24.4763 48.672 24.5321 48.7502 24.4495C49.176 25.0238 49.5722 25.6194 49.9372 26.234C49.9506 26.321 49.8232 26.4325 49.8343 26.5396C49.8723 26.8742 49.7807 27.7999 50.2479 27.405C50.3328 27.3337 50.4714 27.3827 50.4714 27.2444C50.8827 26.9946 51.2314 26.6533 51.5689 26.8563C51.7724 27.2311 51.4482 28.0296 51.7612 28.3887C51.9847 28.2861 51.826 27.8199 51.7612 27.6169C51.7612 27.5946 52.0853 27.4786 52.0942 27.4608C52.358 27.6616 52.7648 27.8065 53.1046 28.0028C53.2678 27.6526 53.1493 27.0771 52.8811 26.9768C52.7426 26.7422 52.6287 26.4941 52.5413 26.2362C52.7425 26.4593 53.0219 27.3337 53.46 26.95C53.3588 26.2656 53.3326 25.5723 53.3818 24.8823C53.4712 24.8823 53.3818 25.0741 53.4466 25.0897C53.5806 25.0995 53.7153 25.0905 53.8467 25.0629C53.9207 25.0674 53.9945 25.0524 54.0607 25.0193C54.1269 24.9861 54.1832 24.9361 54.2238 24.8743C54.2645 24.8125 54.288 24.741 54.292 24.6672C54.2961 24.5934 54.2805 24.5198 54.2468 24.454C54.1619 24.1796 53.4801 24.0748 53.1985 23.8116C53.2365 23.4814 53.422 23.2785 53.4533 23.1179C53.6768 23.2852 53.764 23.506 54.0255 23.564C54.0225 23.3955 54.0315 23.2271 54.0524 23.0599C54.1597 22.848 54.5441 22.6004 54.5173 22.2546C54.5643 22.2078 54.3877 22.1721 54.3854 22.2033C54.4063 22.0476 54.3734 21.8893 54.2922 21.7547C54.2109 21.6201 54.0861 21.5171 53.9384 21.4628C53.8579 21.1594 53.9853 20.6888 53.8646 20.3832C53.8445 20.2984 53.7372 20.314 53.735 20.227C53.7193 20.2516 53.8713 20.004 53.8557 20.0486C53.8378 20.004 53.9697 20.1869 53.9518 20.1423C53.9339 20.0977 53.8668 19.8501 53.8221 19.8501C53.7774 19.7475 53.5986 19.7965 53.5494 19.6984C53.5643 19.6126 53.5962 19.5307 53.6433 19.4575C54.0434 19.511 54.1999 18.9868 54.0255 18.7883C54.0837 18.7883 53.9875 18.9556 54.0077 18.9734C54.0255 18.795 53.7238 18.4805 53.5606 18.1637C53.5695 17.6507 52.7872 17.0284 52.5748 16.7272ZM28.6861 20.3229C28.6861 20.3229 28.6861 20.2583 28.6861 20.2516C28.6861 20.2449 28.8761 20.3096 28.8828 20.3185L28.6861 20.3229ZM33.9592 28.0006L33.9212 27.9694L34.0061 27.8199L33.9592 28.0006ZM32.8415 24.6547C32.8268 24.6317 32.8134 24.6079 32.8013 24.5834C32.846 24.5677 33.0539 24.6882 33.0628 24.7016C33.0204 24.7172 32.8482 24.6391 32.8304 24.6503L32.8415 24.6547ZM38.926 28.7077C38.9613 28.6719 38.9994 28.6391 39.04 28.6096C39.0042 28.6479 38.9618 28.6796 38.9149 28.7032L38.926 28.7077Z" fill="#E6E6E6"/>
</g>
</g>
<path d="M5.58034 27.6514C7.22745 27.5909 8.87633 27.7058 10.499 27.9942C12.2526 28.3107 13.9114 28.8643 15.4126 29.8415C15.8528 30.1163 16.242 30.4653 16.5626 30.8729C17.1892 31.6995 17.2707 32.5864 16.8048 33.5104C16.6292 33.8587 16.411 34.187 16.2019 34.5178C15.679 35.3433 15.6577 36.197 16.0518 37.073C16.4692 38.0045 17.1568 38.6936 18.0186 39.2289C18.0463 39.2396 18.075 39.2473 18.1044 39.2518C17.5106 38.5977 17.771 37.9123 17.9365 37.2961C17.8941 37.1533 17.8603 37.0081 17.8355 36.8612C17.8358 36.8314 17.8437 36.8023 17.8583 36.7763C17.8729 36.7504 17.8939 36.7285 17.9192 36.7128C18.0875 36.6548 18.0973 36.5078 18.1283 36.3764C18.2872 35.6794 18.8875 35.3713 19.546 35.3103L19.6326 35.3038C19.5718 35.0985 19.7153 34.9957 19.8285 34.8637C19.915 34.7389 19.9847 34.6034 20.0358 34.4605C20.1223 34.286 20.2087 34.1115 20.2938 33.9367C20.3171 33.897 20.333 33.8535 20.3411 33.8082C20.3451 33.5183 20.4506 33.239 20.6394 33.0186C20.9888 32.6125 21.2923 32.1672 21.6825 31.7988C22.0728 31.4304 22.3747 30.996 22.8547 30.7517C22.9072 30.7157 22.9459 30.6628 22.9642 30.6018C23.0843 30.2293 23.3402 29.9154 23.6812 29.7223C23.7599 29.6879 23.8276 29.6326 23.8768 29.5624C23.9261 29.4922 23.9551 29.4098 23.9606 29.3243C23.9906 29.2052 24.0366 29.0908 24.0973 28.984C24.1238 28.9276 24.1401 28.867 24.1454 28.8049C24.147 28.588 24.1361 28.3706 24.1348 28.1543C24.1343 28.0665 24.1529 27.9795 24.1895 27.8996C24.2261 27.8197 24.2798 27.7487 24.3467 27.6916C24.5179 27.5441 24.7043 27.4133 24.8732 27.2848C24.9254 27.0165 24.9811 26.7407 25.0335 26.4612C25.1474 25.858 25.2673 25.2535 25.3672 24.6494C25.4141 24.3642 25.4572 24.0878 25.7053 23.9171C25.5659 23.2038 25.8886 22.5971 26.0899 21.958C26.0096 21.8886 25.9385 21.9006 25.8566 21.9789C25.6109 22.2074 25.2955 22.3472 24.9609 22.3759C24.8931 22.3887 24.828 22.4134 24.7688 22.4487C24.5043 22.6088 24.2297 22.7518 23.9467 22.8767C23.7489 22.9389 23.5547 23.0118 23.3648 23.0951C23.1406 23.2032 22.8969 23.2654 22.6482 23.2779C22.3995 23.2905 22.1508 23.2531 21.9168 23.168C21.8535 23.151 21.7824 23.1419 21.7281 23.1175C21.5725 23.0724 21.423 23.0082 21.283 22.9265C20.4197 22.302 20.1282 21.4337 20.2459 20.4053C20.2508 20.3375 20.2411 20.2695 20.2175 20.2058C20.1364 19.9809 20.1033 19.7618 20.2362 19.5461C20.2535 19.5243 20.2668 19.4997 20.2755 19.4733C20.3357 19.2072 20.3914 18.9525 20.4545 18.6645L20.3339 18.5871C20.0484 18.4021 19.9715 18.2249 20.0417 17.8951C20.0878 17.6176 20.1493 17.3429 20.2259 17.0722C20.4206 16.4892 20.6404 15.9129 20.8526 15.3388C20.8649 15.2927 20.9224 15.2629 20.9636 15.2203C20.9011 15.116 21.016 14.9407 21.223 14.8916C21.3435 14.8687 21.4656 14.8542 21.5882 14.8482C21.6357 14.7663 21.6662 14.6757 21.6778 14.5818C21.6894 14.4879 21.6819 14.3926 21.6557 14.3017C21.611 14.1637 21.5953 14.018 21.6097 13.8737C21.6241 13.7294 21.6683 13.5896 21.7395 13.4632C21.7581 13.4152 21.7608 13.3625 21.7473 13.3129C21.6816 13.0531 21.6902 12.7801 21.7722 12.525C21.7778 12.4894 21.7762 12.4531 21.7677 12.4181C21.7591 12.3831 21.7437 12.3501 21.7223 12.3211C21.3989 11.8074 21.2539 11.2018 21.3096 10.5977C21.3074 10.5188 21.3312 10.4414 21.3773 10.3773C21.4233 10.3131 21.4892 10.2658 21.5648 10.2426C21.6473 10.2178 21.736 10.2236 21.8146 10.2589C21.8932 10.2941 21.9564 10.3565 21.9926 10.4346C22.1514 10.7494 22.2867 11.0777 22.4324 11.3989C22.4694 11.4822 22.5052 11.5595 22.5391 11.649L22.5801 11.6388C22.5719 11.4955 22.5716 11.3543 22.551 11.2204C22.504 10.8267 22.4383 10.4338 22.4072 10.0388C22.3952 9.84479 22.4127 9.65009 22.4591 9.46132C22.4735 9.38757 22.5141 9.32152 22.5736 9.27541C22.633 9.22929 22.7072 9.20622 22.7824 9.21048C22.8624 9.20273 22.9425 9.22411 23.008 9.27066C23.0735 9.31721 23.1199 9.3858 23.1386 9.4638C23.2084 9.72009 23.2652 9.97973 23.3088 10.2417C23.3622 10.6328 23.3876 11.0277 23.4248 11.4215L23.4814 11.4212C23.4982 11.1533 23.521 10.8841 23.5298 10.6141C23.5377 10.3213 23.5265 10.0262 23.54 9.73341C23.5483 9.60332 23.5752 9.47506 23.6197 9.3525C23.6534 9.25652 23.7188 9.17486 23.8053 9.12101C23.8917 9.06715 23.994 9.04432 24.0952 9.05627C24.2749 9.07185 24.3354 9.21505 24.3557 9.35031C24.4085 9.58332 24.4394 9.82074 24.4481 10.0595C24.45 10.5003 24.4223 10.9403 24.402 11.3794C24.3865 11.4856 24.3964 11.5939 24.4308 11.6955C24.4652 11.7972 24.5231 11.8893 24.5999 11.9644C24.648 11.7486 24.7007 11.5468 24.7343 11.3427C24.8085 10.8925 24.8701 10.4419 24.9427 9.98711C24.9595 9.89064 24.9849 9.79589 25.0188 9.70401C25.0328 9.63922 25.068 9.58092 25.1189 9.53831C25.1697 9.4957 25.2334 9.4712 25.2997 9.46866C25.4087 9.48464 25.5069 9.54284 25.573 9.63065C25.8111 9.97655 25.8185 10.3652 25.782 10.7591C25.7543 11.0466 25.7008 11.3301 25.6622 11.6161C25.6453 11.7528 25.6368 11.9057 25.6112 12.0485C25.587 12.1113 25.5592 12.1727 25.5279 12.2322C25.5141 12.2836 25.4907 12.3705 25.5139 12.3894C25.6803 12.5284 25.6122 12.7346 25.6737 12.9007C25.6822 12.9333 25.6884 12.9666 25.6922 13.0002C25.8408 12.9704 25.9916 12.9531 26.1431 12.9485C26.3384 12.9551 26.5323 12.9842 26.7208 13.0353C27.0072 13.1119 27.1383 13.5872 26.9526 13.8156C26.9062 13.8723 26.8177 13.8967 26.7458 13.9325C26.711 13.9514 26.6636 13.9542 26.6366 13.9809C26.5234 14.0918 26.4835 14.0246 26.463 13.9006L26.3462 13.9301C26.3278 13.9985 26.3293 14.0667 26.3049 14.0841C26.0666 14.2292 25.8794 14.4444 25.7689 14.7001C25.6398 14.9704 25.3659 15.1004 25.1285 15.2627C25.1111 15.275 25.0917 15.2839 25.0971 15.2797C25.1442 15.403 25.1709 15.5331 25.1761 15.665C25.1581 15.79 25.0535 15.9003 25.006 16.0245C24.9403 16.1944 24.8873 16.3689 24.8474 16.5466C24.8317 16.675 24.8267 16.8044 24.8326 16.9336L24.9735 16.8301C25.1922 16.6467 25.4592 16.5299 25.7427 16.4939C25.784 16.4905 25.8225 16.4715 25.8503 16.4408C26.0001 16.2198 26.2171 16.2016 26.4468 16.2418C26.489 16.2567 26.5346 16.2597 26.5784 16.2506C26.6223 16.2414 26.6628 16.2204 26.6955 16.1898C26.7512 16.1456 26.8124 16.1088 26.8776 16.0804C26.9993 16.0116 27.096 15.906 27.1537 15.7788C27.2703 15.5688 27.4404 15.3933 27.6468 15.2699C27.9196 15.1014 28.2286 14.9998 28.5483 14.9734C28.8681 14.947 29.1896 14.9967 29.4865 15.1183C29.5216 15.1333 29.5557 15.1509 29.5883 15.1709C29.6179 15.1949 29.6459 15.2208 29.6721 15.2484L29.2302 15.2036L29.5958 15.3324L30.1883 15.0957C30.2749 14.8366 30.376 14.539 30.4785 14.2362C30.6655 13.6821 30.9788 13.1789 31.3937 12.7662C31.4588 12.697 31.4937 12.6048 31.4908 12.5099C31.5127 11.808 31.7264 11.1253 32.1086 10.5356C32.1673 10.4639 32.2324 10.3977 32.3031 10.3378L32.3392 10.3616L32.3259 10.4794C32.3406 10.4721 32.3583 10.4697 32.365 10.4602C32.4836 10.3085 32.6297 10.3278 32.793 10.3728C32.9602 10.4195 33.1314 10.4502 33.3044 10.4644C33.4036 10.457 33.5012 10.4356 33.5944 10.4008C33.572 10.3846 33.5539 10.3631 33.5417 10.3382C33.5296 10.3133 33.5239 10.2858 33.525 10.2582C33.5261 10.2305 33.5341 10.2036 33.5482 10.1798C33.5623 10.1559 33.5821 10.136 33.6058 10.1216C33.7796 9.97361 33.9654 9.84014 34.1612 9.72257C34.6454 9.43408 35.2018 9.28915 35.7655 9.30475L35.8642 9.14769C35.9047 9.18749 35.9522 9.21936 36.0045 9.24164C36.0686 9.26317 36.1386 9.25913 36.1998 9.23037C36.2712 9.16477 36.3038 9.15374 36.3634 9.23741C36.3945 9.26746 36.4359 9.28459 36.4792 9.28532C37.578 9.40693 38.6249 9.67416 39.5541 10.3008C40.0815 10.6538 40.5281 11.1142 40.8644 11.6518C41.1299 12.0422 41.2834 12.4976 41.3085 12.9687C41.3132 13.0536 41.3393 13.1359 41.3845 13.2079C41.4297 13.28 41.4925 13.3394 41.5669 13.3807C41.6992 13.4758 41.8409 13.5572 41.9897 13.6236C42.0287 13.6351 42.0622 13.6602 42.0842 13.6943C42.1062 13.7284 42.1152 13.7693 42.1095 13.8095C42.1026 13.9826 42.0831 14.1552 42.0679 14.3276C42.0184 14.9203 41.8721 15.5009 41.6347 16.0464C41.6089 16.1099 41.5669 16.1655 41.5128 16.2077C41.4588 16.25 41.3947 16.2774 41.3268 16.2872C41.14 16.3192 40.9496 16.3275 40.7588 16.3428C40.518 16.3603 40.2966 16.4211 40.202 16.6681C40.1582 16.7769 40.1498 16.8966 40.178 17.0103C40.2596 17.2805 40.1238 17.4333 39.928 17.5673C39.8657 17.6099 39.8001 17.6488 39.7237 17.6961L40.2374 18.1425C40.2856 18.0947 40.3424 18.0464 40.3901 17.99C40.569 17.7511 40.8342 17.5912 41.1294 17.5444C41.4245 17.4976 41.7264 17.5676 41.9706 17.7394C42.6441 18.1651 42.895 18.8108 42.849 19.5719C42.8039 19.9433 42.7362 20.3116 42.6462 20.6749C42.6339 20.7127 42.6344 20.7534 42.6475 20.791C42.8946 21.1562 43.0534 21.5444 42.9907 21.999C42.9874 22.0418 42.9943 22.0847 43.0108 22.1243C43.101 22.3729 43.1946 22.6195 43.2932 22.8843C43.5509 22.8305 43.6781 23.031 43.7951 23.2486C43.8967 23.4338 44.026 23.6053 44.1152 23.7942C44.3581 24.3477 44.5347 24.9278 44.6412 25.5225C44.6904 25.6991 44.6827 25.8866 44.6193 26.0586C44.5559 26.2306 44.4398 26.3783 44.2877 26.4808C44.4265 26.6591 44.5553 26.8431 44.6909 27.012C44.7173 27.0437 44.7508 27.0687 44.7888 27.0848C44.91 27.131 45.01 27.2199 45.0698 27.3348C45.1297 27.4496 45.1453 27.5824 45.1136 27.7079C45.1014 27.7589 45.1048 27.8124 45.1233 27.8615C45.45 28.5625 45.6683 29.3089 45.7706 30.0753C46.1318 30.131 46.4947 30.1701 46.8504 30.2412C47.8466 30.4226 48.7943 30.8081 49.6337 31.3735C49.9357 31.572 50.1858 31.8397 50.3631 32.1543C50.6037 32.6067 50.5574 33.053 50.3279 33.4968C50.0053 34.1136 49.494 34.6116 48.8684 34.9187C48.3764 35.171 47.9074 35.4323 47.3621 35.5405C47.2408 35.572 47.1229 35.6157 47.0103 35.6708C46.9796 35.6893 46.9554 35.7168 46.9411 35.7497C46.923 35.8123 46.8986 35.8729 46.8685 35.9307C46.5829 36.2777 46.513 36.7276 46.314 37.1161C46.2001 37.3453 46.0584 37.5727 45.807 37.6452C45.6036 37.7065 45.4118 37.8012 45.2396 37.9254C45.0059 38.0901 44.6253 38.0433 44.3885 37.877C44.3348 37.8419 44.2699 37.828 44.2065 37.8382C44.0633 37.8779 43.9115 37.8741 43.7704 37.8273C43.6293 37.7806 43.5054 37.6929 43.4144 37.5756C43.3716 37.5288 43.3121 37.5007 43.2487 37.4975C43.1661 37.5005 43.084 37.4849 43.0084 37.4517C42.9328 37.4185 42.8657 37.3687 42.8122 37.3059C42.6248 37.0822 42.4555 36.8436 42.2648 36.5951C41.8495 36.6003 41.4358 36.543 41.0376 36.425C40.6418 36.3192 40.2332 36.2607 39.8451 36.1259C39.0613 35.8582 38.3647 35.3837 37.8294 34.7529C37.7378 34.6212 37.6615 34.4796 37.6019 34.3308C37.43 34.4443 37.3506 34.3341 37.2733 34.2429C37.196 34.1517 37.1251 34.0734 37.2707 33.9839L37.1532 33.8213C37.1339 33.8628 37.1168 33.9054 37.102 33.9487C37.0397 34.183 36.9094 34.3937 36.7273 34.5542C36.6757 34.6071 36.6349 34.6695 36.6072 34.738C36.5639 34.8308 36.5416 34.9349 36.4956 35.0271C36.3689 35.2681 36.3195 35.5421 36.3541 35.812C36.3857 36.0632 36.3592 36.32 36.0758 36.4432C36.0643 36.449 36.0542 36.4572 36.0461 36.4672C36.038 36.4772 36.0322 36.4889 36.029 36.5013C35.9077 37.2902 35.5507 37.9879 35.2022 38.6907C35.0876 38.9225 35.0042 39.1698 34.8909 39.402C34.8129 39.5425 34.7264 39.6782 34.6319 39.8083C34.6266 39.8281 34.5943 39.8378 34.591 39.8553C34.5226 40.1785 34.2583 40.3308 34.0309 40.5297C34.0074 40.558 33.9865 40.5883 33.9684 40.6202L33.5593 41.1643C33.5396 41.1901 33.5078 41.2084 33.4974 41.2366C33.3266 41.699 33.024 42.0782 32.7308 42.4641C32.7007 42.5026 32.6741 42.5435 32.6453 42.5824C33.0596 43.1462 33.0608 43.9636 32.6447 44.6229C32.5052 44.8424 32.3741 45.0671 32.2421 45.2901C32.2048 45.3588 32.1523 45.4182 32.0886 45.4637C32.0249 45.5093 31.9517 45.5398 31.8745 45.553C31.8443 45.5606 31.8167 45.5761 31.7946 45.598C31.6106 45.7563 31.4404 45.9267 31.2651 46.0844C30.8913 46.4234 30.5208 46.4598 30.0823 46.1916C29.8635 46.5095 29.5826 46.78 29.2564 46.9868C29.1632 47.0572 29.0781 47.1377 29.0025 47.2266C28.991 47.2377 28.9733 47.2513 28.9724 47.2651C28.9392 47.578 28.6976 47.6249 28.4544 47.6615C28.3934 47.6692 28.3345 47.6889 28.2811 47.7195C28.2278 47.75 28.181 47.7908 28.1435 47.8395C27.986 48.026 27.7964 48.1842 27.6297 48.3626C27.5862 48.4132 27.5594 48.4761 27.5531 48.5425C27.5564 48.5945 27.5391 48.6457 27.505 48.6851C27.4709 48.7245 27.4226 48.749 27.3706 48.7534C27.2228 48.7773 27.0714 48.8145 26.9217 48.845C26.8817 48.8519 26.8448 48.8711 26.8164 48.9001C26.5767 49.2052 26.2777 49.4589 25.9373 49.6459C25.9204 49.6562 25.9057 49.6698 25.8941 49.6858C25.8825 49.7019 25.8743 49.7201 25.8698 49.7393C25.8334 49.9328 25.7629 50.0269 25.5701 50.0445C25.4187 50.0422 25.2676 50.032 25.1173 50.0137C25.0516 50.0076 24.9858 50.0232 24.93 50.0582C24.6359 50.308 24.4358 50.6501 24.3625 51.0285C24.2501 51.5629 24.1768 52.0993 24.1157 52.6376C24.1082 52.827 24.0443 53.0099 23.9322 53.163C23.8449 53.2723 23.7536 53.3805 23.661 53.4884C23.5214 53.6571 23.3775 53.8242 23.2294 53.9897C23.1166 54.116 22.9769 54.2154 22.8206 54.2808C22.6643 54.3462 22.4953 54.3759 22.326 54.3677C22.2948 54.3679 22.2646 54.3753 22.234 54.3784L21.602 54.2094C21.5869 54.1941 21.5701 54.1806 21.5519 54.1692C21.0446 53.9517 20.7322 53.5351 20.5664 53.0307C20.4006 52.5263 20.3905 52.0057 20.7228 51.5371C20.7503 51.4979 20.771 51.4526 20.7938 51.4149C21.0849 50.8944 21.1737 50.3057 21.3534 49.7469C21.4751 49.3729 21.4943 48.9378 21.8699 48.6924C21.8941 48.6763 21.9007 48.6357 21.9181 48.6079C22.1173 48.2567 22.3918 47.9537 22.722 47.7207C22.8213 47.647 22.9321 47.5903 23.0499 47.5529C23.0889 47.547 23.1255 47.5302 23.1554 47.5045C23.1853 47.4788 23.2074 47.4452 23.2191 47.4076C23.3011 47.1967 23.4012 47.0033 23.6357 46.9094C23.6934 46.866 23.7315 46.8016 23.7418 46.7303C23.777 46.5675 23.7994 46.3576 23.9667 46.3247C24.207 46.2775 24.3371 46.109 24.5167 45.9933C24.6395 45.9209 24.7413 45.8178 24.812 45.6941C25.0676 45.2162 25.5 44.8647 25.7412 44.3774C25.8684 44.1193 26.0184 43.8715 26.1368 43.6096C26.2991 43.2635 26.453 42.9166 26.7604 42.6671C26.9419 42.518 27.15 42.3803 27.1612 42.1067C27.1644 42.0949 27.1838 42.0859 27.193 42.0729C27.5202 41.5705 27.9659 41.1167 27.875 40.4389C27.8694 40.4061 27.8736 40.3724 27.8869 40.3419C27.9182 40.2605 27.9679 40.1874 28.032 40.1281C28.1362 40.0654 28.2248 39.98 28.2911 39.8781C28.3574 39.7763 28.3997 39.6608 28.4147 39.5403C28.4023 39.5371 28.3895 39.5366 28.3769 39.5387L28.2341 39.6176C27.2878 40.1736 26.276 40.6104 25.2219 40.9178C24.5955 41.0871 23.9537 41.1939 23.3062 41.2368C23.2498 41.2415 23.1544 41.2753 23.1428 41.3187C23.0105 41.6743 22.9049 42.0412 22.7661 42.395C22.506 43.058 22.2933 43.7293 22.2795 44.4496C22.2873 44.6601 22.2428 44.8693 22.1499 45.0585C22.0932 45.1669 22.0611 45.2865 22.0559 45.4087C22.0382 45.8274 21.9434 46.2014 21.646 46.5086C21.6078 46.5494 21.5831 46.6009 21.5752 46.6562C21.5441 46.9301 21.5267 47.195 21.4996 47.4644C21.4841 47.6169 21.464 47.771 21.4428 47.9234C21.4121 48.1537 21.4067 48.395 21.2106 48.567C20.7032 49.0085 20.2661 49.4985 20.0555 50.1563C19.7566 51.0854 18.9951 51.5931 18.1002 51.5655C17.8173 51.5521 17.5358 51.5178 17.258 51.4631C16.8708 51.3934 16.5431 51.1915 16.2089 50.9878C15.9652 50.8469 15.7666 50.6399 15.636 50.3909C15.5053 50.1419 15.4481 49.8611 15.4708 49.581C15.4931 49.3767 15.5505 49.1789 15.7484 49.0738C15.7797 49.0459 15.8004 49.008 15.8069 48.9666C15.8504 48.8047 15.8824 48.6382 15.9288 48.4756C15.9778 48.2826 16.0647 48.1011 16.1845 47.9417C16.3042 47.7824 16.4544 47.6483 16.6264 47.5473C16.7839 47.4598 16.9307 47.3547 17.0642 47.2339C17.4249 46.8858 17.7756 46.5279 18.1217 46.166C18.2027 46.0708 18.2686 45.9637 18.3172 45.8486C18.3255 45.8227 18.3285 45.7954 18.326 45.7683C18.3236 45.7413 18.3157 45.715 18.303 45.6909C18.2356 45.5628 18.1571 45.4388 18.078 45.3175C18.0648 45.3016 18.0553 45.2829 18.0504 45.2629C18.0455 45.2429 18.0451 45.222 18.0495 45.2018C18.0538 45.1816 18.0627 45.1627 18.0754 45.1464C18.0881 45.1302 18.1044 45.117 18.1229 45.1079C18.1716 45.0699 18.2116 45.022 18.2402 44.9673C18.2688 44.9127 18.2853 44.8525 18.2887 44.791C18.3384 44.6107 18.3991 44.4337 18.4706 44.261C18.4801 44.2254 18.495 44.1701 18.4689 44.1462C18.4201 44.0939 18.3888 44.0278 18.3792 43.957C18.3696 43.8862 18.3822 43.8142 18.4152 43.7508C18.4761 43.6024 18.4964 43.4405 18.4739 43.2817C18.4514 43.123 18.387 42.973 18.2873 42.8473C18.0839 42.5515 18.1326 42.2753 18.3617 41.9908C18.3963 41.9507 18.4216 41.9035 18.4356 41.8525C18.5166 41.4507 18.5871 41.0462 18.6728 40.6373C18.7112 40.4471 18.6849 40.3921 18.5175 40.2994C18.0989 40.0675 17.6674 39.8519 17.273 39.5827C16.3354 38.9453 15.6129 38.1228 15.2587 37.0246C14.9803 36.1599 14.9468 35.2999 15.3865 34.4733C15.5795 34.1128 15.8115 33.7755 16.0126 33.4214C16.3989 32.7414 16.3779 32.0612 15.9932 31.3868C15.7571 30.9927 15.4359 30.6561 15.0529 30.4015C14.187 29.7918 13.208 29.4242 12.2122 29.093C10.8408 28.6215 9.41053 28.3417 7.9622 28.2614C7.11449 28.2267 6.26209 28.2726 5.41027 28.2847L5.58034 27.6514ZM23.614 40.5486C24.1056 40.4401 24.5851 40.3609 25.0496 40.2268C26.4863 39.8221 27.7613 39.0819 28.9692 38.2335C29.0003 38.2132 29.0251 38.1847 29.0408 38.1511C29.1562 37.8925 29.2515 37.6255 29.326 37.3524C29.3669 37.1616 29.3471 36.9629 29.2693 36.784C29.2428 36.7415 29.2278 36.6929 29.2258 36.6428C29.2239 36.5928 29.2351 36.5431 29.2582 36.4988C29.2936 36.4249 29.3451 36.3597 29.3827 36.2879C29.4015 36.2548 29.4254 36.1977 29.4124 36.1773C29.213 35.8982 29.2345 35.5652 29.1851 35.2542C29.1797 35.2185 29.1603 35.1865 29.1313 35.165C28.8546 35.005 28.5758 34.8584 28.2595 35.0829C28.1923 35.1304 28.1184 35.1677 28.0403 35.1937C27.6901 35.3075 27.3404 35.4299 26.9843 35.5182C26.8502 35.5406 26.7127 35.5318 26.5825 35.4926C26.5457 35.4779 26.505 35.4759 26.4669 35.4869C26.4288 35.498 26.3956 35.5214 26.3724 35.5535C26.1829 35.7851 25.9844 36.0242 25.7948 36.2614C25.5437 36.5074 25.2674 36.7263 24.9703 36.9145L24.9546 36.9202C24.878 36.9476 24.814 37.0016 24.7742 37.0724C24.7344 37.1432 24.7215 37.2259 24.738 37.3054C24.7659 37.4398 24.7525 37.5793 24.6996 37.7059C24.6466 37.8325 24.5567 37.9403 24.4414 38.015C24.3971 38.0497 24.3646 38.0972 24.3483 38.151C24.2172 38.5393 24.1098 38.934 23.9597 39.3088C23.8095 39.6835 23.4843 39.9889 23.6102 40.4417C23.6144 40.4772 23.6156 40.5129 23.614 40.5486ZM43.2549 33.7663C42.9411 33.5709 42.8642 33.278 42.859 32.9548C42.8575 32.8288 42.8682 32.7047 42.8624 32.5789C42.8585 32.5282 42.8401 32.4797 42.8094 32.4391C42.7036 32.3064 42.5827 32.188 42.4903 32.0475C42.3491 31.8306 42.2317 31.5988 42.0933 31.3769C42.0743 31.3541 42.0503 31.3359 42.0232 31.3238C41.996 31.3116 41.9665 31.3058 41.9368 31.3068C41.6779 31.3399 41.4216 31.3901 41.1694 31.4573C39.9187 31.8384 38.7768 32.4673 37.601 33.0435C37.7826 33.489 38.062 33.8883 38.4187 34.2119C38.9592 34.6817 39.5867 35.0413 40.2658 35.2703C40.8506 35.4843 41.4643 35.6099 42.0864 35.6427C42.0944 35.5863 42.1092 35.531 42.1305 35.4781C42.3043 35.1759 42.3962 34.8338 42.3971 34.4853C42.3967 34.4637 42.3996 34.4421 42.4058 34.4213C42.4585 34.2251 42.5604 34.0562 42.7795 34.0358C42.9654 34.0063 43.1344 33.9106 43.2549 33.7663ZM46.9149 34.8254C46.939 34.8207 46.9627 34.8138 46.9855 34.8047C47.5001 34.5683 48.0299 34.36 48.5232 34.0869C48.8541 33.889 49.1593 33.6511 49.4319 33.3786C49.5416 33.2853 49.6195 33.1601 49.6547 33.0206C49.6899 32.881 49.6806 32.734 49.6282 32.5999C49.475 32.1962 49.1409 31.9658 48.774 31.7731L49.1914 32.1147L49.1679 32.1494C48.733 31.8367 48.2556 31.5874 47.7502 31.409C47.2503 31.2212 46.722 31.1191 46.1879 31.107C46.1996 31.1426 46.2164 31.1697 46.2369 31.1723C46.3115 31.1817 46.3804 31.2171 46.4313 31.2724C46.4822 31.3276 46.5119 31.399 46.5151 31.474C46.5612 31.7847 46.5914 32.0975 46.6057 32.4113C46.6026 32.5472 46.5636 32.6799 46.4925 32.7959C46.4151 32.9262 46.3667 33.022 46.4884 33.1589C46.545 33.2453 46.5805 33.3438 46.5922 33.4464C46.6992 33.9012 46.8027 34.3635 46.911 34.8243L46.9149 34.8254ZM41.5366 30.4533C41.5341 30.4385 41.5299 30.4242 41.5241 30.4104C41.2632 29.9441 41.0036 29.4781 41.0184 28.9175C41.0251 28.8925 40.9908 28.8622 40.972 28.8374C40.7971 28.6319 40.704 28.3695 40.7104 28.0999C40.7116 28.0629 40.7017 28.0264 40.682 27.995C40.4595 27.6701 40.234 27.3459 40.0128 27.0271C40.0086 27.0387 40.0054 27.0506 40.0032 27.0626C39.9539 27.3726 39.9059 27.683 39.8566 27.993C39.849 28.0175 39.8375 28.0406 39.8227 28.0615C39.7844 28.1169 39.7512 28.1756 39.7233 28.2368C39.6679 28.3956 39.636 28.562 39.5714 28.7183C39.3697 29.2586 39.1628 29.7974 38.9563 30.3349C38.8464 30.6508 38.6723 30.9406 38.4449 31.186C38.1249 31.514 37.7627 31.6881 37.2807 31.4816L37.349 32.1491C38.6448 31.3662 40.0569 30.7934 41.5327 30.4522L41.5366 30.4533ZM41.989 20.1308C42.0935 19.6098 42.0904 19.1051 41.826 18.6308C41.7949 18.5806 41.7482 18.5419 41.693 18.5204C41.4097 18.4009 41.2012 18.4877 40.967 18.8174C41.0644 18.8825 41.145 18.9698 41.2018 19.0722C41.2587 19.1745 41.2903 19.2889 41.2941 19.4059C41.2942 19.437 41.3376 19.4754 41.3697 19.4981C41.6111 19.6685 41.853 19.8418 41.9843 20.1324L41.989 20.1308ZM31.1714 15.1215L31.6344 15.0773C31.6142 15.0155 31.5984 14.9534 31.5742 14.8961C31.5391 14.8302 31.5276 14.7544 31.5416 14.6812C31.5556 14.6079 31.5943 14.5416 31.6512 14.4933C31.9566 14.2007 32.1561 13.8153 32.2184 13.3974C32.2407 13.3144 32.2633 13.2302 32.286 13.1459L32.2385 13.1332C31.6761 13.6842 31.3786 14.371 31.1703 15.131L31.1714 15.1215ZM40.4203 16.1606L41.4541 16.1026C41.2911 16.0212 41.1093 15.9846 40.9274 15.9964C40.7456 16.0083 40.5701 16.0683 40.4191 16.1702L40.4203 16.1606ZM26.4246 21.8019C26.2856 21.8509 26.0042 22.6407 25.9965 23.0014C26.1358 22.6195 26.271 22.2266 26.4234 21.8115L26.4246 21.8019ZM32.1843 14.125C32.2999 13.8736 32.477 13.6302 32.4 13.3218L32.1843 14.125ZM25.11 26.9558C25.0763 27.0111 25.0626 27.0762 25.0711 27.1403C25.0796 27.2045 25.1098 27.2638 25.1567 27.3084C25.173 27.3269 25.2403 27.3026 25.2812 27.298L25.11 26.9558Z" fill="#242635"/>
<defs>
<radialGradient id="paint0_radial" cx="0" cy="0" r="1" gradientUnits="userSpaceOnUse" gradientTransform="translate(32.089 7.16807) rotate(40.4793) scale(40.081 40.0678)">
<stop offset="0.07" stop-color="white"/>
<stop offset="0.37" stop-color="#FDFDFD"/>
<stop offset="0.53" stop-color="#F5F5F5"/>
<stop offset="0.66" stop-color="#E7E7E7"/>
<stop offset="0.77" stop-color="#D4D4D4"/>
<stop offset="0.87" stop-color="#BBBBBB"/>
<stop offset="0.94" stop-color="#A3A3A3"/>
</radialGradient>
</defs>
</svg>
