<svg width="411" height="332" viewBox="0 0 411 332" fill="none" xmlns="http://www.w3.org/2000/svg">
<path d="M114.376 278V252.8H123.196L127.552 274.76H128.2L132.556 252.8H141.376V278H136.768V256.292H136.12L131.8 278H123.952L119.632 256.292H118.984V278H114.376ZM155.402 278.504C153.626 278.504 152.054 278.132 150.686 277.388C149.342 276.62 148.286 275.552 147.518 274.184C146.774 272.792 146.402 271.16 146.402 269.288V268.856C146.402 266.984 146.774 265.364 147.518 263.996C148.262 262.604 149.306 261.536 150.65 260.792C151.994 260.024 153.554 259.64 155.33 259.64C157.082 259.64 158.606 260.036 159.902 260.828C161.198 261.596 162.206 262.676 162.926 264.068C163.646 265.436 164.006 267.032 164.006 268.856V270.404H151.01C151.058 271.628 151.514 272.624 152.378 273.392C153.242 274.16 154.298 274.544 155.546 274.544C156.818 274.544 157.754 274.268 158.354 273.716C158.954 273.164 159.41 272.552 159.722 271.88L163.43 273.824C163.094 274.448 162.602 275.132 161.954 275.876C161.33 276.596 160.49 277.22 159.434 277.748C158.378 278.252 157.034 278.504 155.402 278.504ZM151.046 267.02H159.398C159.302 265.988 158.882 265.16 158.138 264.536C157.418 263.912 156.47 263.6 155.294 263.6C154.07 263.6 153.098 263.912 152.378 264.536C151.658 265.16 151.214 265.988 151.046 267.02ZM175.321 278C174.145 278 173.185 277.64 172.441 276.92C171.721 276.176 171.361 275.192 171.361 273.968V263.888H166.897V260.144H171.361V254.6H175.897V260.144H180.793V263.888H175.897V273.176C175.897 273.896 176.233 274.256 176.905 274.256H180.361V278H175.321ZM191.443 278.504C190.171 278.504 189.031 278.288 188.023 277.856C187.015 277.4 186.211 276.752 185.611 275.912C185.035 275.048 184.747 274.004 184.747 272.78C184.747 271.556 185.035 270.536 185.611 269.72C186.211 268.88 187.027 268.256 188.059 267.848C189.115 267.416 190.315 267.2 191.659 267.2H196.555V266.192C196.555 265.352 196.291 264.668 195.763 264.14C195.235 263.588 194.395 263.312 193.243 263.312C192.115 263.312 191.275 263.576 190.723 264.104C190.171 264.608 189.811 265.268 189.643 266.084L185.467 264.68C185.755 263.768 186.211 262.94 186.835 262.196C187.483 261.428 188.335 260.816 189.391 260.36C190.471 259.88 191.779 259.64 193.315 259.64C195.667 259.64 197.527 260.228 198.895 261.404C200.263 262.58 200.947 264.284 200.947 266.516V273.176C200.947 273.896 201.283 274.256 201.955 274.256H203.395V278H200.371C199.483 278 198.751 277.784 198.175 277.352C197.599 276.92 197.311 276.344 197.311 275.624V275.588H196.627C196.531 275.876 196.315 276.26 195.979 276.74C195.643 277.196 195.115 277.604 194.395 277.964C193.675 278.324 192.691 278.504 191.443 278.504ZM192.235 274.832C193.507 274.832 194.539 274.484 195.331 273.788C196.147 273.068 196.555 272.12 196.555 270.944V270.584H191.983C191.143 270.584 190.483 270.764 190.003 271.124C189.523 271.484 189.283 271.988 189.283 272.636C189.283 273.284 189.535 273.812 190.039 274.22C190.543 274.628 191.275 274.832 192.235 274.832ZM207.711 278V260.144H212.175V262.088H212.823C213.135 261.488 213.651 260.972 214.371 260.54C215.091 260.084 216.039 259.856 217.215 259.856C218.487 259.856 219.507 260.108 220.275 260.612C221.043 261.092 221.631 261.728 222.039 262.52H222.687C223.095 261.752 223.671 261.116 224.415 260.612C225.159 260.108 226.215 259.856 227.583 259.856C228.687 259.856 229.683 260.096 230.571 260.576C231.483 261.032 232.203 261.74 232.731 262.7C233.283 263.636 233.559 264.824 233.559 266.264V278H229.023V266.588C229.023 265.604 228.771 264.872 228.267 264.392C227.763 263.888 227.055 263.636 226.143 263.636C225.111 263.636 224.307 263.972 223.731 264.644C223.179 265.292 222.903 266.228 222.903 267.452V278H218.367V266.588C218.367 265.604 218.115 264.872 217.611 264.392C217.107 263.888 216.399 263.636 215.487 263.636C214.455 263.636 213.651 263.972 213.075 264.644C212.523 265.292 212.247 266.228 212.247 267.452V278H207.711ZM244.982 278.504C243.71 278.504 242.57 278.288 241.562 277.856C240.554 277.4 239.75 276.752 239.15 275.912C238.574 275.048 238.286 274.004 238.286 272.78C238.286 271.556 238.574 270.536 239.15 269.72C239.75 268.88 240.566 268.256 241.598 267.848C242.654 267.416 243.854 267.2 245.198 267.2H250.094V266.192C250.094 265.352 249.83 264.668 249.302 264.14C248.774 263.588 247.934 263.312 246.782 263.312C245.654 263.312 244.814 263.576 244.262 264.104C243.71 264.608 243.35 265.268 243.182 266.084L239.006 264.68C239.294 263.768 239.75 262.94 240.374 262.196C241.022 261.428 241.874 260.816 242.93 260.36C244.01 259.88 245.318 259.64 246.854 259.64C249.206 259.64 251.066 260.228 252.434 261.404C253.802 262.58 254.486 264.284 254.486 266.516V273.176C254.486 273.896 254.822 274.256 255.494 274.256H256.934V278H253.91C253.022 278 252.29 277.784 251.714 277.352C251.138 276.92 250.85 276.344 250.85 275.624V275.588H250.166C250.07 275.876 249.854 276.26 249.518 276.74C249.182 277.196 248.654 277.604 247.934 277.964C247.214 278.324 246.23 278.504 244.982 278.504ZM245.774 274.832C247.046 274.832 248.078 274.484 248.87 273.788C249.686 273.068 250.094 272.12 250.094 270.944V270.584H245.522C244.682 270.584 244.022 270.764 243.542 271.124C243.062 271.484 242.822 271.988 242.822 272.636C242.822 273.284 243.074 273.812 243.578 274.22C244.082 274.628 244.814 274.832 245.774 274.832ZM268.526 278.504C266.198 278.504 264.29 278 262.802 276.992C261.314 275.984 260.414 274.544 260.102 272.672L264.278 271.592C264.446 272.432 264.722 273.092 265.106 273.572C265.514 274.052 266.006 274.4 266.582 274.616C267.182 274.808 267.83 274.904 268.526 274.904C269.582 274.904 270.362 274.724 270.866 274.364C271.37 273.98 271.622 273.512 271.622 272.96C271.622 272.408 271.382 271.988 270.902 271.7C270.422 271.388 269.654 271.136 268.598 270.944L267.59 270.764C266.342 270.524 265.202 270.2 264.17 269.792C263.138 269.36 262.31 268.772 261.686 268.028C261.062 267.284 260.75 266.324 260.75 265.148C260.75 263.372 261.398 262.016 262.694 261.08C263.99 260.12 265.694 259.64 267.806 259.64C269.798 259.64 271.454 260.084 272.774 260.972C274.094 261.86 274.958 263.024 275.366 264.464L271.154 265.76C270.962 264.848 270.566 264.2 269.966 263.816C269.39 263.432 268.67 263.24 267.806 263.24C266.942 263.24 266.282 263.396 265.826 263.708C265.37 263.996 265.142 264.404 265.142 264.932C265.142 265.508 265.382 265.94 265.862 266.228C266.342 266.492 266.99 266.696 267.806 266.84L268.814 267.02C270.158 267.26 271.37 267.584 272.45 267.992C273.554 268.376 274.418 268.94 275.042 269.684C275.69 270.404 276.014 271.388 276.014 272.636C276.014 274.508 275.33 275.96 273.962 276.992C272.618 278 270.806 278.504 268.526 278.504ZM280.989 278V252.8H285.525V266.732H286.173L292.077 260.144H297.981L289.737 268.784L298.269 278H292.437L286.173 270.908H285.525V278H280.989Z" fill="#F2F2F2"/>
<rect x="1.5" y="1.5" width="408" height="329" rx="23.5" stroke="#474B67" stroke-width="3"/>
<circle cx="206" cy="128" r="80" fill="#474B67"/>
<path d="M247.813 84.8L211.552 111.309L218.287 95.6691L247.813 84.8Z" fill="#E2761B" stroke="#E2761B" stroke-linecap="round" stroke-linejoin="round"/>
<path d="M164.187 84.8L200.12 111.56L193.713 95.6691L164.187 84.8Z" fill="#E4761B" stroke="#E4761B" stroke-linecap="round" stroke-linejoin="round"/>
<path d="M234.779 146.248L225.132 160.812L245.774 166.408L251.672 146.571L234.779 146.248Z" fill="#E4761B" stroke="#E4761B" stroke-linecap="round" stroke-linejoin="round"/>
<path d="M160.365 146.571L166.226 166.408L186.868 160.812L177.257 146.248L160.365 146.571Z" fill="#E4761B" stroke="#E4761B" stroke-linecap="round" stroke-linejoin="round"/>
<path d="M185.74 121.64L179.988 130.213L200.448 131.11L199.757 109.408L185.74 121.64Z" fill="#E4761B" stroke="#E4761B" stroke-linecap="round" stroke-linejoin="round"/>
<path d="M226.26 121.64L212.025 109.157L211.552 131.11L232.012 130.213L226.26 121.64Z" fill="#E4761B" stroke="#E4761B" stroke-linecap="round" stroke-linejoin="round"/>
<path d="M186.868 160.812L199.21 154.893L188.58 146.714L186.868 160.812Z" fill="#E4761B" stroke="#E4761B" stroke-linecap="round" stroke-linejoin="round"/>
<path d="M212.79 154.893L225.131 160.812L223.42 146.714L212.79 154.893Z" fill="#E4761B" stroke="#E4761B" stroke-linecap="round" stroke-linejoin="round"/>
<path d="M225.131 160.811L212.79 154.893L213.773 162.82L213.664 166.156L225.131 160.811Z" fill="#D7C1B3" stroke="#D7C1B3" stroke-linecap="round" stroke-linejoin="round"/>
<path d="M186.868 160.811L198.336 166.156L198.264 162.82L199.21 154.893L186.868 160.811Z" fill="#D7C1B3" stroke="#D7C1B3" stroke-linecap="round" stroke-linejoin="round"/>
<path d="M198.555 141.477L188.288 138.5L195.533 135.235L198.555 141.477Z" fill="#233447" stroke="#233447" stroke-linecap="round" stroke-linejoin="round"/>
<path d="M213.445 141.477L216.467 135.235L223.748 138.5L213.445 141.477Z" fill="#233447" stroke="#233447" stroke-linecap="round" stroke-linejoin="round"/>
<path d="M186.868 160.812L188.652 146.248L177.257 146.571L186.868 160.812Z" fill="#CD6116" stroke="#CD6116" stroke-linecap="round" stroke-linejoin="round"/>
<path d="M223.348 146.248L225.132 160.812L234.779 146.571L223.348 146.248Z" fill="#CD6116" stroke="#CD6116" stroke-linecap="round" stroke-linejoin="round"/>
<path d="M232.012 130.213L211.552 131.11L213.445 141.477L216.467 135.235L223.748 138.5L232.012 130.213Z" fill="#CD6116" stroke="#CD6116" stroke-linecap="round" stroke-linejoin="round"/>
<path d="M188.288 138.5L195.533 135.235L198.555 141.477L200.448 131.11L179.988 130.213L188.288 138.5Z" fill="#CD6116" stroke="#CD6116" stroke-linecap="round" stroke-linejoin="round"/>
<path d="M179.988 130.213L188.58 146.714L188.288 138.5L179.988 130.213Z" fill="#E4751F" stroke="#E4751F" stroke-linecap="round" stroke-linejoin="round"/>
<path d="M223.748 138.5L223.421 146.714L232.012 130.213L223.748 138.5Z" fill="#E4751F" stroke="#E4751F" stroke-linecap="round" stroke-linejoin="round"/>
<path d="M200.448 131.11L198.555 141.477L200.958 153.709L201.467 137.603L200.448 131.11Z" fill="#E4751F" stroke="#E4751F" stroke-linecap="round" stroke-linejoin="round"/>
<path d="M211.552 131.11L210.569 137.567L211.042 153.709L213.445 141.477L211.552 131.11Z" fill="#E4751F" stroke="#E4751F" stroke-linecap="round" stroke-linejoin="round"/>
<path d="M213.445 141.477L211.042 153.709L212.79 154.893L223.421 146.714L223.748 138.499L213.445 141.477Z" fill="#F6851B" stroke="#F6851B" stroke-linecap="round" stroke-linejoin="round"/>
<path d="M188.288 138.499L188.58 146.714L199.21 154.893L200.958 153.709L198.555 141.477L188.288 138.499Z" fill="#F6851B" stroke="#F6851B" stroke-linecap="round" stroke-linejoin="round"/>
<path d="M213.664 166.156L213.773 162.82L212.863 162.031H199.137L198.264 162.82L198.336 166.156L186.868 160.811L190.873 164.04L199.028 169.6H212.972L221.127 164.04L225.132 160.811L213.664 166.156Z" fill="#C0AD9E" stroke="#C0AD9E" stroke-linecap="round" stroke-linejoin="round"/>
<path d="M212.79 154.893L211.042 153.709H200.958L199.21 154.893L198.264 162.82L199.137 162.031H212.863L213.773 162.82L212.79 154.893Z" fill="#161616" stroke="#161616" stroke-linecap="round" stroke-linejoin="round"/>
<path d="M249.342 113.031L252.4 98.3952L247.813 84.8L212.79 110.412L226.26 121.64L245.301 127.128L249.487 122.286L247.667 120.994L250.58 118.376L248.359 116.654L251.271 114.466L249.342 113.031Z" fill="#763D16" stroke="#763D16" stroke-linecap="round" stroke-linejoin="round"/>
<path d="M159.6 98.3952L162.695 113.031L160.729 114.466L163.641 116.654L161.42 118.376L164.333 120.994L162.512 122.286L166.699 127.128L185.74 121.64L199.21 110.412L164.187 84.8L159.6 98.3952Z" fill="#763D16" stroke="#763D16" stroke-linecap="round" stroke-linejoin="round"/>
<path d="M245.301 127.128L226.26 121.64L232.012 130.213L223.421 146.714L234.779 146.571H251.672L245.301 127.128Z" fill="#F6851B" stroke="#F6851B" stroke-linecap="round" stroke-linejoin="round"/>
<path d="M185.74 121.64L166.699 127.128L160.365 146.571H177.257L188.579 146.714L179.988 130.213L185.74 121.64Z" fill="#F6851B" stroke="#F6851B" stroke-linecap="round" stroke-linejoin="round"/>
<path d="M211.552 131.11L212.79 110.412L218.287 95.6689H193.713L199.21 110.412L200.448 131.11L200.921 137.638L200.958 153.709H211.042L211.079 137.638L211.552 131.11Z" fill="#F6851B" stroke="#F6851B" stroke-linecap="round" stroke-linejoin="round"/>
</svg>
