<svg width="411" height="332" viewBox="0 0 411 332" fill="none" xmlns="http://www.w3.org/2000/svg">
<rect x="1.5" y="1.5" width="408" height="329" rx="23.5" fill="#242635" stroke="#474B67" stroke-width="3"/>
<path d="M341.984 192.5C338.201 194.9 338.201 197 337.728 198.5C337.256 197.5 336.783 195.4 333 193C335.837 190 336.31 189 337.256 187C337.728 188 338.201 190.1 341.984 192.5Z" fill="#383B51"/>
<path d="M337.728 198.5L337.276 198.714L337.822 199.867L338.205 198.65L337.728 198.5ZM341.984 192.5L342.252 192.922L342.917 192.5L342.252 192.078L341.984 192.5ZM337.256 187L337.708 186.786L337.256 185.83L336.804 186.786L337.256 187ZM333 193L332.637 192.656L332.22 193.097L332.732 193.422L333 193ZM338.205 198.65C338.473 197.801 338.552 197.033 339.058 196.07C339.542 195.149 340.42 194.085 342.252 192.922L341.716 192.078C339.766 193.315 338.752 194.501 338.172 195.605C337.614 196.667 337.457 197.699 337.252 198.35L338.205 198.65ZM336.804 187.214C337.008 187.645 337.287 188.515 337.966 189.507C338.659 190.52 339.775 191.691 341.716 192.922L342.252 192.078C340.411 190.909 339.399 189.83 338.791 188.943C338.17 188.035 337.976 187.355 337.708 186.786L336.804 187.214ZM338.18 198.286C337.976 197.855 337.698 196.985 337.018 195.993C336.325 194.98 335.209 193.809 333.268 192.578L332.732 193.422C334.574 194.591 335.586 195.67 336.193 196.557C336.814 197.465 337.008 198.145 337.276 198.714L338.18 198.286ZM336.804 186.786C336.33 187.789 335.99 188.506 335.423 189.345C334.854 190.187 334.048 191.164 332.637 192.656L333.363 193.344C334.789 191.836 335.638 190.813 336.251 189.905C336.867 188.994 337.236 188.211 337.708 187.214L336.804 186.786Z" fill="#383B51"/>
<path d="M273.984 212.5C270.201 214.9 270.201 217 269.728 218.5C269.256 217.5 268.783 215.4 265 213C267.837 210 268.31 209 269.256 207C269.728 208 270.201 210.1 273.984 212.5Z" fill="#383B51"/>
<path d="M269.728 218.5L269.276 218.714L269.822 219.867L270.205 218.65L269.728 218.5ZM273.984 212.5L274.252 212.922L274.917 212.5L274.252 212.078L273.984 212.5ZM269.256 207L269.708 206.786L269.256 205.83L268.804 206.786L269.256 207ZM265 213L264.637 212.656L264.22 213.097L264.732 213.422L265 213ZM270.205 218.65C270.473 217.801 270.552 217.033 271.058 216.07C271.542 215.149 272.42 214.085 274.252 212.922L273.716 212.078C271.766 213.315 270.752 214.501 270.172 215.605C269.614 216.667 269.457 217.699 269.252 218.35L270.205 218.65ZM268.804 207.214C269.008 207.645 269.287 208.515 269.966 209.507C270.659 210.52 271.775 211.691 273.716 212.922L274.252 212.078C272.411 210.909 271.399 209.83 270.791 208.943C270.17 208.035 269.976 207.355 269.708 206.786L268.804 207.214ZM270.18 218.286C269.976 217.855 269.698 216.985 269.018 215.993C268.325 214.98 267.209 213.809 265.268 212.578L264.732 213.422C266.574 214.591 267.586 215.67 268.193 216.557C268.814 217.465 269.008 218.145 269.276 218.714L270.18 218.286ZM268.804 206.786C268.33 207.789 267.99 208.506 267.423 209.345C266.854 210.187 266.048 211.164 264.637 212.656L265.363 213.344C266.789 211.836 267.638 210.813 268.251 209.905C268.867 208.994 269.236 208.211 269.708 207.214L268.804 206.786Z" fill="#383B51"/>
<path d="M390.984 241.5C387.201 243.9 387.201 246 386.728 247.5C386.256 246.5 385.783 244.4 382 242C384.837 239 385.31 238 386.256 236C386.728 237 387.201 239.1 390.984 241.5Z" fill="#383B51"/>
<path d="M386.728 247.5L386.276 247.714L386.822 248.867L387.205 247.65L386.728 247.5ZM390.984 241.5L391.252 241.922L391.917 241.5L391.252 241.078L390.984 241.5ZM386.256 236L386.708 235.786L386.256 234.83L385.804 235.786L386.256 236ZM382 242L381.637 241.656L381.22 242.097L381.732 242.422L382 242ZM387.205 247.65C387.473 246.801 387.552 246.033 388.058 245.07C388.542 244.149 389.42 243.085 391.252 241.922L390.716 241.078C388.766 242.315 387.752 243.501 387.172 244.605C386.614 245.667 386.457 246.699 386.252 247.35L387.205 247.65ZM385.804 236.214C386.008 236.645 386.287 237.515 386.966 238.507C387.659 239.52 388.775 240.691 390.716 241.922L391.252 241.078C389.411 239.909 388.399 238.83 387.791 237.943C387.17 237.035 386.976 236.355 386.708 235.786L385.804 236.214ZM387.18 247.286C386.976 246.855 386.698 245.985 386.018 244.993C385.325 243.98 384.209 242.809 382.268 241.578L381.732 242.422C383.574 243.591 384.586 244.67 385.193 245.557C385.814 246.465 386.008 247.145 386.276 247.714L387.18 247.286ZM385.804 235.786C385.33 236.789 384.99 237.506 384.423 238.345C383.854 239.187 383.048 240.164 381.637 241.656L382.363 242.344C383.789 240.836 384.638 239.813 385.251 238.905C385.867 237.994 386.236 237.211 386.708 236.214L385.804 235.786Z" fill="#383B51"/>
<path d="M320.984 90.5C317.201 92.9 317.201 95 316.728 96.5C316.256 95.5 315.783 93.4 312 91C314.837 88 315.31 87 316.256 85C316.728 86 317.201 88.1 320.984 90.5Z" fill="#383B51"/>
<path d="M316.728 96.5L316.276 96.7137L316.822 97.867L317.205 96.6503L316.728 96.5ZM320.984 90.5L321.252 90.9222L321.917 90.5L321.252 90.0778L320.984 90.5ZM316.256 85L316.708 84.7863L316.256 83.8303L315.804 84.7863L316.256 85ZM312 91L311.637 90.6564L311.22 91.0972L311.732 91.4222L312 91ZM317.205 96.6503C317.473 95.8015 317.552 95.0329 318.058 94.0701C318.542 93.1489 319.42 92.0846 321.252 90.9222L320.716 90.0778C318.766 91.3154 317.752 92.5011 317.172 93.6049C316.614 94.6671 316.457 95.6985 316.252 96.3497L317.205 96.6503ZM315.804 85.2137C316.008 85.6453 316.287 86.5146 316.966 87.5074C317.659 88.52 318.775 89.6905 320.716 90.9222L321.252 90.0778C319.411 88.9095 318.399 87.83 317.791 86.9426C317.17 86.0354 316.976 85.3547 316.708 84.7863L315.804 85.2137ZM317.18 96.2863C316.976 95.8547 316.698 94.9854 316.018 93.9926C315.325 92.98 314.209 91.8095 312.268 90.5778L311.732 91.4222C313.574 92.5905 314.586 93.67 315.193 94.5574C315.814 95.4646 316.008 96.1453 316.276 96.7137L317.18 96.2863ZM315.804 84.7863C315.33 85.7885 314.99 86.5059 314.423 87.3451C313.854 88.1872 313.048 89.1644 311.637 90.6564L312.363 91.3436C313.789 89.8356 314.638 88.8128 315.251 87.9049C315.867 86.9941 316.236 86.2115 316.708 85.2137L315.804 84.7863Z" fill="#383B51"/>
<path d="M386.984 35.5C383.201 37.9 383.201 40 382.728 41.5C382.256 40.5 381.783 38.4 378 36C380.837 33 381.31 32 382.256 30C382.728 31 383.201 33.1 386.984 35.5Z" fill="#383B51"/>
<path d="M382.728 41.5L382.276 41.7137L382.822 42.867L383.205 41.6503L382.728 41.5ZM386.984 35.5L387.252 35.9222L387.917 35.5L387.252 35.0778L386.984 35.5ZM382.256 30L382.708 29.7863L382.256 28.8303L381.804 29.7863L382.256 30ZM378 36L377.637 35.6564L377.22 36.0972L377.732 36.4222L378 36ZM383.205 41.6503C383.473 40.8015 383.552 40.0329 384.058 39.0701C384.542 38.1489 385.42 37.0846 387.252 35.9222L386.716 35.0778C384.766 36.3154 383.752 37.5011 383.172 38.6049C382.614 39.6671 382.457 40.6985 382.252 41.3497L383.205 41.6503ZM381.804 30.2137C382.008 30.6453 382.287 31.5146 382.966 32.5074C383.659 33.52 384.775 34.6905 386.716 35.9222L387.252 35.0778C385.411 33.9095 384.399 32.83 383.791 31.9426C383.17 31.0354 382.976 30.3547 382.708 29.7863L381.804 30.2137ZM383.18 41.2863C382.976 40.8547 382.698 39.9854 382.018 38.9926C381.325 37.98 380.209 36.8095 378.268 35.5778L377.732 36.4222C379.574 37.5905 380.586 38.67 381.193 39.5574C381.814 40.4646 382.008 41.1453 382.276 41.7137L383.18 41.2863ZM381.804 29.7863C381.33 30.7885 380.99 31.5059 380.423 32.3451C379.854 33.1872 379.048 34.1644 377.637 35.6564L378.363 36.3436C379.789 34.8356 380.638 33.8128 381.251 32.9049C381.867 31.9941 382.236 31.2115 382.708 30.2137L381.804 29.7863Z" fill="#383B51"/>
<path d="M219.984 18.5C216.201 20.9 216.201 23 215.728 24.5C215.256 23.5 214.783 21.4 211 19C213.837 16 214.31 15 215.256 13C215.728 14 216.201 16.1 219.984 18.5Z" fill="#383B51"/>
<path d="M215.728 24.5L215.276 24.7137L215.822 25.867L216.205 24.6503L215.728 24.5ZM219.984 18.5L220.252 18.9222L220.917 18.5L220.252 18.0778L219.984 18.5ZM215.256 13L215.708 12.7863L215.256 11.8303L214.804 12.7863L215.256 13ZM211 19L210.637 18.6564L210.22 19.0972L210.732 19.4222L211 19ZM216.205 24.6503C216.473 23.8015 216.552 23.0329 217.058 22.0701C217.542 21.1489 218.42 20.0846 220.252 18.9222L219.716 18.0778C217.766 19.3154 216.752 20.5011 216.172 21.6049C215.614 22.6671 215.457 23.6985 215.252 24.3497L216.205 24.6503ZM214.804 13.2137C215.008 13.6453 215.287 14.5146 215.966 15.5074C216.659 16.52 217.775 17.6905 219.716 18.9222L220.252 18.0778C218.411 16.9095 217.399 15.83 216.791 14.9426C216.17 14.0354 215.976 13.3547 215.708 12.7863L214.804 13.2137ZM216.18 24.2863C215.976 23.8547 215.698 22.9854 215.018 21.9926C214.325 20.98 213.209 19.8095 211.268 18.5778L210.732 19.4222C212.574 20.5905 213.586 21.67 214.193 22.5574C214.814 23.4646 215.008 24.1453 215.276 24.7137L216.18 24.2863ZM214.804 12.7863C214.33 13.7885 213.99 14.5059 213.423 15.3451C212.854 16.1872 212.048 17.1644 210.637 18.6564L211.363 19.3436C212.789 17.8356 213.638 16.8128 214.251 15.9049C214.867 14.9941 215.236 14.2115 215.708 13.2137L214.804 12.7863Z" fill="#383B51"/>
<path d="M99.9841 73.5C96.2013 75.9 96.2013 78 95.7285 79.5C95.2556 78.5 94.7828 76.4 91 74C93.8371 71 94.3099 70 95.2556 68C95.7285 69 96.2013 71.1 99.9841 73.5Z" fill="#383B51"/>
<path d="M95.7285 79.5L95.2765 79.7137L95.8218 80.867L96.2053 79.6503L95.7285 79.5ZM99.9841 73.5L100.252 73.9222L100.917 73.5L100.252 73.0778L99.9841 73.5ZM95.2556 68L95.7076 67.7863L95.2556 66.8303L94.8036 67.7863L95.2556 68ZM91 74L90.6367 73.6564L90.2199 74.0972L90.7321 74.4222L91 74ZM96.2053 79.6503C96.4729 78.8015 96.5519 78.0329 97.0577 77.0701C97.5416 76.1489 98.4198 75.0846 100.252 73.9222L99.7163 73.0778C97.7656 74.3154 96.7524 75.5011 96.1724 76.6049C95.6144 77.6671 95.4569 78.6985 95.2516 79.3497L96.2053 79.6503ZM94.8036 68.2137C95.0077 68.6453 95.2866 69.5146 95.966 70.5074C96.6591 71.52 97.7749 72.6905 99.7163 73.9222L100.252 73.0778C98.4105 71.9095 97.3986 70.83 96.7913 69.9426C96.1704 69.0354 95.9764 68.3547 95.7076 67.7863L94.8036 68.2137ZM96.1805 79.2863C95.9764 78.8547 95.6975 77.9854 95.0181 76.9926C94.3251 75.98 93.2092 74.8095 91.2679 73.5778L90.7321 74.4222C92.5736 75.5905 93.5855 76.67 94.1928 77.5574C94.8137 78.4646 95.0077 79.1453 95.2765 79.7137L96.1805 79.2863ZM94.8036 67.7863C94.3297 68.7885 93.9897 69.5059 93.4228 70.3451C92.8539 71.1872 92.0477 72.1644 90.6367 73.6564L91.3633 74.3436C92.7894 72.8356 93.6381 71.8128 94.2514 70.9049C94.8666 69.9941 95.2359 69.2115 95.7076 68.2137L94.8036 67.7863Z" fill="#383B51"/>
<path d="M37.9841 154.5C34.2013 156.9 34.2013 159 33.7285 160.5C33.2556 159.5 32.7828 157.4 29 155C31.8371 152 32.3099 151 33.2556 149C33.7285 150 34.2013 152.1 37.9841 154.5Z" fill="#383B51"/>
<path d="M33.7285 160.5L33.2765 160.714L33.8218 161.867L34.2053 160.65L33.7285 160.5ZM37.9841 154.5L38.252 154.922L38.9174 154.5L38.252 154.078L37.9841 154.5ZM33.2556 149L33.7076 148.786L33.2556 147.83L32.8036 148.786L33.2556 149ZM29 155L28.6367 154.656L28.2199 155.097L28.7321 155.422L29 155ZM34.2053 160.65C34.4729 159.801 34.5519 159.033 35.0577 158.07C35.5416 157.149 36.4198 156.085 38.252 154.922L37.7163 154.078C35.7656 155.315 34.7524 156.501 34.1724 157.605C33.6144 158.667 33.4569 159.699 33.2516 160.35L34.2053 160.65ZM32.8036 149.214C33.0077 149.645 33.2866 150.515 33.966 151.507C34.6591 152.52 35.7749 153.691 37.7163 154.922L38.252 154.078C36.4105 152.909 35.3986 151.83 34.7913 150.943C34.1704 150.035 33.9764 149.355 33.7076 148.786L32.8036 149.214ZM34.1805 160.286C33.9764 159.855 33.6975 158.985 33.0181 157.993C32.3251 156.98 31.2092 155.809 29.2679 154.578L28.7321 155.422C30.5736 156.591 31.5855 157.67 32.1928 158.557C32.8137 159.465 33.0077 160.145 33.2765 160.714L34.1805 160.286ZM32.8036 148.786C32.3297 149.789 31.9897 150.506 31.4228 151.345C30.8539 152.187 30.0477 153.164 28.6367 154.656L29.3633 155.344C30.7894 153.836 31.6381 152.813 32.2514 151.905C32.8666 150.994 33.2359 150.211 33.7076 149.214L32.8036 148.786Z" fill="#383B51"/>
<path d="M109.984 194.5C106.201 196.9 106.201 199 105.728 200.5C105.256 199.5 104.783 197.4 101 195C103.837 192 104.31 191 105.256 189C105.728 190 106.201 192.1 109.984 194.5Z" fill="#383B51"/>
<path d="M105.728 200.5L105.276 200.714L105.822 201.867L106.205 200.65L105.728 200.5ZM109.984 194.5L110.252 194.922L110.917 194.5L110.252 194.078L109.984 194.5ZM105.256 189L105.708 188.786L105.256 187.83L104.804 188.786L105.256 189ZM101 195L100.637 194.656L100.22 195.097L100.732 195.422L101 195ZM106.205 200.65C106.473 199.801 106.552 199.033 107.058 198.07C107.542 197.149 108.42 196.085 110.252 194.922L109.716 194.078C107.766 195.315 106.752 196.501 106.172 197.605C105.614 198.667 105.457 199.699 105.252 200.35L106.205 200.65ZM104.804 189.214C105.008 189.645 105.287 190.515 105.966 191.507C106.659 192.52 107.775 193.691 109.716 194.922L110.252 194.078C108.411 192.909 107.399 191.83 106.791 190.943C106.17 190.035 105.976 189.355 105.708 188.786L104.804 189.214ZM106.18 200.286C105.976 199.855 105.698 198.985 105.018 197.993C104.325 196.98 103.209 195.809 101.268 194.578L100.732 195.422C102.574 196.591 103.586 197.67 104.193 198.557C104.814 199.465 105.008 200.145 105.276 200.714L106.18 200.286ZM104.804 188.786C104.33 189.789 103.99 190.506 103.423 191.345C102.854 192.187 102.048 193.164 100.637 194.656L101.363 195.344C102.789 193.836 103.638 192.813 104.251 191.905C104.867 190.994 105.236 190.211 105.708 189.214L104.804 188.786Z" fill="#383B51"/>
<path d="M41.9841 261.5C38.2013 263.9 38.2013 266 37.7285 267.5C37.2556 266.5 36.7828 264.4 33 262C35.8371 259 36.3099 258 37.2556 256C37.7285 257 38.2013 259.1 41.9841 261.5Z" fill="#383B51"/>
<path d="M37.7285 267.5L37.2765 267.714L37.8218 268.867L38.2053 267.65L37.7285 267.5ZM41.9841 261.5L42.252 261.922L42.9174 261.5L42.252 261.078L41.9841 261.5ZM37.2556 256L37.7076 255.786L37.2556 254.83L36.8036 255.786L37.2556 256ZM33 262L32.6367 261.656L32.2199 262.097L32.7321 262.422L33 262ZM38.2053 267.65C38.4729 266.801 38.5519 266.033 39.0577 265.07C39.5416 264.149 40.4198 263.085 42.252 261.922L41.7163 261.078C39.7656 262.315 38.7524 263.501 38.1724 264.605C37.6144 265.667 37.4569 266.699 37.2516 267.35L38.2053 267.65ZM36.8036 256.214C37.0077 256.645 37.2866 257.515 37.966 258.507C38.6591 259.52 39.7749 260.691 41.7163 261.922L42.252 261.078C40.4105 259.909 39.3986 258.83 38.7913 257.943C38.1704 257.035 37.9764 256.355 37.7076 255.786L36.8036 256.214ZM38.1805 267.286C37.9764 266.855 37.6975 265.985 37.0181 264.993C36.3251 263.98 35.2092 262.809 33.2679 261.578L32.7321 262.422C34.5736 263.591 35.5855 264.67 36.1928 265.557C36.8137 266.465 37.0077 267.145 37.2765 267.714L38.1805 267.286ZM36.8036 255.786C36.3297 256.789 35.9897 257.506 35.4228 258.345C34.8539 259.187 34.0477 260.164 32.6367 261.656L33.3633 262.344C34.7894 260.836 35.6381 259.813 36.2514 258.905C36.8666 257.994 37.2359 257.211 37.7076 256.214L36.8036 255.786Z" fill="#383B51"/>
<path d="M212.984 236.5C209.201 238.9 209.201 241 208.728 242.5C208.256 241.5 207.783 239.4 204 237C206.837 234 207.31 233 208.256 231C208.728 232 209.201 234.1 212.984 236.5Z" fill="#383B51"/>
<path d="M208.728 242.5L208.276 242.714L208.822 243.867L209.205 242.65L208.728 242.5ZM212.984 236.5L213.252 236.922L213.917 236.5L213.252 236.078L212.984 236.5ZM208.256 231L208.708 230.786L208.256 229.83L207.804 230.786L208.256 231ZM204 237L203.637 236.656L203.22 237.097L203.732 237.422L204 237ZM209.205 242.65C209.473 241.801 209.552 241.033 210.058 240.07C210.542 239.149 211.42 238.085 213.252 236.922L212.716 236.078C210.766 237.315 209.752 238.501 209.172 239.605C208.614 240.667 208.457 241.699 208.252 242.35L209.205 242.65ZM207.804 231.214C208.008 231.645 208.287 232.515 208.966 233.507C209.659 234.52 210.775 235.691 212.716 236.922L213.252 236.078C211.411 234.909 210.399 233.83 209.791 232.943C209.17 232.035 208.976 231.355 208.708 230.786L207.804 231.214ZM209.18 242.286C208.976 241.855 208.698 240.985 208.018 239.993C207.325 238.98 206.209 237.809 204.268 236.578L203.732 237.422C205.574 238.591 206.586 239.67 207.193 240.557C207.814 241.465 208.008 242.145 208.276 242.714L209.18 242.286ZM207.804 230.786C207.33 231.789 206.99 232.506 206.423 233.345C205.854 234.187 205.048 235.164 203.637 236.656L204.363 237.344C205.789 235.836 206.638 234.813 207.251 233.905C207.867 232.994 208.236 232.211 208.708 231.214L207.804 230.786Z" fill="#383B51"/>
<path d="M304.984 301.5C301.201 303.9 301.201 306 300.728 307.5C300.256 306.5 299.783 304.4 296 302C298.837 299 299.31 298 300.256 296C300.728 297 301.201 299.1 304.984 301.5Z" fill="#383B51"/>
<path d="M300.728 307.5L300.276 307.714L300.822 308.867L301.205 307.65L300.728 307.5ZM304.984 301.5L305.252 301.922L305.917 301.5L305.252 301.078L304.984 301.5ZM300.256 296L300.708 295.786L300.256 294.83L299.804 295.786L300.256 296ZM296 302L295.637 301.656L295.22 302.097L295.732 302.422L296 302ZM301.205 307.65C301.473 306.801 301.552 306.033 302.058 305.07C302.542 304.149 303.42 303.085 305.252 301.922L304.716 301.078C302.766 302.315 301.752 303.501 301.172 304.605C300.614 305.667 300.457 306.699 300.252 307.35L301.205 307.65ZM299.804 296.214C300.008 296.645 300.287 297.515 300.966 298.507C301.659 299.52 302.775 300.691 304.716 301.922L305.252 301.078C303.411 299.909 302.399 298.83 301.791 297.943C301.17 297.035 300.976 296.355 300.708 295.786L299.804 296.214ZM301.18 307.286C300.976 306.855 300.698 305.985 300.018 304.993C299.325 303.98 298.209 302.809 296.268 301.578L295.732 302.422C297.574 303.591 298.586 304.67 299.193 305.557C299.814 306.465 300.008 307.145 300.276 307.714L301.18 307.286ZM299.804 295.786C299.33 296.789 298.99 297.506 298.423 298.345C297.854 299.187 297.048 300.164 295.637 301.656L296.363 302.344C297.789 300.836 298.638 299.813 299.251 298.905C299.867 297.994 300.236 297.211 300.708 296.214L299.804 295.786Z" fill="#383B51"/>
<path d="M146.984 312.5C143.201 314.9 143.201 317 142.728 318.5C142.256 317.5 141.783 315.4 138 313C140.837 310 141.31 309 142.256 307C142.728 308 143.201 310.1 146.984 312.5Z" fill="#383B51"/>
<path d="M142.728 318.5L142.276 318.714L142.822 319.867L143.205 318.65L142.728 318.5ZM146.984 312.5L147.252 312.922L147.917 312.5L147.252 312.078L146.984 312.5ZM142.256 307L142.708 306.786L142.256 305.83L141.804 306.786L142.256 307ZM138 313L137.637 312.656L137.22 313.097L137.732 313.422L138 313ZM143.205 318.65C143.473 317.801 143.552 317.033 144.058 316.07C144.542 315.149 145.42 314.085 147.252 312.922L146.716 312.078C144.766 313.315 143.752 314.501 143.172 315.605C142.614 316.667 142.457 317.699 142.252 318.35L143.205 318.65ZM141.804 307.214C142.008 307.645 142.287 308.515 142.966 309.507C143.659 310.52 144.775 311.691 146.716 312.922L147.252 312.078C145.411 310.909 144.399 309.83 143.791 308.943C143.17 308.035 142.976 307.355 142.708 306.786L141.804 307.214ZM143.18 318.286C142.976 317.855 142.698 316.985 142.018 315.993C141.325 314.98 140.209 313.809 138.268 312.578L137.732 313.422C139.574 314.591 140.586 315.67 141.193 316.557C141.814 317.465 142.008 318.145 142.276 318.714L143.18 318.286ZM141.804 306.786C141.33 307.789 140.99 308.506 140.423 309.345C139.854 310.187 139.048 311.164 137.637 312.656L138.363 313.344C139.789 311.836 140.638 310.813 141.251 309.905C141.867 308.994 142.236 308.211 142.708 307.214L141.804 306.786Z" fill="#383B51"/>
<path d="M28.9841 31.5C25.2013 33.9 25.2013 36 24.7285 37.5C24.2556 36.5 23.7828 34.4 20 32C22.8371 29 23.3099 28 24.2556 26C24.7285 27 25.2013 29.1 28.9841 31.5Z" fill="#383B51"/>
<path d="M24.7285 37.5L24.2765 37.7137L24.8218 38.867L25.2053 37.6503L24.7285 37.5ZM28.9841 31.5L29.252 31.9222L29.9174 31.5L29.252 31.0778L28.9841 31.5ZM24.2556 26L24.7076 25.7863L24.2556 24.8303L23.8036 25.7863L24.2556 26ZM20 32L19.6367 31.6564L19.2199 32.0972L19.7321 32.4222L20 32ZM25.2053 37.6503C25.4729 36.8015 25.5519 36.0329 26.0577 35.0701C26.5416 34.1489 27.4198 33.0846 29.252 31.9222L28.7163 31.0778C26.7656 32.3154 25.7524 33.5011 25.1724 34.6049C24.6144 35.6671 24.4569 36.6985 24.2516 37.3497L25.2053 37.6503ZM23.8036 26.2137C24.0077 26.6453 24.2866 27.5146 24.966 28.5074C25.6591 29.52 26.7749 30.6905 28.7163 31.9222L29.252 31.0778C27.4105 29.9095 26.3986 28.83 25.7913 27.9426C25.1704 27.0354 24.9764 26.3547 24.7076 25.7863L23.8036 26.2137ZM25.1805 37.2863C24.9764 36.8547 24.6975 35.9854 24.0181 34.9926C23.3251 33.98 22.2092 32.8095 20.2679 31.5778L19.7321 32.4222C21.5736 33.5905 22.5855 34.67 23.1928 35.5574C23.8137 36.4646 24.0077 37.1453 24.2765 37.7137L25.1805 37.2863ZM23.8036 25.7863C23.3297 26.7885 22.9897 27.5059 22.4228 28.3451C21.8539 29.1872 21.0477 30.1644 19.6367 31.6564L20.3633 32.3436C21.7894 30.8356 22.6381 29.8128 23.2514 28.9049C23.8666 27.9941 24.2359 27.2115 24.7076 26.2137L23.8036 25.7863Z" fill="#383B51"/>
<path d="M286 128C286 172.183 250.183 208 206 208C161.817 208 126 172.183 126 128C126 83.8172 161.817 48 206 48C250.183 48 286 83.8172 286 128Z" fill="#FFCA01"/>
<path d="M247.814 84.8L211.553 111.309L218.288 95.6691L247.814 84.8Z" fill="#414560"/>
<path d="M164.188 84.8L200.121 111.56L193.713 95.6691L164.188 84.8Z" fill="#414560" stroke="#414560" stroke-linecap="round" stroke-linejoin="round"/>
<path d="M234.779 146.248L225.131 160.812L245.773 166.408L251.671 146.571L234.779 146.248Z" fill="#414560" stroke="#414560" stroke-linecap="round" stroke-linejoin="round"/>
<path d="M160.365 146.571L166.227 166.408L186.869 160.812L177.258 146.248L160.365 146.571Z" fill="#414560" stroke="#414560" stroke-linecap="round" stroke-linejoin="round"/>
<path d="M185.74 121.64L179.988 130.213L200.449 131.11L199.757 109.408L185.74 121.64Z" fill="#414560" stroke="#414560" stroke-linecap="round" stroke-linejoin="round"/>
<path d="M226.261 121.64L212.026 109.157L211.553 131.11L232.013 130.213L226.261 121.64Z" fill="#414560" stroke="#414560" stroke-linecap="round" stroke-linejoin="round"/>
<path d="M186.869 160.812L199.211 154.893L188.58 146.714L186.869 160.812Z" fill="#414560" stroke="#414560" stroke-linecap="round" stroke-linejoin="round"/>
<path d="M212.789 154.893L225.131 160.812L223.42 146.714L212.789 154.893Z" fill="#414560" stroke="#414560" stroke-linecap="round" stroke-linejoin="round"/>
<path d="M225.131 160.812L212.789 154.893L213.772 162.82L213.663 166.156L225.131 160.812Z" fill="#D7C1B3" stroke="#D7C1B3" stroke-linecap="round" stroke-linejoin="round"/>
<path d="M186.869 160.812L198.337 166.156L198.264 162.82L199.211 154.893L186.869 160.812Z" fill="#D7C1B3" stroke="#D7C1B3" stroke-linecap="round" stroke-linejoin="round"/>
<path d="M198.554 141.477L188.287 138.5L195.532 135.235L198.554 141.477Z" fill="#FFCA01"/>
<path d="M213.445 141.477L216.467 135.235L223.748 138.5L213.445 141.477Z" fill="#FFCA01"/>
<path d="M186.869 160.812L188.653 146.248L177.258 146.571L186.869 160.812Z" fill="#1E202D"/>
<path d="M223.348 146.248L225.132 160.812L234.779 146.571L223.348 146.248Z" fill="#1E202D"/>
<path d="M232.013 130.213L211.553 131.11L213.446 141.477L216.468 135.235L223.749 138.5L232.013 130.213Z" fill="#1E202D"/>
<path d="M188.289 138.5L195.534 135.235L198.556 141.477L200.449 131.11L179.988 130.213L188.289 138.5Z" fill="#1E202D"/>
<path d="M179.988 130.213L188.58 146.714L188.289 138.5L179.988 130.213Z" fill="#171821"/>
<path d="M223.747 138.5L223.42 146.714L232.012 130.213L223.747 138.5Z" fill="#171821"/>
<path d="M200.448 131.11L198.555 141.477L200.957 153.709L201.467 137.603L200.448 131.11Z" fill="#171821"/>
<path d="M211.551 131.11L210.568 137.567L211.042 153.709L213.444 141.477L211.551 131.11Z" fill="#171821"/>
<path d="M213.446 141.477L211.043 153.709L212.79 154.893L223.421 146.714L223.749 138.5L213.446 141.477Z" fill="#242635"/>
<path d="M188.287 138.5L188.578 146.714L199.209 154.893L200.957 153.709L198.554 141.477L188.287 138.5Z" fill="#242635"/>
<path d="M213.664 166.156L213.774 162.82L212.863 162.031H199.138L198.264 162.82L198.337 166.156L186.869 160.811L190.874 164.04L199.029 169.6H212.973L221.128 164.04L225.132 160.811L213.664 166.156Z" fill="#C0AD9E" stroke="#C0AD9E" stroke-linecap="round" stroke-linejoin="round"/>
<path d="M212.79 154.893L211.042 153.709H200.958L199.21 154.893L198.264 162.82L199.137 162.031H212.863L213.773 162.82L212.79 154.893Z" fill="#161616" stroke="#161616" stroke-linecap="round" stroke-linejoin="round"/>
<path d="M249.341 113.031L252.399 98.3952L247.812 84.8L212.789 110.412L226.259 121.64L245.3 127.128L249.487 122.286L247.666 120.994L250.579 118.376L248.358 116.654L251.271 114.466L249.341 113.031Z" fill="#13141D"/>
<path d="M159.6 98.3952L162.694 113.031L160.728 114.466L163.641 116.654L161.42 118.376L164.332 120.994L162.512 122.286L166.699 127.128L185.739 121.64L199.21 110.412L164.187 84.8L159.6 98.3952Z" fill="#13141D"/>
<path d="M245.3 127.128L226.26 121.64L232.012 130.213L223.42 146.714L234.779 146.571H251.671L245.3 127.128Z" fill="#242635"/>
<path d="M185.741 121.64L166.7 127.128L160.365 146.571H177.258L188.58 146.714L179.988 130.213L185.741 121.64Z" fill="#242635"/>
<path d="M211.552 131.11L212.79 110.412L218.287 95.6689H193.713L199.21 110.412L200.448 131.11L200.921 137.638L200.958 153.709H211.042L211.079 137.638L211.552 131.11Z" fill="#242635"/>
<path d="M114.376 278V252.8H123.196L127.552 274.76H128.2L132.556 252.8H141.376V278H136.768V256.292H136.12L131.8 278H123.952L119.632 256.292H118.984V278H114.376ZM155.402 278.504C153.626 278.504 152.054 278.132 150.686 277.388C149.342 276.62 148.286 275.552 147.518 274.184C146.774 272.792 146.402 271.16 146.402 269.288V268.856C146.402 266.984 146.774 265.364 147.518 263.996C148.262 262.604 149.306 261.536 150.65 260.792C151.994 260.024 153.554 259.64 155.33 259.64C157.082 259.64 158.606 260.036 159.902 260.828C161.198 261.596 162.206 262.676 162.926 264.068C163.646 265.436 164.006 267.032 164.006 268.856V270.404H151.01C151.058 271.628 151.514 272.624 152.378 273.392C153.242 274.16 154.298 274.544 155.546 274.544C156.818 274.544 157.754 274.268 158.354 273.716C158.954 273.164 159.41 272.552 159.722 271.88L163.43 273.824C163.094 274.448 162.602 275.132 161.954 275.876C161.33 276.596 160.49 277.22 159.434 277.748C158.378 278.252 157.034 278.504 155.402 278.504ZM151.046 267.02H159.398C159.302 265.988 158.882 265.16 158.138 264.536C157.418 263.912 156.47 263.6 155.294 263.6C154.07 263.6 153.098 263.912 152.378 264.536C151.658 265.16 151.214 265.988 151.046 267.02ZM175.321 278C174.145 278 173.185 277.64 172.441 276.92C171.721 276.176 171.361 275.192 171.361 273.968V263.888H166.897V260.144H171.361V254.6H175.897V260.144H180.793V263.888H175.897V273.176C175.897 273.896 176.233 274.256 176.905 274.256H180.361V278H175.321ZM191.443 278.504C190.171 278.504 189.031 278.288 188.023 277.856C187.015 277.4 186.211 276.752 185.611 275.912C185.035 275.048 184.747 274.004 184.747 272.78C184.747 271.556 185.035 270.536 185.611 269.72C186.211 268.88 187.027 268.256 188.059 267.848C189.115 267.416 190.315 267.2 191.659 267.2H196.555V266.192C196.555 265.352 196.291 264.668 195.763 264.14C195.235 263.588 194.395 263.312 193.243 263.312C192.115 263.312 191.275 263.576 190.723 264.104C190.171 264.608 189.811 265.268 189.643 266.084L185.467 264.68C185.755 263.768 186.211 262.94 186.835 262.196C187.483 261.428 188.335 260.816 189.391 260.36C190.471 259.88 191.779 259.64 193.315 259.64C195.667 259.64 197.527 260.228 198.895 261.404C200.263 262.58 200.947 264.284 200.947 266.516V273.176C200.947 273.896 201.283 274.256 201.955 274.256H203.395V278H200.371C199.483 278 198.751 277.784 198.175 277.352C197.599 276.92 197.311 276.344 197.311 275.624V275.588H196.627C196.531 275.876 196.315 276.26 195.979 276.74C195.643 277.196 195.115 277.604 194.395 277.964C193.675 278.324 192.691 278.504 191.443 278.504ZM192.235 274.832C193.507 274.832 194.539 274.484 195.331 273.788C196.147 273.068 196.555 272.12 196.555 270.944V270.584H191.983C191.143 270.584 190.483 270.764 190.003 271.124C189.523 271.484 189.283 271.988 189.283 272.636C189.283 273.284 189.535 273.812 190.039 274.22C190.543 274.628 191.275 274.832 192.235 274.832ZM207.711 278V260.144H212.175V262.088H212.823C213.135 261.488 213.651 260.972 214.371 260.54C215.091 260.084 216.039 259.856 217.215 259.856C218.487 259.856 219.507 260.108 220.275 260.612C221.043 261.092 221.631 261.728 222.039 262.52H222.687C223.095 261.752 223.671 261.116 224.415 260.612C225.159 260.108 226.215 259.856 227.583 259.856C228.687 259.856 229.683 260.096 230.571 260.576C231.483 261.032 232.203 261.74 232.731 262.7C233.283 263.636 233.559 264.824 233.559 266.264V278H229.023V266.588C229.023 265.604 228.771 264.872 228.267 264.392C227.763 263.888 227.055 263.636 226.143 263.636C225.111 263.636 224.307 263.972 223.731 264.644C223.179 265.292 222.903 266.228 222.903 267.452V278H218.367V266.588C218.367 265.604 218.115 264.872 217.611 264.392C217.107 263.888 216.399 263.636 215.487 263.636C214.455 263.636 213.651 263.972 213.075 264.644C212.523 265.292 212.247 266.228 212.247 267.452V278H207.711ZM244.982 278.504C243.71 278.504 242.57 278.288 241.562 277.856C240.554 277.4 239.75 276.752 239.15 275.912C238.574 275.048 238.286 274.004 238.286 272.78C238.286 271.556 238.574 270.536 239.15 269.72C239.75 268.88 240.566 268.256 241.598 267.848C242.654 267.416 243.854 267.2 245.198 267.2H250.094V266.192C250.094 265.352 249.83 264.668 249.302 264.14C248.774 263.588 247.934 263.312 246.782 263.312C245.654 263.312 244.814 263.576 244.262 264.104C243.71 264.608 243.35 265.268 243.182 266.084L239.006 264.68C239.294 263.768 239.75 262.94 240.374 262.196C241.022 261.428 241.874 260.816 242.93 260.36C244.01 259.88 245.318 259.64 246.854 259.64C249.206 259.64 251.066 260.228 252.434 261.404C253.802 262.58 254.486 264.284 254.486 266.516V273.176C254.486 273.896 254.822 274.256 255.494 274.256H256.934V278H253.91C253.022 278 252.29 277.784 251.714 277.352C251.138 276.92 250.85 276.344 250.85 275.624V275.588H250.166C250.07 275.876 249.854 276.26 249.518 276.74C249.182 277.196 248.654 277.604 247.934 277.964C247.214 278.324 246.23 278.504 244.982 278.504ZM245.774 274.832C247.046 274.832 248.078 274.484 248.87 273.788C249.686 273.068 250.094 272.12 250.094 270.944V270.584H245.522C244.682 270.584 244.022 270.764 243.542 271.124C243.062 271.484 242.822 271.988 242.822 272.636C242.822 273.284 243.074 273.812 243.578 274.22C244.082 274.628 244.814 274.832 245.774 274.832ZM268.526 278.504C266.198 278.504 264.29 278 262.802 276.992C261.314 275.984 260.414 274.544 260.102 272.672L264.278 271.592C264.446 272.432 264.722 273.092 265.106 273.572C265.514 274.052 266.006 274.4 266.582 274.616C267.182 274.808 267.83 274.904 268.526 274.904C269.582 274.904 270.362 274.724 270.866 274.364C271.37 273.98 271.622 273.512 271.622 272.96C271.622 272.408 271.382 271.988 270.902 271.7C270.422 271.388 269.654 271.136 268.598 270.944L267.59 270.764C266.342 270.524 265.202 270.2 264.17 269.792C263.138 269.36 262.31 268.772 261.686 268.028C261.062 267.284 260.75 266.324 260.75 265.148C260.75 263.372 261.398 262.016 262.694 261.08C263.99 260.12 265.694 259.64 267.806 259.64C269.798 259.64 271.454 260.084 272.774 260.972C274.094 261.86 274.958 263.024 275.366 264.464L271.154 265.76C270.962 264.848 270.566 264.2 269.966 263.816C269.39 263.432 268.67 263.24 267.806 263.24C266.942 263.24 266.282 263.396 265.826 263.708C265.37 263.996 265.142 264.404 265.142 264.932C265.142 265.508 265.382 265.94 265.862 266.228C266.342 266.492 266.99 266.696 267.806 266.84L268.814 267.02C270.158 267.26 271.37 267.584 272.45 267.992C273.554 268.376 274.418 268.94 275.042 269.684C275.69 270.404 276.014 271.388 276.014 272.636C276.014 274.508 275.33 275.96 273.962 276.992C272.618 278 270.806 278.504 268.526 278.504ZM280.989 278V252.8H285.525V266.732H286.173L292.077 260.144H297.981L289.737 268.784L298.269 278H292.437L286.173 270.908H285.525V278H280.989Z" fill="#FFCA00"/>
</svg>
