<svg width="40" height="40" viewBox="0 0 40 40" fill="none" xmlns="http://www.w3.org/2000/svg">
<path fill-rule="evenodd" clip-rule="evenodd" d="M24.9502 4.53102C24.1247 5.10897 23.3071 6.577 23.3071 7.48031C23.3071 7.85606 23.6627 8.3033 24.1732 8.57007C24.6497 8.81889 25.4557 9.46047 25.9644 9.99558C27.0409 11.1279 27.5115 11.1871 28.8652 10.3619C30.823 9.16818 30.9313 6.13921 29.0686 4.67432C28.0863 3.90141 25.9546 3.82739 24.9502 4.53102ZM27.4016 7.50393C27.4016 8.69385 27.286 9.07873 26.9291 9.07873C26.599 9.07873 26.4567 8.74614 26.4567 7.97637C26.4567 7.37007 26.2976 6.87401 26.1033 6.87401C25.8589 6.87401 25.8708 6.72787 26.1417 6.40157C26.9364 5.4444 27.4016 5.85133 27.4016 7.50393ZM19.3701 10.2498C18.2819 10.514 16.6441 11.9537 16.1871 13.0472C15.2154 15.3723 16.0113 18.0494 18.085 19.4318C19.0252 20.0586 19.4995 20.1572 21.0343 20.0463C23.2416 19.8866 24.3042 19.1975 25.2308 17.325C27.1471 13.452 23.6359 9.21322 19.3701 10.2498ZM21.4173 15.2425C21.4173 17.5345 21.3899 17.6227 20.7086 17.526C20.1039 17.44 19.9858 17.2057 19.9039 15.9291C19.8315 14.7997 19.6831 14.4331 19.2979 14.4331C18.8891 14.4331 18.9345 14.2768 19.5275 13.6457C19.9345 13.2126 20.526 12.8583 20.8422 12.8583C21.3483 12.8583 21.4173 13.1442 21.4173 15.2425ZM7.84471 19.7742C6.27904 20.2482 0.314941 23.0198 0.314941 23.2731C0.314941 23.623 4.13415 32.1568 4.45321 32.52C4.60597 32.6942 4.9351 32.6139 5.26801 32.3219C6.15116 31.5471 7.77384 30.811 8.59809 30.811C9.01352 30.811 11.5757 31.9449 14.2919 33.3307C20.0793 36.2838 20.8438 36.4094 23.5965 34.8624C27.0513 32.9206 39.0258 24.84 39.3524 24.2299C39.9017 23.2038 39.7326 22.3528 38.8664 21.7852C38.0623 21.2586 37.0286 21.3521 35.2734 22.1105C34.9612 22.2457 34.6916 22.0718 34.486 21.6028C34.0913 20.7033 32.257 20.4853 30.9168 21.1786C30.0967 21.6028 29.9382 21.6047 29.5993 21.1965C28.8875 20.3386 27.103 20.652 24.6189 22.0709L22.2756 23.4094L24.6025 23.6085C25.8822 23.7178 27.3093 23.9842 27.7738 24.2003C29.3845 24.9496 29.6923 27.2605 28.3587 28.594C27.4179 29.5348 25.6627 29.8627 21.5748 29.8614C18.2195 29.8602 17.6186 29.7742 16.2205 29.0967C14.4759 28.2507 12.5786 26.8094 13.7008 27.182C16.2063 28.0148 18.1751 28.2913 21.594 28.2913C25.7537 28.2913 27.2652 27.9575 27.5786 26.9701C27.9499 25.8 27.0434 25.3657 23.7137 25.1181C19.897 24.8343 18.6576 24.3902 15.4888 22.1694C11.7625 19.5584 10.1864 19.0646 7.84471 19.7742Z" fill="#242535"/>
</svg>
