<svg width="32" height="32" viewBox="0 0 32 32" fill="none" xmlns="http://www.w3.org/2000/svg">
<g clip-path="url(#clip0)">
<path fill-rule="evenodd" clip-rule="evenodd" d="M11.8023 4.45275C11.4241 4.66855 10.9964 5.07811 10.8516 5.36266C10.6348 5.78869 10.4749 5.83487 9.94576 5.62305C8.22622 4.93531 7.17708 5.47945 3.15414 9.14405L0.126337 11.9022L0.0587157 18.4887C0.0112801 23.1251 0.076378 25.1833 0.278989 25.4399C0.50456 25.7261 1.52644 25.7988 5.01422 25.7781C7.46069 25.7635 9.74592 25.6679 10.0929 25.5655C10.5798 25.4216 10.8286 25.5185 11.1836 25.9902C11.5576 26.4868 11.8876 26.6009 12.9521 26.6009C13.9954 26.6009 14.326 26.7106 14.5818 27.1416C15.3592 28.451 17.3439 28.3199 18.4933 26.8834C19.0569 26.1784 19.1251 26.1598 19.7879 26.525C21.32 27.3696 22.6984 26.3644 24.3523 23.197L25.5982 20.811L27.6228 20.7197C29.221 20.6478 29.8135 20.5039 30.4364 20.0367C31.892 18.9442 32.0444 18.2164 32.0439 12.3601C32.0437 6.44564 31.8878 5.75444 30.304 4.64147C29.4544 4.04424 29.3709 4.03894 20.9682 4.04955C13.9783 4.05831 12.3693 4.12918 11.8023 4.45275ZM29.1249 6.84485C29.3429 7.07445 29.5213 7.37307 29.5213 7.50844C29.5213 7.65549 26.0534 7.75503 20.9425 7.75503C16.2242 7.75503 12.3637 7.67487 12.3637 7.57692C12.3637 7.47898 12.5517 7.18036 12.7813 6.91334C13.1686 6.46316 13.7618 6.42785 20.9637 6.42785C27.6859 6.42785 28.7815 6.48386 29.1249 6.84485ZM9.44138 8.18158C9.77671 8.31696 9.84054 8.88897 9.84054 11.7615V15.1806L8.83127 15.8508C8.22672 16.2524 7.82201 16.7249 7.82201 17.0296C7.82201 17.6337 8.4634 18.3724 8.98746 18.3724C9.19234 18.3724 10.9058 17.5363 12.7952 16.5144C16.529 14.495 17.4101 14.2606 17.4101 15.2868C17.4101 15.7537 16.504 16.812 13.9132 19.3707C9.88798 23.3467 9.73886 23.4157 5.16032 23.4157H2.52335V18.287V13.158L4.21438 11.5847C8.09325 7.97561 8.41394 7.76671 9.44138 8.18158ZM29.5213 14.6033C29.5213 16.4791 29.4166 17.5801 29.2185 17.7885C29.0033 18.0149 27.4679 18.107 23.9148 18.107H18.9136L19.4235 17.0559C20.0435 15.7775 20.0738 14.5903 19.5121 13.5901C18.579 11.9287 16.6319 11.731 13.9932 13.03L12.3637 13.8322V12.7842V11.7366H20.9425H29.5213V14.6033ZM18.6467 22.9512C17.4499 25.4715 17.0114 26.0701 16.3617 26.0701C15.6706 26.0701 15.7735 25.3975 16.837 22.9618C17.78 20.8025 17.7971 20.7826 18.7375 20.772L19.6865 20.7614L18.6467 22.9512ZM23.4657 20.8851C23.4657 21.3135 21.5645 24.5348 21.1855 24.7482C20.56 25.1002 20.5161 25.0861 20.3672 24.487C20.2958 24.2003 20.5617 23.2448 20.9579 22.3635C21.6389 20.8484 21.7264 20.7614 22.572 20.7614C23.0635 20.7614 23.4657 20.8171 23.4657 20.8851ZM14.9886 22.6858C14.6235 23.4523 14.1499 24.2882 13.9359 24.5438C13.5582 24.9951 12.3637 25.2021 12.3637 24.8164C12.3637 24.6373 15.4142 21.2922 15.5777 21.2922C15.6189 21.2922 15.3537 21.9192 14.9886 22.6858Z" fill="#242535"/>
</g>
<defs>
<clipPath id="clip0">
<rect width="32" height="32" fill="white"/>
</clipPath>
</defs>
</svg>
