<svg width="32" height="32" viewBox="0 0 32 32" fill="none" xmlns="http://www.w3.org/2000/svg">
<g clip-path="url(#clip0)">
<path fill-rule="evenodd" clip-rule="evenodd" d="M9.41135 2.67336C8.49637 3.12199 7.72134 4.23089 7.45837 5.46797C7.2151 6.6123 8.13083 8.45409 9.19384 8.95827C10.1543 9.41395 10.9033 11.0333 11.068 13.0098L11.1802 14.356L11.8708 13.6975C12.2508 13.3355 13.1988 12.7816 13.9776 12.4667L15.3936 11.8941L14.5491 11.0796C14.0845 10.6317 13.2779 10.1192 12.7565 9.941L11.8087 9.61678L12.8108 9.0563C14.0602 8.35758 14.7357 7.25145 14.7357 5.90429C14.7357 3.21072 11.866 1.46921 9.41135 2.67336ZM19.1987 2.75027C18.07 3.34795 17.3887 4.51163 17.368 5.87689C17.347 7.25622 17.9985 8.34476 19.2712 9.0563L20.2734 9.61678L19.3255 9.941C18.8041 10.1192 17.9975 10.6317 17.533 11.0796L16.6885 11.8941L18.1044 12.4667C18.8832 12.7816 19.8313 13.3355 20.2112 13.6975L20.9019 14.356L21.014 13.0098C21.1737 11.0956 21.9431 9.37348 22.7962 9.02136C23.7686 8.61998 24.5878 7.1944 24.5878 5.90429C24.5878 3.123 21.6936 1.42925 19.1987 2.75027ZM3.29297 10.1142C1.48449 11.0368 0.754426 13.1194 1.64162 14.8262C2.05363 15.6189 3.49658 16.8269 4.06547 16.855C4.26075 16.8648 3.96821 17.0377 3.41498 17.239C1.11339 18.0773 -0.076177 20.1058 0.0501313 22.9776L0.126169 24.7057L1.13664 25.0687C2.50178 25.5593 7.35025 25.5593 8.71513 25.0687L9.7256 24.7055L9.80063 22.8715C9.86353 21.3301 9.77486 20.8329 9.24386 19.7544C8.58125 18.4078 6.95111 17.089 5.94898 17.0885C5.59582 17.0885 5.75876 16.9269 6.46078 16.5813C7.86533 15.8894 8.69391 14.4198 8.5239 12.9208C8.35793 11.4556 7.76252 10.6128 6.48503 10.0358C5.11737 9.41797 4.63437 9.42978 3.29297 10.1142ZM25.597 10.0358C24.3195 10.6128 23.7241 11.4556 23.5581 12.9208C23.3881 14.4198 24.2167 15.8894 25.6212 16.5813C26.3233 16.9269 26.4862 17.0885 26.133 17.0885C25.3676 17.0887 23.6875 18.261 22.9799 19.2882C22.4368 20.0769 22.3607 20.4629 22.3587 22.443L22.3564 24.699L23.3669 25.0654C24.729 25.5593 29.5739 25.5615 30.9454 25.0687L31.9559 24.7057L32.0319 22.9776C32.1582 20.1058 30.9686 18.0773 28.667 17.239C28.1138 17.0377 27.8213 16.8648 28.0166 16.855C28.5855 16.8269 30.0284 15.6189 30.4404 14.8262C31.3276 13.1194 30.5975 11.0368 28.7891 10.1142C27.4477 9.42978 26.9647 9.41797 25.597 10.0358ZM14.2073 15.0768C11.7587 16.5619 11.8385 20.1799 14.3457 21.3615C15.3387 21.8295 15.3582 22.0127 14.4344 22.1964C14.0368 22.2756 13.3385 22.6526 12.8826 23.0344C11.6374 24.0769 11.1271 25.4246 11.1205 27.6881L11.115 29.6166L12.0623 29.9501C13.3302 30.3968 18.7518 30.3968 20.0197 29.9501L20.967 29.6166L20.9615 27.6881C20.9549 25.4246 20.4446 24.0769 19.1995 23.0344C18.7435 22.6526 18.0453 22.2756 17.6477 22.1964C16.7238 22.0127 16.7433 21.8295 17.7363 21.3615C18.865 20.8296 19.5049 19.8366 19.6269 18.4269C19.8755 15.5586 16.6746 13.5801 14.2073 15.0768Z" fill="#242535"/>
</g>
<defs>
<clipPath id="clip0">
<rect width="32" height="32" fill="white"/>
</clipPath>
</defs>
</svg>
