<svg width="25" height="25" viewBox="0 0 25 25" fill="none" xmlns="http://www.w3.org/2000/svg">
<path fill-rule="evenodd" clip-rule="evenodd" d="M9.85861 1.42786C5.33928 2.19154 1.39328 2.91929 1.08987 3.04486C-0.0419961 3.51332 -0.0158761 3.25952 0.0418528 13.1663C0.094282 22.1902 0.0959855 22.224 0.516555 22.8133C1.39101 24.0381 1.20552 24.0186 12.0188 24.0186C22.8321 24.0186 22.6466 24.0381 23.521 22.8133C23.9376 22.2297 23.9439 22.1262 23.9969 14.978C24.0495 7.88792 24.0421 7.71866 23.6479 7.01777C22.8081 5.52483 23.3208 5.59084 11.7349 5.48455C6.06137 5.43254 1.31302 5.32115 1.1828 5.23699C1.05277 5.15283 0.946209 4.96144 0.946209 4.81146C0.946209 4.61269 1.18981 4.53818 1.84527 4.53648C2.33984 4.53496 5.4273 4.40825 8.70649 4.25468C11.9857 4.10112 16.138 3.91861 17.9336 3.8492L21.1986 3.72306V2.51097C21.1986 1.84431 21.1067 1.12716 20.9942 0.91723C20.7264 0.417379 19.6897 -0.00512215 18.7914 0.019653C18.3978 0.030433 14.3779 0.664184 9.85861 1.42786ZM20.9687 13.0637C22.1611 13.479 22.5387 15.0296 21.6883 16.0176C21.309 16.4582 21.0813 16.5482 20.3469 16.5482C19.6125 16.5482 19.3848 16.4582 19.0055 16.0176C18.5109 15.443 18.3979 14.441 18.753 13.7782C18.8653 13.5684 19.2273 13.2794 19.5574 13.1361C20.2971 12.8146 20.2591 12.8165 20.9687 13.0637Z" fill="#242535"/>
</svg>
